<svg xmlns="http://www.w3.org/2000/svg" xmlns:xlink="http://www.w3.org/1999/xlink" viewBox="0 0 400 400"><defs><style>.cls-1{font-size:34.14px;fill:#c69c6d;font-family:Sylfaen;letter-spacing:0.03em;}.cls-2{fill:url(#Nueva_muestra_de_degradado_3);}.cls-3{fill:url(#Degradado_sin_nombre_260);}.cls-4{fill:#c99d66;}.cls-5{fill:url(#Degradado_sin_nombre_244);}.cls-6{fill:url(#Degradado_sin_nombre_266);}.cls-7{fill:url(#Degradado_sin_nombre_270);}.cls-8{fill:url(#Degradado_sin_nombre_231);}.cls-9{fill:url(#Degradado_sin_nombre_237);}.cls-10{fill:url(#Nueva_muestra_de_degradado_3-2);}.cls-11{fill:url(#Degradado_sin_nombre_11);}.cls-12{fill:url(#Degradado_sin_nombre_11-2);}.cls-13{fill:url(#Degradado_sin_nombre_11-3);}.cls-14{fill:url(#Degradado_sin_nombre_11-4);}.cls-15{fill:none;}</style><linearGradient id="Nueva_muestra_de_degradado_3" x1="203.43" y1="306.62" x2="203.43" y2="25" gradientUnits="userSpaceOnUse"><stop offset="0.02" stop-color="#c99d66"/><stop offset="0.31" stop-color="#634e42"/><stop offset="0.37" stop-color="#5f4f41"/><stop offset="0.42" stop-color="#52523f"/><stop offset="0.48" stop-color="#3d573c"/><stop offset="0.54" stop-color="#205e38"/><stop offset="0.59" stop-color="#063"/><stop offset="0.73" stop-color="#3b8a2b"/><stop offset="0.85" stop-color="#6ba724"/><stop offset="0.95" stop-color="#88b920"/><stop offset="1" stop-color="#93c01f"/></linearGradient><linearGradient id="Degradado_sin_nombre_260" x1="176.65" y1="274.96" x2="176.65" y2="255.01" gradientUnits="userSpaceOnUse"><stop offset="0" stop-color="#c99d66"/><stop offset="0.1" stop-color="#b78856"/><stop offset="0.23" stop-color="#a67648"/><stop offset="0.39" stop-color="#9b693e"/><stop offset="0.59" stop-color="#946138"/><stop offset="1" stop-color="#925f36"/></linearGradient><linearGradient id="Degradado_sin_nombre_244" x1="184.59" y1="290.66" x2="184.59" y2="277.59" gradientUnits="userSpaceOnUse"><stop offset="0" stop-color="#c99d66"/><stop offset="0.43" stop-color="#bd8e58"/><stop offset="1" stop-color="#b17f49"/></linearGradient><linearGradient id="Degradado_sin_nombre_266" x1="131.31" y1="266.89" x2="131.31" y2="257.81" gradientUnits="userSpaceOnUse"><stop offset="0" stop-color="#b17f49"/><stop offset="1" stop-color="#b17f49"/></linearGradient><linearGradient id="Degradado_sin_nombre_270" x1="135.33" y1="279.44" x2="135.33" y2="270.28" gradientUnits="userSpaceOnUse"><stop offset="0" stop-color="#b17f49"/><stop offset="0.46" stop-color="#a16e3f"/><stop offset="1" stop-color="#925f36"/></linearGradient><linearGradient id="Degradado_sin_nombre_231" x1="245.65" y1="307.71" x2="245.65" y2="284.34" gradientUnits="userSpaceOnUse"><stop offset="0" stop-color="#c99d66"/><stop offset="0.4" stop-color="#c79a63"/><stop offset="0.71" stop-color="#bf905a"/><stop offset="0.99" stop-color="#b2804a"/><stop offset="1" stop-color="#b17f49"/></linearGradient><linearGradient id="Degradado_sin_nombre_237" x1="187.05" y1="318.14" x2="187.05" y2="291.54" xlink:href="#Degradado_sin_nombre_244"/><linearGradient id="Nueva_muestra_de_degradado_3-2" x1="151.63" y1="271.46" x2="151.63" y2="271.16" xlink:href="#Nueva_muestra_de_degradado_3"/><linearGradient id="Degradado_sin_nombre_11" x1="86.46" y1="337.2" x2="86.46" y2="254.37" gradientUnits="userSpaceOnUse"><stop offset="0" stop-color="#c69c6d"/><stop offset="0.04" stop-color="#c3996b"/><stop offset="0.67" stop-color="#9b7147"/><stop offset="1" stop-color="#8c6239"/></linearGradient><linearGradient id="Degradado_sin_nombre_11-2" x1="169.88" y1="321.88" x2="169.88" y2="254.37" xlink:href="#Degradado_sin_nombre_11"/><linearGradient id="Degradado_sin_nombre_11-3" x1="243.91" y1="323.41" x2="243.91" y2="254.36" xlink:href="#Degradado_sin_nombre_11"/><linearGradient id="Degradado_sin_nombre_11-4" x1="313.54" y1="337.68" x2="313.54" y2="254.85" xlink:href="#Degradado_sin_nombre_11"/></defs><g id="Capa_2" data-name="Capa 2"><g id="Capa_3" data-name="Capa 3"><text class="cls-1" transform="translate(146.42 364.93)">GROUP</text><path class="cls-2" d="M335.51,145.83c-.52-1.68.54-6.09-1.19-5.74-1.49.3-6.42-.11-6.76-1.6-.28-1.22.56-2.61,0-3.71-.8-1.43-3-.86-4.5-1.53-4.56-2,2.27-10-1-13.78-1.52-1.74-9.87-1.65-10.86-3.74-.88-1.87,6.31-7.37,5.56-9.3-.56-1.44-2.18-2.12-3.2-3.28-1.73-2-1.52-4.87-1.62-7.47a7.39,7.39,0,0,0-2.89-6c-1.51-1.23-4.89-.43-6.51-1.62-1.17-.85-.93-3.51-1.34-4.57-2.33.74-6.07-.61-7-2.86-1.77,1.3-3.52,3.61-5.46,2.59-4.24-2.23-2.24-7.8-3-8.91-1-1.48-.78-2.82-2.71-3.42-1.61-.49-5.57,0-5.57,0a3.33,3.33,0,0,0-2.88-3.75c-1.43-.3-2.86,1.14-4.32.86s-3.12-2.45-4.68-2.71c-.61,2.47,1.43,6.24-5.57,7.79-1.25.28-3.71-.41-6-1.73-4.41-2.51-7.69-7.48-6-12.28-1.82-1.37-3.54-1.65-6.12-1.47-.62,0-1.34,2-3.12,1.86-2.44-.21-1-4.16-3-3.42-5.54,2.05-2.19-5.79-3.64-6.9-1.11-.86-4.59-.6-7.32-1.32s-5.41-3.25-4.52-5.92c-1,0-3.53,1.42-4.56,1.45-1.12-5.46-10.55-6-16.36-5.59a8.39,8.39,0,0,1,.29-5.33c-3.19.11-6-1.93-5.38-5.06A5.56,5.56,0,0,1,186.8,25a11.56,11.56,0,0,1-9.21,1.31c-1,2.22.94,5-3.51,6.23a4.47,4.47,0,0,1-4.39-1.33c-.8-.92-1.9-.52-3.12-.56-6.42-.22-6.75,6.24-11.44,4.91,2.43,1.75,0,5.76-2.85,6.59s-6.22.32-8.64,2.06c-1.81,1.3-2,4.11-4,5.06-1.3.61-3.07,1.83-4.41,1.31-2.34-.89-1.79-3.58-3.46-3.23s-2.22,4.91-7.12,1.56c-1.45-1-.8,4.33-2.23,5.35-1,.7-4.25,1.38-4.36,2.58-.13,1.43,1.76,3.52,2.24,4.88,1,2.89-2,3.64-3.78,6.13s-2.3,8.13.11,10c-2.82-.87-6.46,1.16-7,4.06s.57,5.84,1.92,8.46c2.12-1.92,6.2.69,5.34,3.42s-5.71,2.53-6.34-.26a5.57,5.57,0,0,0-4,5.32c-2.26-.2-3.07-2.58-3-4.85-3.67.1-8.14,3.37-8.61,7-3-.37-6.33.28-8.45,2.47s-2.5,6.09-.3,8.19c-3-.83-7.28-.46-8.28,2.57C76,120,73.06,118,72.17,120.41c-.59,1.62.27,3.84-.16,5.53-1,3.95-1.33,6.06-3.74,9.29-.35,0,8.16-1.52,9.83,1.86.8,1.62.92,3.65-.36,4.93s-4.43,1.76-6.46.89l2.56,5.46c-2.28,1.77,0,2.89-5.23,4.56-3.12,1,2.19,3.23-2,9.69-.86,1.31.37,5.59,2.26,6.46,1.45.67,3.52-2.2,3.79-4A4.65,4.65,0,0,1,75,161.86c2.76-1.13,2.87,1.77,4.93,2.52,2.4.25,4.74-2.06,5.29-3.76,2.48,2.13,6.5,1.27,9.47-.11s3.76-3.34,7-3.61,7.06,2.3,6.42,5.51a6.51,6.51,0,0,1,8.5,1.51c2.13-1.66,4.35-1.8,7-1.41a30.32,30.32,0,0,1,3.07-6.65c.49.73,1,1.49,1.78,2.4a36.09,36.09,0,0,0,4.94,5c.88.81,1.88,1.46,2.83,2.2l1.5,1a12.48,12.48,0,0,0,1.76,1c1.37.64,2.36,1,3.48,1.41l3.21,1.14,6.35,2.16c4.21,1.42,8.4,2.81,12.42,4.25,2,.71,4,1.46,5.81,2.2l1.33.57,1.24.61,1.22.6,1.17.69c6.25,3.64,11.16,8.56,13.72,13.09l.5.82c.15.28.26.56.4.83.24.55.54,1.07.73,1.59a19.59,19.59,0,0,1,.89,2.94,11.64,11.64,0,0,1,.26,1.31c0,.42.07.82.1,1.21l0,.3c-.19,1-.43,2-.7,2.95s-.54,1.91-.79,2.84a50.66,50.66,0,0,0-6.84,27.1c-1.94,1.09-4.45,2.51-7.39,4.15l-11.84,6.65c-3.31,1.85-6.78,3.75-10.34,5.49h.05a3,3,0,0,1,2.95,1.46c2.91-1.28,5.75-2.61,8.45-3.93-.42.81-.82,1.67-1.26,2.49a17,17,0,0,1-2.95,3.81c-.91.92-1.5,1.49-1.38,1.4s.89-.66,1.94-1.53a16,16,0,0,0,3.32-3.6,22,22,0,0,1,2.66-3.71h0l5-2.47c-.84,2-1.42,4.28-2.07,6.26a26.33,26.33,0,0,1-8.13,11.29,31.68,31.68,0,0,1-3,2.25l1.45,1.46a37.73,37.73,0,0,0,4.79-3.39c-1,1.9-2,3.66-2.93,5.22l.81.78a121.43,121.43,0,0,0,8.61-12.94c1.43-2.5,2.77-4.87,4.46-6.29a9.19,9.19,0,0,1,2.69-1.62,11.08,11.08,0,0,1,1.44-.49l1.59-.47a22.41,22.41,0,0,0,2.73-1l.26,1c.39,1.35.83,2.48,1.14,3.41q.12.36.24.66c2.7.18,3.83.22,4.29.22,1,0,2.19-.05,3.53-.14,1.92-.13,2.43-.15,2.66-.15,3.35,0,3.52,2.23,3.52,2.68A2.77,2.77,0,0,1,200,257.4l0,0-.05,0c-.71.43-1.25.77-1.63,1a5.36,5.36,0,0,0-.94.74l4.12,28.15c.15-.17.31-.33.46-.53a11.72,11.72,0,0,0,2.07-4.22,14.56,14.56,0,0,0,.37-4.52c0-.12,0-.23-.05-.35.26.25.54.49.81.74.64,6.46-2,13.22-.94,18.53a12.49,12.49,0,0,0,3,6.88c1.2,1.22,2,1.51,1.67,1.3a8.47,8.47,0,0,1-2.2-2.9,14.71,14.71,0,0,1-1.12-7.71c.28-3.16,1.51-6.69,2.38-10.75.18-.84.32-1.73.43-2.64a14.29,14.29,0,0,1,1.62,1.58,14.86,14.86,0,0,1,2.41,3.76,2.44,2.44,0,0,1,.1.24l-.24,1.25a21.22,21.22,0,0,0-.38,5.41,11.22,11.22,0,0,0,1.28,4.45,7.82,7.82,0,0,0,1.52,2,1.15,1.15,0,0,0,0,.18c0,1.28.06,1.89.1,1.62l.17-1.58.18.16c.56.41.87.53.75.45a5.88,5.88,0,0,1-.91-.84c0-.32.06-.68.1-1.06a53.8,53.8,0,0,0,.2-6.27,26,26,0,0,0-.88-5.93c.41-1.29.82-2.57,1.12-3.86.15-.61.26-1.21.35-1.8l.19.36a25.22,25.22,0,0,1,2.29,7.41,26.73,26.73,0,0,1,0,7.84c-.36,2.53-.6,5.16.38,7.11a5.1,5.1,0,0,0,3.6,3h.06a1.72,1.72,0,0,0,.07-.21,3.5,3.5,0,0,1-1-.41,5.29,5.29,0,0,1-2.31-4c-.18-1.95.52-4.14,1.1-6.68a28.25,28.25,0,0,0-1.34-16.12c-.07-.18-.15-.35-.22-.53.7.29,1.38.57,2,.86a26,26,0,0,1,2.42,1.16v-7.57c-1-.56-2-1.09-2.86-1.61a14.87,14.87,0,0,1-3.82-2.9,17.76,17.76,0,0,1-3.86-8.48c-.21-1-.36-2.13-.48-3.24a53.24,53.24,0,0,0,11,7.9v-5.38a4.38,4.38,0,0,0-.71-.63c-.79-.56-1.57-1.13-2.36-1.72l-.19-.15-.16-.19a2.66,2.66,0,0,1-.5-2.29,2.61,2.61,0,0,1,2.74-2h.42c.57,0,1.54.05,3,.14,2.1.13,3.09.16,3.55.16,1.35,0,2.75-.05,4.15-.14,2.08-.14,2.42-.15,2.59-.15a2.66,2.66,0,0,1,3,2.59,2.8,2.8,0,0,1-.66,1.8c-.2.27-.41.46-2.61,2a3.86,3.86,0,0,0-.77.65v.77c.27.15.53.3.81.44a30.68,30.68,0,0,0,11.84,3.68c.61,0,1.24.05,1.87,0a9.83,9.83,0,0,1,4.27,5.72c.1.4.17.75.22,1a25.07,25.07,0,0,1-4.88-1.61c-2.55-1.1-5.22-2.27-7.78-3.44-2.18-1-4.3-2-6.35-3.12v6.93l1.8.65a9.31,9.31,0,0,1,.93,1.81,19,19,0,0,1,1,4.12,10.39,10.39,0,0,0,1.26,4.37,7.58,7.58,0,0,0,2.94,2.5,13.62,13.62,0,0,0,3,1.16,17.74,17.74,0,0,1-3.48-2,6,6,0,0,1-2.06-2.79,13.42,13.42,0,0,1-.38-3.47,4.69,4.69,0,0,0,.43.47,5.5,5.5,0,0,0,2.61,1.32c.88.2,1.68.3,2.43.52a12.34,12.34,0,0,1,6.86,5.23,16,16,0,0,1,1.51,3.31,12,12,0,0,0-1.53-4.38,13.12,13.12,0,0,0-7.1-5.88,21.3,21.3,0,0,1-2.18-.73,3,3,0,0,1-1.33-1.11,10.61,10.61,0,0,1-1.07-3.13l1.15.38,4.31,1.35c1.45.45,2.94.9,4.5,1.23l.62.12c.69.26,1.47.54,2.33.82s2.06.7,3.13,1.16l0,0a24.55,24.55,0,0,0,2.63,2.22,11.24,11.24,0,0,0,3.43,1.73,23.88,23.88,0,0,1,5.86,8.49c1,2.64,1.26,4.45,1.27,4.1a23.16,23.16,0,0,0-1.05-5.34,24.68,24.68,0,0,0-3.5-6.84c.45,0,.89,0,1.32,0a18.93,18.93,0,0,1,11,4,20,20,0,0,1,2.38,2.15v-.18a19.09,19.09,0,0,0-2.77-3,20.34,20.34,0,0,0-8.52-4.41c-1.73-.44-3.47-.47-4.73-.9a7.41,7.41,0,0,1-1.07-.48,24,24,0,0,0-3.36-2.81c-.23-.26-.45-.51-.62-.72.3,0,.62-.08.92-.14,2.83-.52,5.4-1.24,7.8-1.64a19.91,19.91,0,0,1,6.73-.13,10.47,10.47,0,0,1,5,2.25l.59.53V274.4a10.58,10.58,0,0,0-2.33-1.84,15.4,15.4,0,0,0-6.32-1.88c-4.77-.55-10.07.95-15,.74a15,15,0,0,1-2.32-.3,9.22,9.22,0,0,0-.17-1.5,10.45,10.45,0,0,0-1.61-3.8,10.12,10.12,0,0,0-1.33-1.57,15.73,15.73,0,0,0,3.23-.69c2.05-.66,3.7-1.52,5.22-2.12a23.66,23.66,0,0,1,2.85-.92c.33.62.64,1.25.92,1.87a19.56,19.56,0,0,0,1.9,3.87,5.42,5.42,0,0,0,3.5,2c1.21.23,2.35.29,3.37.52a13.84,13.84,0,0,1,4.86,2.09,14.87,14.87,0,0,1,2.38,2c.43.46.55.61.37.35a13.71,13.71,0,0,0-5-4.15,14,14,0,0,0-2.77-1c-1-.27-2.14-.4-3.2-.69a4.32,4.32,0,0,1-2.65-1.75A18.69,18.69,0,0,1,264,262c-.23-.6-.5-1.22-.77-1.83a30.43,30.43,0,0,1,5.28-.62,39.14,39.14,0,0,1,10,1.07l-.09.21s.37.11,1,.34a9.54,9.54,0,0,0-.31-1.71,6.89,6.89,0,0,0-1.71-2.4,39.41,39.41,0,0,0-13.12-1.84,32.4,32.4,0,0,0-3.63.38c-.37-.53-.75-1.06-1.17-1.58a20,20,0,0,0-8.32-6.05,42.6,42.6,0,0,0-10.55-2c-3.53-.36-7.09-.59-10.44-1.21-.83-.16-1.65-.34-2.42-.57l-1.36-.36-1.3-.31a7.53,7.53,0,0,1-3.79-1.86,16,16,0,0,1-2.57-3.16c-.2-.37-.51-1-.71-1.36a46.51,46.51,0,0,1-3-8.73,77.14,77.14,0,0,1,.32-8.24c1-9.53,3-8.58,3.55-16.77.15-2,.27-4.09.34-6.11,0-1,.05-2.09,0-3.14.07-.39.14-.79.17-1.15a28.06,28.06,0,0,0-.1-5.6c-.08-.88-.16-1.66-.22-2.42a1.45,1.45,0,0,1,.21-.91,21.38,21.38,0,0,1,3.85-4.54,19.9,19.9,0,0,1,3.15-2.32,100.85,100.85,0,0,0,12.35,1c0-2.56,1.33-4.15,3.9-4a3.78,3.78,0,0,1,3.84,4.42,6,6,0,0,1,7,2.31,5,5,0,0,0,2.38-3.64l4.86,1.6a3.66,3.66,0,0,1,4.21-4.16c-1.75-1.88-1.37-6,1.13-6.56,3.31-.78,18,2.4,21-6.1.73-2.06-.19-4.56-2.3-5.1-2.27-.57-5-.19-5-1.67s2.22-.19,2.6-3c1-1.12.34-3.69,3.41-3.57,2.85.12,1.11,4.68,1.11,4.68-.81,3.25,7.11-3.37,9.36-.89.67,5,4.43,1.51,7,6.09a8.26,8.26,0,0,1,8.69-1.71c1.9.83,2.62,4,4.63,4.52,3.09.72,5.74-2.48,8-2.48,4.18,0,8.68,1.56,8.48,0-.78-5.88,7.45-7.52,7.71-8.76S336.73,149.81,335.51,145.83ZM233.11,248.58c3.8.26,7.53.26,11.1.56a21.71,21.71,0,0,1,9.75,2.67,19.11,19.11,0,0,1,4.8,4.13c-1.85.4-3.62,1-5.12,1.46a11.7,11.7,0,0,1-4.16.53,15.32,15.32,0,0,1-4.16-.91c-4.68-1.63-8.81-5.35-13.89-8.57Zm22.14-94.9a1.18,1.18,0,0,1-.05-1,2.93,2.93,0,0,0-.34-2.21,1.55,1.55,0,0,0-2-.51,3.21,3.21,0,0,1,4.19-2.35c.4.5-.64,1-.58,1.68s.89.62,1.47.54,1.44.22,1.24.78C258.58,154,255.68,154.25,255.25,153.68Zm-18.77-17.56a16,16,0,0,0,1.27,3c-.32.35-.64.7-1,1.07a24,24,0,0,0-1.95,2.71c-.32.49-.6,1-.86,1.47-.25-.55-.21-1.37-.7-1.76-.2-.16-.48-.22-.66-.41a1.39,1.39,0,0,1-.18-1.14c.18-1.38,0-3.08-1.27-3.69-.8-.39-1.77-.18-2.63-.39s-1.64-1.35-1-1.94c1.89.89,3.63-1.93,5.72-1.93C234.85,133.08,235.93,134.65,236.48,136.12Zm-6.81-7.27c-.8.44-.59,2.17-.92,2.39a1.78,1.78,0,0,1-1.72,0,4.37,4.37,0,0,1-1.47-1.63c-.44-.69-.86-1.64-.3-2.24a1.9,1.9,0,0,1,1.3-.42,4.55,4.55,0,0,1,2.11.19A1.58,1.58,0,0,1,229.67,128.85Zm-17.49,15.87h.07l.14.63a1.85,1.85,0,0,1-.21-.64,2.44,2.44,0,0,1-2.3-1.46,7.09,7.09,0,0,1-.53-2.9c0-.72-.06-1.43-.08-2.14a6.66,6.66,0,0,0-.45-2.55,13.74,13.74,0,0,1-1.08-2c-.21-.74.21-1.73,1-1.7a1.53,1.53,0,0,1,.36.07l6.21,1.71c.43.12,1,.38.91.83-.05.3-.37.5-.47.79-.21.65.69,1,1.17,1.53a1.89,1.89,0,0,1,.27,2.05,4,4,0,0,1-1.47,1.6,16.49,16.49,0,0,0-2.67,1.85A2.84,2.84,0,0,0,212.18,144.72Zm-2.9-24.23a1.3,1.3,0,0,0-.25-.24,1.84,1.84,0,0,1,2.3,1.69c0,1.12-1.88,2.63-2.35,1.62S209.77,121.41,209.28,120.49Zm-14.87,43.23c2.14.05,4.12-1.28,5.66-.9a9.15,9.15,0,0,1,2,.71l-.37.42c-1.73,1.83-3.52,3.62-4.47,5.77a9.77,9.77,0,0,0-.8,3,9,9,0,0,1-1.37-2.42,12,12,0,0,1-.72-3.95A23.25,23.25,0,0,1,194.41,163.72ZM240.51,76c-.19-1,1.76-1.23,1.76-1.23l1.46,0a10.12,10.12,0,0,0,.08,3.29A2.9,2.9,0,0,1,242.62,81a1.58,1.58,0,0,1-1.75-.2,1.36,1.36,0,0,1-.24-1.7c.27-.41.79-.64,1-1.09C241.93,77.22,240.67,76.79,240.51,76Zm-.91,39.17c.59-.08,1.37-.35,1.78.08.71.77-.33,2-.8,3-.26.53-.61,1.12-1.19,1.21-.91.13-1.42-1-1.62-1.9a2.92,2.92,0,0,1,.12-2.22C238.32,114.67,239.6,115.15,239.6,115.15ZM186.19,73.8a3.84,3.84,0,0,1,2-1.57l-.14,0,4.68-2a3.57,3.57,0,0,1,.95-.28,2.15,2.15,0,0,1,2,2.18,6.21,6.21,0,0,1-1,3.13c-.33.61-.74,1.28-1.42,1.44-1.13.26-2-1.08-3.19-1.21-1.32-.15-2.82,1.27-3.81.38A1.74,1.74,0,0,1,186.19,73.8Zm.58,80.24a4.41,4.41,0,0,0,.29-1.51c.14-.88.65-1.9,1.55-1.92a6.13,6.13,0,0,1,.5,2.26,2.05,2.05,0,0,1-1.16,1.86c-.45.17-1.14.36-1.42.14S186.38,154.34,186.77,154ZM170.21,122c.15-.21-.48-.69-.45-1,.09-.74,1.31-.73,2-.78-.4.17-.47.72-.35,1.14a3.55,3.55,0,0,1,.29,1.26,1.42,1.42,0,0,1-1.78,1c-.75-.17-1.91-.53-1.88-1.3C168.12,121.21,169.52,122.91,170.21,122Zm-2.07,5.81c.64-.4,1.45.25,2.19.14a6.65,6.65,0,0,0,1.16-.52,1.72,1.72,0,0,1,2,2.25,10.31,10.31,0,0,1-1.09,1.36l-.32.77a1.39,1.39,0,0,1,.32-.77l.18-.45a1.23,1.23,0,0,1-1.47.93,2.18,2.18,0,0,1-.66-.34l-1.45-.94a3.09,3.09,0,0,1-1.14-1A1.08,1.08,0,0,1,168.14,127.79ZM162.35,75a2.11,2.11,0,0,1,2-.42c.81.11,1.72.61,1.66,1.4a2.43,2.43,0,0,1-.53,1.58c-.54.55-1.67,1-2.13.43s-.13-1.19-.19-1.79C162.58,76.6,161.9,75.51,162.35,75Zm-3.87,47.44c0,.49-.64.73-.85,1.18s.21,1.16.44,1.73a2.59,2.59,0,0,1-2.58,3.39c1-.69.49-2.16.12-3.29a3.38,3.38,0,0,1,.9-3.36,2.19,2.19,0,0,1,1.16-.4C158.08,121.67,158.52,122,158.48,122.41Zm-22.13,11.45c.57-1,1.69-2.19,2.66-1.56.68.43.65,1.4.73,2.21s.72,1.77,1.47,1.47c.7,1,1.63,3.66.4,3.53-.91-.1-2.06-1.91-3.43-2a3.5,3.5,0,0,1-2-.39C135.27,136.38,135.78,134.9,136.35,133.86Zm-48.3-16c1.17.82,2.73-.09,3.85-1a2.94,2.94,0,0,1,2,2.72l0-.09c.11,1.09-1,2.13-2.07,2.77-.36.23-.88.44-1.16.12s0-.86-.14-1.27c-.26-.74-1.4-.39-2.08-.77S87.77,118.72,88.05,117.85Zm5.32,23.29a1.54,1.54,0,0,0-.11,1.52,1.51,1.51,0,0,0-1.89-.35,8.77,8.77,0,0,1-2.05,1.08,1.54,1.54,0,0,1-1.8-1.07c-.16-.75.68-1.57,1.39-1.27.44-.62-.3-1.41-.36-2.17-.08-1.19,1.43-1.76,2.61-1.84a4.64,4.64,0,0,1,2.34.28,1.9,1.9,0,0,1,1.16,1.89C94.52,140,93.8,140.49,93.37,141.14Zm50.81,20.11c-.55-.13-1-.28-1.48-.41-.19-.06-.31-.11-.47-.15s-.45-.22-.68-.33l-1.41-.7c-.46-.25-.9-.53-1.35-.78-.92-.5-1.73-1.13-2.59-1.7a29.75,29.75,0,0,1-2.35-2,26.23,26.23,0,0,1-3.37-3.63,16.84,16.84,0,0,1,8.4-3.45c-.77,2.71,2.75,3.12,5.87,3.53a27,27,0,0,0,1.82,6.25,25.56,25.56,0,0,0,2.5,4.49C147.4,162,145.75,161.66,144.18,161.25Zm26.6,4.19a15,15,0,0,0-.28,1.8c-2-.51-4-1-6-1.44a47.88,47.88,0,0,1-5.86-2.33,18.46,18.46,0,0,1-7.39-8.42,21.18,21.18,0,0,1-1.41-4.27,10.15,10.15,0,0,1,1.74-1.19c.62-.31,1.55,1,2.49,1,2,0,1.11-1.57,2.52-1.87a3.68,3.68,0,0,1,3.42.93c.51.54.44,1.48,1.41,1.85,1.22.47,1.43,0,2,.1,2.69.65,3.33,2.76,5.66,3.88s2.67.52,3.72.59a7.57,7.57,0,0,1,2.06.43c0,.14,0,.29,0,.41-.41.6-.83,1.2-1.22,1.83A20.55,20.55,0,0,0,170.78,165.44Zm29.63,19.86a52.16,52.16,0,0,0-22.21-15.75c-1.31-.51-2.6-.92-3.87-1.28l0,0a14.66,14.66,0,0,1,1.42-6.28,30.93,30.93,0,0,1,2.07-3.65c.91.64,1.67,1,2.73.3,3.31-2.19,2,.34,4.2,1,1.7.52,2.83-1,3.93.33a9,9,0,0,1,1.58,1.32,6.1,6.1,0,0,0,2.76,2.21,21.6,21.6,0,0,0-.46,4.62,12.13,12.13,0,0,0,.94,4.53,18.35,18.35,0,0,0,2.48,4c.91,1.18,1.84,2.26,2.57,3.33a12.82,12.82,0,0,1,1.62,3.25,14.71,14.71,0,0,1,.57,2.56Zm-.94-9.74c-1.16-1.34-.88-3.43-.12-5.25s2.37-3.56,4.1-5.64c.71,1,.57,2,1.4,2.66s3.35.1,4.63.74a12,12,0,0,0-1.15,3.44c-.67,3.23-.55,5.43-.86,10.39-.14,2.26-1.44,4-1.44,5.51C205.88,187.21,203,179.64,199.47,175.56Zm14.84,118.87c.22,2.07.29,3.79.33,5.05a7.63,7.63,0,0,1-1.35-2.7,11.57,11.57,0,0,1-.35-4.31,20.26,20.26,0,0,1,.53-2.78A32.31,32.31,0,0,1,214.31,294.43Zm-1.94-19.05c.1.17.21.33.32.49a9,9,0,0,1,.65,2.58,17.83,17.83,0,0,1-.14,4.37c0,.16-.07.33-.09.49a16.48,16.48,0,0,0-2.37-3.5c-.75-.85-1.53-1.6-2.26-2.35v-.17a31.75,31.75,0,0,0-1.2-6.64l-.33-1.1a21.82,21.82,0,0,0,1.88,2.59,20.15,20.15,0,0,0,2.77,2.69C211.85,275,212.11,275.2,212.37,275.38Zm84.5-145.81a10.54,10.54,0,0,1-2.58-1.17,1.8,1.8,0,0,1-.91-1c-.08-.34,0-.69,0-1a3.63,3.63,0,0,0-.89-1.5c-.35-.48-.55-1.21-.11-1.61a1.53,1.53,0,0,1,1.12-.23,8.64,8.64,0,0,1,3.87.87,3.36,3.36,0,0,1,1.37,2.15c-.54,0-.62.82-.32,1.26s.81.8.84,1.34C299.31,129.61,297.84,129.85,296.87,129.57Zm17.24,16.35c-.78,1.15-2.52.9-3.86.53l-3.77-1.07a3.22,3.22,0,0,1-1.65-.84,1.11,1.11,0,0,1,.12-1.63c.33-.18.74-.13,1.06-.3.57-.31.56-1.14.34-1.75a3.79,3.79,0,0,1-.51-1.85,2.14,2.14,0,0,1,1.51-1.49,3.94,3.94,0,0,1,4,.66c1,1,.44,3.1.44,3.1l-.55,1.69a2.65,2.65,0,0,1,2.53.5A2,2,0,0,1,314.11,145.92Z"/><path class="cls-3" d="M185.12,258.7l-.43-.31-1.53-1.12-.09-.07-.09-.08a3,3,0,0,1-1.07-2.11,16.44,16.44,0,0,0-2.37,1.49,26.25,26.25,0,0,0-2.84,2.59,36,36,0,0,0-2.51,2.85,33.64,33.64,0,0,0-4.06,6.55,26.66,26.66,0,0,0-1.94,5.5c.39.37.75.7,1.06,1,0,0,5.8-7.12,8.17-9.68a68.83,68.83,0,0,1,7.69-6.57Z"/><path class="cls-4" d="M182,296.39a9.3,9.3,0,0,1-1.05-2.21c0,.4-.06.79-.09,1.18a9,9,0,0,0,1.56,1.94c.76.66,1.2.85,1,.73A8.55,8.55,0,0,1,182,296.39Z"/><path class="cls-5" d="M189.43,280.8l-.47-3.21c-1.13,1.05-2.42,2.08-3.71,3.16-2,1.71-4.08,3.68-5.07,6.12a8.69,8.69,0,0,0-.44,1.27,16.9,16.9,0,0,1,.78,2.52,8.57,8.57,0,0,1,.28-1.48,8.44,8.44,0,0,1,1.45-2.76,21.28,21.28,0,0,1,5.38-4.43Z"/><path class="cls-6" d="M140.3,257.81l-3.46,1a67.53,67.53,0,0,1-12.75,2.5l-3.59.2c0,.16,0,.35,0,.53h1.13a48.41,48.41,0,0,0,5.44-.1,81.3,81.3,0,0,0,8.23-1.27,7.72,7.72,0,0,0-1.06,1.51,8,8,0,0,0-1,3.37,5.83,5.83,0,0,0,.09,1.38,7.51,7.51,0,0,1,1.51-4.67,7.27,7.27,0,0,1,2.17-1.94l3-.66c.7-.13,1.42-.31,2.13-.47l-.32-.27C141.33,258.53,140.81,258.16,140.3,257.81Z"/><path class="cls-4" d="M183.35,272.38c-.19-.11-.39-.25-.58-.38l-.37.38c.48.24.93.45,1.34.64,1.55.69,2.52,1.11,2.35,1Z"/><path class="cls-7" d="M130.93,274.71a5.84,5.84,0,0,0-.81,1.89c-.07.41-.09.53,0,.33a6.26,6.26,0,0,1,2.28-3.42,10.48,10.48,0,0,1,3.92-1.91,5.07,5.07,0,0,0-1.1,1.55,5.71,5.71,0,0,0,.08,4.77,3.85,3.85,0,0,0,1.14,1.5,5,5,0,0,1-1-2,5.08,5.08,0,0,1,.71-4.17,5,5,0,0,1,3.43-2c.24,0,.61-.05,1-.06l.14-.91a12.9,12.9,0,0,0-3.07.35A10.48,10.48,0,0,0,130.93,274.71Z"/><path class="cls-4" d="M260.62,297.05a9.52,9.52,0,0,0-1.55-.19,9.36,9.36,0,0,0,4.39,1.55l.15,0a6.2,6.2,0,0,0-.69-.44A10.33,10.33,0,0,1,260.62,297.05Z"/><path class="cls-8" d="M242.35,285.62q-2.62-.45-5.36-.84l-1.35-.2a8.41,8.41,0,0,1-.93-.19l-.15-.05v5.91c.16.23.33.47.5.73a18.5,18.5,0,0,1,3.09,7.11,10.44,10.44,0,0,1-1.47,7.37,9.29,9.29,0,0,1-2.22,2.24,7.79,7.79,0,0,0,3.07-2.64,11.6,11.6,0,0,0,1.88-7.8,21.07,21.07,0,0,0-2.51-7.55l-.16-.29c2,.06,4,.15,5.95.27a8.23,8.23,0,0,1,1,1.23c.43.62.88,1.34,1.42,2,.19-.18.38-.37.59-.55l-.07-.11c-.46-.8-.89-1.68-1.37-2.47,1.72.12,3.37.26,5,.41a17.59,17.59,0,0,1,7.25-1.51l.36,0c-1.5-.38-3.06-.75-4.7-1.14C249.13,286.89,245.83,286.22,242.35,285.62Z"/><path class="cls-9" d="M194.44,315a31,31,0,0,0-2.08-5.5A14.7,14.7,0,0,1,190.9,304c0-.7-.44-4.77.83-7.53l-.73-4.95a11.88,11.88,0,0,0-1.79,3.32,14.51,14.51,0,0,0-.71,3.55,6.18,6.18,0,0,1-1.15,1.07,6.3,6.3,0,0,1-3.19,1.16,9.06,9.06,0,0,1-1.4-.07,5.61,5.61,0,0,0,1.77.27,6.76,6.76,0,0,0,3.39-1,4.87,4.87,0,0,0,.52-.37c-.08,2.28.08,4.36.07,6.29a15.41,15.41,0,0,1-.85,5.69,10.32,10.32,0,0,1-2.72,3.91,11.6,11.6,0,0,1-3.06,2c-1.83.78-2.85.79-2.39.81a10.6,10.6,0,0,0,4.42-1.16,11.86,11.86,0,0,0,3.56-2.72,12,12,0,0,0,2.62-5c.1-.38.18-.78.26-1.17a25.7,25.7,0,0,0,1.29,2.43,22.55,22.55,0,0,1,2.67,5.6,9.25,9.25,0,0,1,.24,1.33l.16-.16v-.43Z"/><path class="cls-10" d="M151.51,271.46l.24,0-.2-.27Z"/><path class="cls-11" d="M122.1,320.82a.67.67,0,0,1,.16.29.79.79,0,0,1,0,.24c0,.34-.31.52-1,.52-.35,0-1.39,0-3.13-.12s-2.94-.17-3.6-.17c-1.12,0-2.81.08-5,.24a13.46,13.46,0,0,1-1.79.05c-.6,0-.9-.2-.9-.58a.5.5,0,0,1,.16-.39,27.67,27.67,0,0,1,2.25-1.69c1.09-.77,1.63-1.46,1.63-2.07.07-.35.15-.86.24-1.52a19,19,0,0,0,.13-2.29,31.39,31.39,0,0,0-1.79-10.41,38.4,38.4,0,0,0-17-20.08A50.94,50.94,0,0,0,83,278.71a1.41,1.41,0,0,0-1.63.61A59.67,59.67,0,0,0,76.89,289a42.8,42.8,0,0,0-2.78,14.42A102.11,102.11,0,0,0,74.48,314a29.91,29.91,0,0,0,2.78,9.93,13.15,13.15,0,0,0,4.09,4.63,22.74,22.74,0,0,0,3.78,2.12c.42.19.63.42.63.68s-.18.38-.53.48c-1,.29-2,.59-2.91.91s-2,.76-3.2,1.31A21.27,21.27,0,0,0,76,335.7c-.6.39-1.15.79-1.68,1.21a1.37,1.37,0,0,1-.68.29c-.31,0-.47-.26-.47-.77,0-1,0-2.14-.16-3.43s-.37-3.32-.79-6.12c-.63-3.31-1.2-6.59-1.73-9.83a58.1,58.1,0,0,1-.78-9.16,62.85,62.85,0,0,1,2.46-17.41,51.15,51.15,0,0,1,5.61-13.06c-.77-.13-1.58-.25-2.44-.34a25.7,25.7,0,0,0-3-.15,31.68,31.68,0,0,0-6.21.65,17.08,17.08,0,0,0-5.64,2.15c-2.14,1.32-3.2,2.86-3.2,4.63s.8,2.89,2.41,3.18a3.17,3.17,0,0,0,.63,0,3.69,3.69,0,0,0,1.91-.48,1.89,1.89,0,0,0,.95-1.45c.09-.64.27-1,.55-1s.37.17.5.53a4.24,4.24,0,0,1,.18,1.35,4.71,4.71,0,0,1-.1.94l-.21,1a6.56,6.56,0,0,1-2.31,3,9.2,9.2,0,0,1-4.62,1.23,6.33,6.33,0,0,1-4.69-1.91,6.58,6.58,0,0,1-1.91-4.89q0-5,5.87-8.24a27.74,27.74,0,0,1,8.71-3,36.45,36.45,0,0,1,3.72-.43q2-.15,4.2-.15a40.89,40.89,0,0,1,5.9.35,1.38,1.38,0,0,0,1.26-.47A57.64,57.64,0,0,1,96.63,260.2a47.58,47.58,0,0,1,23.16-5.83c1.16,0,1.73.14,1.73.43,0,.13-.12.31-.37.54a9,9,0,0,0-2.24,3.23,28.65,28.65,0,0,0-.64,7.38v51.24c0,.61.53,1.28,1.6,2C121.28,320.19,122,320.73,122.1,320.82ZM110.93,292V260.08a1.36,1.36,0,0,0-1.63-1.34,41.69,41.69,0,0,0-13.37,5.75,45.8,45.8,0,0,0-6.61,5,40.38,40.38,0,0,0-4.17,4.67,1.36,1.36,0,0,0,.64,2.14A52.45,52.45,0,0,1,92.21,279,49,49,0,0,1,99,283.2a41.24,41.24,0,0,1,6.61,5.93,44.81,44.81,0,0,1,2.88,3.65A1.36,1.36,0,0,0,110.93,292Z"/><path class="cls-12" d="M207.75,320.52c.42.29.63.56.63.82s-.42.53-1.26.53-1.29,0-1.78-.05c-2.42-.16-4-.24-4.72-.24-1.37,0-2.46,0-3.28.09s-1.76.13-2.81.2c-.77,0-1.15-.18-1.15-.53a1.06,1.06,0,0,1,.42-.73c.87-.7,1.52-1.23,1.94-1.59.8-.67,1.17-1.3,1.1-1.88l-7.57-51.74a1.37,1.37,0,0,0-2.33-.75l-14,14.52a1.37,1.37,0,0,0,0,1.89,25.2,25.2,0,0,1,3.85,5.37,15.85,15.85,0,0,1,2.15,7.47,12.79,12.79,0,0,1-2.73,8.15,9.17,9.17,0,0,1-7.55,3.71,9,9,0,0,1-7.39-3.61,12.39,12.39,0,0,1-2.68-8,14.07,14.07,0,0,1,1.84-6.7,18.61,18.61,0,0,1,2.63-3.76,1.38,1.38,0,0,0,0-1.86q-5.19-5.76-8.36-10-1.43-1.9-2.4-3.42a1.36,1.36,0,0,0-2.49.53l-7.39,48.13c-.07.58.37,1.21,1.31,1.88.77.55,1.56,1.08,2.36,1.59a1.06,1.06,0,0,1,.42.73c0,.35-.32.53-.94.53-.32,0-1.29,0-2.92-.12s-2.78-.17-3.48-.17q-2.21,0-3.54.09c-.89.07-1.92.13-3.07.2-.77,0-1.16-.18-1.16-.52s.21-.56.63-.91l2.05-1.42a3.35,3.35,0,0,0,1.42-1.88l8.91-58.05c.07-.57-.38-1.23-1.35-2-.77-.52-1.53-1.05-2.3-1.59a.82.82,0,0,1-.31-.58c0-.39.31-.58.94-.58.24,0,1.09,0,2.56.14s2.83.15,4.12.15,2.57,0,3.44-.07,1.88-.12,3-.22c.8,0,1.2.18,1.2.55a1,1,0,0,1-.36.65l-2,1.55q-1.41,1-1.41,1.83a1.41,1.41,0,0,0,.11.43q.78,2,5.2,6.71,3.41,3.56,8,7.85c1.41,1.32,2.47,2.29,3.16,2.92a1.36,1.36,0,0,0,1.88-.07l16.33-16.73a2.12,2.12,0,0,0,.84-1.5,1.68,1.68,0,0,0-.53-1.1,6.46,6.46,0,0,0-1-.82l-1.53-1.11a1,1,0,0,1-.42-.68c0-.32.39-.48,1.16-.48s1.29,0,1.78,0c2.41.16,4,.24,4.72.24,1,0,2.27,0,3.67-.15s2.24-.14,2.52-.14q1.47,0,1.47.63a.79.79,0,0,1-.42.62c-.74.45-1.3.81-1.69,1.06-1.37.9-2,1.71-1.89,2.41l8.49,58.05c.07.55.61,1.18,1.63,1.88C206.16,319.54,206.94,320,207.75,320.52Zm-34.41-25.84a8.84,8.84,0,0,0-2.25-5.4,21.29,21.29,0,0,0-3.24-3.18,1.39,1.39,0,0,0-1.76.06,14.28,14.28,0,0,0-2.4,2.83,9.19,9.19,0,0,0-1.57,5,10.12,10.12,0,0,0,1.36,5.4A5.06,5.06,0,0,0,168,302a4.52,4.52,0,0,0,4-2.36A9.13,9.13,0,0,0,173.34,294.68Z"/><path class="cls-13" d="M272.68,306.7a15.32,15.32,0,0,1-5.38,11.91,19.21,19.21,0,0,1-13.29,4.8,28.37,28.37,0,0,1-8.34-1.4q-10.12-3.13-13.48-3.13a17.27,17.27,0,0,0-6.11.89,9.41,9.41,0,0,0-3.86,2.67q-.42.39-.63.39c-.1,0-.24-.1-.41-.29-.29-.42-.53-.77-.74-1.06a7.05,7.05,0,0,0-1.39-1.4,7.13,7.13,0,0,0-1.91-1.06c-.18-.06-.69-.21-1.52-.43q-.48-.1-.48-.24c0-.1.13-.24.37-.44a21.23,21.23,0,0,0,7.55-7.81,17.24,17.24,0,0,0,2.1-8.39V259.09c0-.61-.52-1.3-1.57-2.07-.77-.54-1.54-1.11-2.31-1.69a.68.68,0,0,1-.08-.57c.05-.26.32-.39.82-.39q.53,0,3.15.12c1.76.11,3,.17,3.69.17q2.1,0,4.29-.15c1.45-.09,2.27-.14,2.45-.14.63,0,.94.18.94.53a.79.79,0,0,1-.21.53,25.53,25.53,0,0,1-2.18,1.59q-1.65,1.16-1.65,2.07v38.19A31.1,31.1,0,0,1,230,310.5c-.7,1.53-2.06,3.95-2.06,3.95l3.06-.61c4.46-.83,12.32.68,18.65,2.77a26.46,26.46,0,0,0,8.29,1.5,11.54,11.54,0,0,0,8-2.85,10.47,10.47,0,0,0,3.46-8.24,13.21,13.21,0,0,0-3-8.9,9.83,9.83,0,0,0-7.84-3.44,8.81,8.81,0,0,0-5.17,1.37,4.34,4.34,0,0,0-2,3.74,3.27,3.27,0,0,0,1.16,2.79,3.9,3.9,0,0,0,2.41.68,6.16,6.16,0,0,0,1.21-.24l1.1-.34q.36-.19.42.09v.58a3.29,3.29,0,0,1-1.86,2.68,7.52,7.52,0,0,1-4.12,1.18,7.31,7.31,0,0,1-5.38-2,7.39,7.39,0,0,1-2.07-5.49,7.53,7.53,0,0,1,3.73-6.51,15,15,0,0,1,8.54-2.49,15.72,15.72,0,0,1,16.16,16Z"/><path class="cls-14" d="M280.13,319.7c1.07-.74,1.6-1.42,1.6-2V266.43a28.65,28.65,0,0,0-.64-7.38,9,9,0,0,0-2.24-3.23c-.25-.23-.37-.4-.37-.53,0-.29.57-.44,1.73-.44a47.48,47.48,0,0,1,23.16,5.84,57.47,57.47,0,0,1,16.35,13.72,1.37,1.37,0,0,0,1.26.46,40.89,40.89,0,0,1,5.9-.35q2.16,0,4.2.15c1.36.1,2.61.24,3.72.43a27.74,27.74,0,0,1,8.71,3q5.88,3.28,5.87,8.24a6.59,6.59,0,0,1-1.91,4.9,6.77,6.77,0,0,1-4.69,1.9,6.62,6.62,0,0,1-4.62-1.23,6.48,6.48,0,0,1-2.31-3q-.11-.48-.21-1a4.63,4.63,0,0,1-.1-.94,4.24,4.24,0,0,1,.18-1.35c.12-.35.29-.53.5-.53s.46.32.55,1a1.88,1.88,0,0,0,1,1.45,3.69,3.69,0,0,0,1.91.48,2.55,2.55,0,0,0,.63-.05c1.61-.29,2.41-1.35,2.41-3.18s-1.06-3.31-3.2-4.63a17.07,17.07,0,0,0-5.64-2.14,30.93,30.93,0,0,0-6.21-.65,28.4,28.4,0,0,0-3,.14c-.86.1-1.67.21-2.44.34A51.3,51.3,0,0,1,327.83,291a63,63,0,0,1,2.46,17.41,58.1,58.1,0,0,1-.78,9.16c-.53,3.25-1.1,6.52-1.73,9.83-.42,2.8-.69,4.84-.79,6.13s-.16,2.42-.16,3.42c0,.51-.16.77-.47.77a1.28,1.28,0,0,1-.68-.29q-.8-.63-1.68-1.2a22.24,22.24,0,0,0-3.12-1.69c-1.21-.55-2.27-1-3.2-1.3s-1.9-.63-2.91-.92c-.35-.09-.53-.26-.53-.48s.21-.48.63-.67a22.72,22.72,0,0,0,3.78-2.13,13.13,13.13,0,0,0,4.09-4.62,30.28,30.28,0,0,0,2.78-9.94,102.11,102.11,0,0,0,.37-10.51,42.74,42.74,0,0,0-2.78-14.41,59.39,59.39,0,0,0-4.52-9.72,1.41,1.41,0,0,0-1.63-.6,50.92,50.92,0,0,0-9.45,4.12,37.91,37.91,0,0,0-8.37,6.44,37.51,37.51,0,0,0-8.65,13.64,31.41,31.41,0,0,0-1.79,10.42,19.17,19.17,0,0,0,.13,2.29c.09.66.17,1.16.24,1.52,0,.61.54,1.3,1.63,2.07a27.67,27.67,0,0,1,2.25,1.69.46.46,0,0,1,.16.38c0,.39-.3.58-.9.58a11.9,11.9,0,0,1-1.79-.05c-2.24-.16-3.92-.24-5.05-.24-.66,0-1.87.06-3.6.17s-2.78.15-3.13.12c-.64,0-.95-.17-.95-.52a.93.93,0,0,1,.05-.24.63.63,0,0,1,.16-.28C278,321.21,278.72,320.68,280.13,319.7Zm14.29-30.09a42.21,42.21,0,0,1,6.61-5.93,50,50,0,0,1,6.76-4.24,52.44,52.44,0,0,1,6.42-2.68,1.37,1.37,0,0,0,.64-2.15,41.23,41.23,0,0,0-4.17-4.67,45.1,45.1,0,0,0-6.61-5,41.25,41.25,0,0,0-13.37-5.75,1.36,1.36,0,0,0-1.63,1.34v31.91a1.36,1.36,0,0,0,2.47.79A43.38,43.38,0,0,1,294.42,289.61Z"/><rect class="cls-15" width="400" height="400"/></g></g></svg>