<svg xmlns="http://www.w3.org/2000/svg" viewBox="0 0 16 15.29"><defs><style>.cls-1{fill:#141414;}.cls-2{fill:#c8c8c8;}</style></defs><g id="Capa_2" data-name="Capa 2"><g id="Capa_1-2" data-name="Capa 1"><rect class="cls-1" x="3.04" y="3.16" width="11.1" height="7.2"/><path class="cls-2" d="M16,2a2,2,0,0,0-2-2H2A2,2,0,0,0,0,2v8a2,2,0,0,0,2,2h9.59a1,1,0,0,1,.7.29l2.86,2.86a.5.5,0,0,0,.7,0,.49.49,0,0,0,.15-.36ZM7.19,4.77a2,2,0,0,1,.23.4,3.26,3.26,0,0,1-.94,3.7.44.44,0,0,1-.61,0,.4.4,0,0,1,0-.57l0,0a3.2,3.2,0,0,0,.8-1.22,1.69,1.69,0,0,1-.93.26A1.7,1.7,0,0,1,4,5.67,1.71,1.71,0,0,1,5.73,4a1.73,1.73,0,0,1,.76.17h0A1.46,1.46,0,0,1,7,4.49,1.93,1.93,0,0,1,7.19,4.77ZM11,7.07a1.74,1.74,0,0,1-.93.26A1.69,1.69,0,0,1,8.34,5.67a1.73,1.73,0,0,1,2.48-1.5h0a1.46,1.46,0,0,1,.47.32,2,2,0,0,1,.23.28,2.6,2.6,0,0,1,.23.4,3.25,3.25,0,0,1-.95,3.7.44.44,0,0,1-.61,0,.41.41,0,0,1,0-.57l0,0A3.23,3.23,0,0,0,11,7.07Z"/></g></g></svg>