<svg xmlns="http://www.w3.org/2000/svg" viewBox="0 0 400 400"><defs><style>.cls-1{fill:none;}.cls-2{fill:#ff71cb;}.cls-3{fill:#0095c7;}.cls-4{fill:#fff;}</style></defs><g id="Capa_2" data-name="Capa 2"><g id="Capa_3" data-name="Capa 3"><rect class="cls-1" width="400" height="400"/><path class="cls-2" d="M251.41,303.06A51.4,51.4,0,0,1,200,354.36h-.39c-28.13-.2-51-23.61-51-52.18V251.45H96.94a51.41,51.41,0,0,1,.11-102.82H128v19.61A42.13,42.13,0,0,0,170,210.32H230a21.46,21.46,0,0,1,21.43,21.43v70.81C251.4,302.72,251.4,302.88,251.41,303.06Z"/><path class="cls-3" d="M303,128H272V97.65c0-.2,0-.4,0-.61A72.06,72.06,0,0,0,200,25h-.54C160,25.29,128,58,128,97.82V128H97.05a72,72,0,0,0-43.6,129.36l-8.66,30.27,42.44-16.22a72.29,72.29,0,0,0,9.82.69H128v30.09c0,39.87,32.08,72.53,71.51,72.82H200a72.06,72.06,0,0,0,72.05-72c0-.19,0-.38,0-.61V272.1H303A72,72,0,1,0,303,128ZM236.22,339.44A51.05,51.05,0,0,1,200,354.36h-.39c-28.13-.2-51-23.61-51-52.18V251.45H96.94a51.41,51.41,0,0,1,.11-102.82H128v19.61A42.13,42.13,0,0,0,170,210.32H230a21.46,21.46,0,0,1,21.43,21.43v70.81c0,.16,0,.32,0,.5A51,51,0,0,1,236.22,339.44Zm66.84-88H272V231.75A42.12,42.12,0,0,0,230,189.68H170a21.45,21.45,0,0,1-21.43-21.43V97.82c0-28.56,22.89-52,51-52.18H200a51.4,51.4,0,0,1,51.41,51.3c0,.17,0,.33,0,.58v51.12H303a51.41,51.41,0,0,1,.11,102.82Z"/><circle class="cls-4" cx="81.54" cy="219.71" r="12.28"/><circle class="cls-4" cx="112.41" cy="219.71" r="9.83"/><circle class="cls-4" cx="138.36" cy="219.71" r="7.37"/></g></g></svg>