<svg xmlns="http://www.w3.org/2000/svg" viewBox="0 0 128 129.36"><defs><style>.cls-1{fill:#29abe2;}.cls-2{fill:#e6e6e6;}.cls-3{fill:#90caf9;}</style></defs><g id="Capa_2" data-name="Capa 2"><g id="Capa_16" data-name="Capa 16"><path class="cls-1" d="M67.58,21c14.64.17,24.76,4,33.15,12.08a33.19,33.19,0,0,1,9.77,17.12c3.13,14.78-4.19,27.83-16.88,34.15-5.15,2.56-10.51,4.7-15.78,7-1.69.76-3.38,1.53-5.1,2.23-1.12.45-1.49,1-.74,2.14.92,1.38,1.73,2.84,2.63,4.24,1.46,2.29,1.93,4.72.62,7.17A7.11,7.11,0,0,1,68.57,111a9.12,9.12,0,0,1-8.64-5C56.55,100.33,53,94.69,49.47,89c-.71-1.14-.6-1.67.68-2.23,11.35-4.93,22.7-9.85,34-14.93A17,17,0,0,0,94.43,59c1-5.73-.73-10.85-4.54-15.21C85.2,38.43,79.08,36,72.11,35.58A23.77,23.77,0,0,0,61.21,38C53.47,41.47,45.7,44.85,38,48.27a9.69,9.69,0,0,0-2.51,1.36c-3.19,2.7-2.51,7.42,1.38,9.49a7.14,7.14,0,0,0,6.47.36C50.52,56.3,57.77,53.16,65,49.93A9.49,9.49,0,0,1,75.86,52a6.73,6.73,0,0,1-2.18,10.88C66,66.38,58.31,69.81,50.51,73c-6.84,2.78-13.74,2.2-20.38-.86-6.48-3-11-7.86-12.75-14.86-1.59-6.32,0-12,4.38-16.81,2.49-2.77,5.73-4.37,9.06-5.83Q43,29.3,55.18,24C59.06,22.35,64.51,20.92,67.58,21Z"/><polygon class="cls-2" points="4.57 102.86 4.57 4.57 101.84 4.57 101.84 0 0 0 0 102.86 4.57 102.86"/><polygon class="cls-2" points="123.43 26.5 123.43 124.8 26.28 124.8 26.28 129.36 128 129.36 128 26.5 123.43 26.5"/><polygon class="cls-3" points="101.84 9.3 118.81 9.3 118.81 26.5 123.38 26.5 123.38 4.74 101.84 4.74 101.84 9.3"/><polygon class="cls-3" points="26.28 120.06 9.31 120.06 9.31 102.86 4.75 102.86 4.75 124.62 26.28 124.62 26.28 120.06"/><polygon class="cls-3" points="31.08 13.88 14.12 13.88 14.12 31.08 9.55 31.08 9.55 9.32 31.08 9.32 31.08 13.88"/><polygon class="cls-3" points="97.4 115.63 114.36 115.63 114.36 98.44 118.93 98.44 118.93 120.2 97.4 120.2 97.4 115.63"/></g></g></svg>