<svg xmlns="http://www.w3.org/2000/svg" viewBox="0 0 128 129.36"><defs><style>.cls-1{fill:#b3b3b3;}.cls-2{fill:#999;}.cls-3{fill:gray;}.cls-4{fill:#e6e6e6;}.cls-5{fill:#90caf9;}</style></defs><g id="Capa_2" data-name="Capa 2"><g id="Capa_16" data-name="Capa 16"><path class="cls-1" d="M72.74,51.18c4-2.53,6.69-6.35,10.09-9.47,2.51-2.3,4.26-2.51,4.94,1.5,2.66,15.67,5.32,31.35,8.13,47,.39,2.16,0,3.32-1.88,4.43C85.3,99.75,76.66,105,68,110.17a7.83,7.83,0,0,1-8.09.28c-9.07-5.17-18-10.54-27-15.85-.89-.52-1.69-1.14-1.12-2.37l2-2q14.56-14.34,29.09-28.7a6.62,6.62,0,0,0,1-2.23C67.93,57.82,70.1,54.24,72.74,51.18Z"/><path class="cls-2" d="M33.78,90.19l-2,2C32.45,80,35.37,68,37,55.89,38.42,45.55,40.25,35.28,42,25c.22-1.35,0-3.37,1.85-3.53,1.5-.13,1.8,1.71,2.37,2.85,3.27,6.5,6.51,13,10,20,2.29-2.2,2.62-5.07,3.93-7.35.64-1.11.92-2.63,2.55-2.76C64.58,34,65,35.67,65.68,37c2.39,4.73,4.72,9.48,7.06,14.23-2.64,3.06-4.81,6.64-8.92,8.08-2.65-2.86-3.59-6.67-5.53-9.92-.56-1-.72-2.53-2.12-2.45s-1.55,1.61-2,2.61c-3.8,7.9-8,15.61-12.09,23.33C39,78.47,35.75,84,33.78,90.19Z"/><path class="cls-3" d="M33.78,90.19C35.75,84,39,78.47,42,72.83c4.14-7.72,8.29-15.43,12.09-23.33.49-1,.72-2.53,2-2.61s1.56,1.5,2.12,2.45c1.94,3.25,2.88,7.06,5.53,9.92a6.62,6.62,0,0,1-1,2.23Q48.38,75.89,33.78,90.19Z"/><polygon class="cls-4" points="4.57 102.86 4.57 4.57 101.84 4.57 101.84 0 0 0 0 102.86 4.57 102.86"/><polygon class="cls-4" points="123.43 26.5 123.43 124.8 26.28 124.8 26.28 129.36 128 129.36 128 26.5 123.43 26.5"/><polygon class="cls-5" points="101.84 9.3 118.81 9.3 118.81 26.5 123.38 26.5 123.38 4.74 101.84 4.74 101.84 9.3"/><polygon class="cls-5" points="26.28 120.06 9.31 120.06 9.31 102.86 4.75 102.86 4.75 124.62 26.28 124.62 26.28 120.06"/><polygon class="cls-5" points="31.08 13.88 14.12 13.88 14.12 31.08 9.55 31.08 9.55 9.32 31.08 9.32 31.08 13.88"/><polygon class="cls-5" points="97.4 115.63 114.36 115.63 114.36 98.44 118.93 98.44 118.93 120.2 97.4 120.2 97.4 115.63"/></g></g></svg>