<svg xmlns="http://www.w3.org/2000/svg" viewBox="0 0 128 129.36"><defs><style>.cls-1{fill:#fff;}.cls-2{fill:#e95146;}.cls-3{fill:#f06257;}.cls-4{fill:#e6e6e6;}.cls-5{fill:#90caf9;}</style></defs><g id="Capa_2" data-name="Capa 2"><g id="Capa_16" data-name="Capa 16"><rect class="cls-1" x="33.42" y="39.34" width="60.95" height="52.66" transform="translate(65.15 -25.95) rotate(45)"/><path class="cls-2" d="M92.13,87.74Q81.2,98.93,70.18,110c-5.06,5.13-7.07,5.12-12.07.08C55,107,52,103.81,48.87,100.66c2.17-.34,2.63-2.15,3.52-3.76,1.33-2.4,1.5-5.62,4.56-6.88,2.23,4,4.68,5.52,8.41,4.89a6.94,6.94,0,0,0,6-6,6.78,6.78,0,0,0-3.62-7.63,3,3,0,0,1-1.74-3c.06-6.17,0-12.33,0-18.5,0-.88-.3-2,.79-2.47,1.28-.61,1.89.48,2.61,1.18,1.26,1.2,2.42,2.53,3.73,3.67,1.92,1.67,3,3.21,2.28,6.18-1,4.07,2.9,8.06,7.12,8.14,4.37.09,7.65-3.6,7.36-8.28-.25-4-4.3-7.49-8.25-6.44-2.52.68-3.92,0-5.41-1.77a40.87,40.87,0,0,0-3.8-3.76,3.68,3.68,0,0,1-1.2-4.43c.93-2.71-.48-4.95-2.08-7,2.53-1.91,3-5.08,4.51-7.57.71-1.15,1-2.67,2.87-2.38C87.06,44.76,97.19,55,107.25,65.35a5.15,5.15,0,0,1,0,7.22C102.3,77.54,97.07,82.68,92.13,87.74Z"/><path class="cls-3" d="M66.17,24.79c3.53,3.3,6.93,6.75,10.41,10.06-1.86-.29-2.16,1.23-2.87,2.38-1.56,2.49-2,5.66-4.51,7.57-2.32-1.56-4.85-2.31-7.54-1.35A2.19,2.19,0,0,1,59,42.66c-2-2.06-4-4.17-6.13-6.11-1.36-1.24-1.33-2.08,0-3.32,2.77-2.56,5.86-5.66,8.54-8.31A3.47,3.47,0,0,1,66.17,24.79Z"/><path class="cls-3" d="M57,90c-3.06,1.26-3.23,4.48-4.56,6.88-.89,1.61-1.35,3.42-3.52,3.76-9.25-9.17-18.53-18.3-27.71-27.54-2.52-2.54-2.5-5.53,0-8.09,8.57-8.71,17.27-17.29,25.86-26,1.24-1.25,2.09-1,3.15.11,1.35,1.45,2.74,2.86,4.2,4.19,2,1.78,3.23,3.36,2.42,6.53A5.8,5.8,0,0,0,60.41,57c1.62.6,1.76,1.55,1.76,2.89q0,9.26,0,18.5a2.62,2.62,0,0,1-1.46,2.8C57.2,83.06,56.1,86.17,57,90Z"/><polygon class="cls-4" points="4.57 102.86 4.57 4.57 101.84 4.57 101.84 0 0 0 0 102.86 4.57 102.86"/><polygon class="cls-4" points="123.43 26.5 123.43 124.8 26.28 124.8 26.28 129.36 128 129.36 128 26.5 123.43 26.5"/><polygon class="cls-5" points="101.84 9.3 118.81 9.3 118.81 26.5 123.38 26.5 123.38 4.74 101.84 4.74 101.84 9.3"/><polygon class="cls-5" points="26.28 120.06 9.31 120.06 9.31 102.86 4.75 102.86 4.75 124.62 26.28 124.62 26.28 120.06"/><polygon class="cls-5" points="31.08 13.88 14.12 13.88 14.12 31.08 9.55 31.08 9.55 9.32 31.08 9.32 31.08 13.88"/><polygon class="cls-5" points="97.4 115.63 114.36 115.63 114.36 98.44 118.93 98.44 118.93 120.2 97.4 120.2 97.4 115.63"/></g></g></svg>