<svg xmlns="http://www.w3.org/2000/svg" viewBox="0 0 128 129.36"><defs><style>.cls-1{fill:#e2e2e2;}.cls-2{fill:#e1e1e1;}.cls-3{fill:#4785ef;}.cls-4{fill:#4981e7;}.cls-5{fill:#4779db;}.cls-6{fill:#e6e6e6;}.cls-7{fill:#90caf9;}</style></defs><g id="Capa_2" data-name="Capa 2"><g id="Capa_16" data-name="Capa 16"><path class="cls-1" d="M19,62.7a.25.25,0,0,1-.13-.26,54.36,54.36,0,0,1,1.24-7.85c.29-1,.47-2.1.84-3.12s.62-2.08,1-3.09c.54-1.37,1.15-2.71,1.82-4s1.28-2.3,1.91-3.46a17.3,17.3,0,0,1,1.46-2.15c.83-1.09,1.68-2.16,2.54-3.22.31-.38.68-.72,1-1.08a.52.52,0,0,0,.52.07,17.81,17.81,0,0,1,3.42-.37,41,41,0,0,1,5.86.42,49.49,49.49,0,0,1,8.17,2.11,67.46,67.46,0,0,1,8.87,3.94l3.27,1.78.22.12a1.12,1.12,0,0,0,.55.26,1.38,1.38,0,0,0,.4.36c.93.57,1.84,1.15,2.76,1.73,2.36,1.47,4.65,3,6.9,4.69s4.49,3.28,6.7,5c2,1.51,3.94,3.1,5.92,4.64s3.84,3,5.77,4.43a57.7,57.7,0,0,0,8.33,5.59c1.89,1,3.76,2,6,1.57A5.93,5.93,0,0,0,107.76,69a1.18,1.18,0,0,0,.73-1.2c0-.29-.1-.61.13-.87a6.56,6.56,0,0,1-.18,2.57c-.07.81-.21,1.63-.34,2.44a40.28,40.28,0,0,1-.82,4c-.18,0-.23.13-.3.25a10.94,10.94,0,0,1-9.56,5.38,25.45,25.45,0,0,1-8.48-1.69c-.57-.19-1.17-.34-1.72-.57-2-.85-3.9-1.78-5.83-2.71-2.84-1.37-5.59-2.93-8.37-4.44-1.91-1.05-3.79-2.16-5.69-3.24s-3.67-2.07-5.51-3.08-3.91-2.13-5.88-3.16c-1.53-.8-3.08-1.53-4.63-2.27a74.49,74.49,0,0,0-7.57-3.14A47.54,47.54,0,0,0,34,54.82c-3.26-.42-6.47-.52-9.53.93a9.66,9.66,0,0,0-4,3.3A10.12,10.12,0,0,0,19,62.7Z"/><path class="cls-2" d="M100.79,90A4.76,4.76,0,0,1,99.7,91.7a42.18,42.18,0,0,1-5.36,6,5,5,0,0,1-1.41,1.19,3,3,0,0,0-1.06.27,41.35,41.35,0,0,1-12,2.3,56.8,56.8,0,0,1-9.58-.46A51,51,0,0,1,60,98.6c-2.57-.86-5-2-7.65-2.78a8,8,0,0,0-8.48,1.88,8.72,8.72,0,0,0-2.55,5.92,24.27,24.27,0,0,1-3.63-2.27A42.89,42.89,0,0,1,31,95.54a46.6,46.6,0,0,1-4.92-6.28,48.66,48.66,0,0,1-3.63-6.75,9.7,9.7,0,0,1-.75-2c.58-.89.73-2,1.45-2.83a5.34,5.34,0,0,1,2.38-1.83,6.24,6.24,0,0,1,2.14-.35c1,0,1.93.2,2.89.24a37,37,0,0,1,5.85.84,44.8,44.8,0,0,1,4.84,1.29,31.76,31.76,0,0,1,3,1c1.9.82,3.82,1.57,5.72,2.41,1.74.78,3.43,1.68,5.2,2.42a8.33,8.33,0,0,1,1.56.76,19.56,19.56,0,0,0,2.25,1.11c.74.4,1.53.72,2.29,1.09s1.68.77,2.52,1.16c.68.3,1.39.55,2,.88.9.44,1.86.74,2.78,1.14s1.75.59,2.62.91a32.54,32.54,0,0,0,3.45,1,45.35,45.35,0,0,0,4.49,1,29.2,29.2,0,0,0,4,.49c3,0,6,.23,9-.43a40.58,40.58,0,0,0,4.68-1.19A19.63,19.63,0,0,0,100.79,90Z"/><path class="cls-2" d="M105.4,48.08c.31.8.61,1.6.91,2.41a27.52,27.52,0,0,1,1.2,4.26,37.76,37.76,0,0,1,.94,5.87.26.26,0,0,0-.11.28,2.08,2.08,0,0,1-2.41.62,8.2,8.2,0,0,1-2.66-1.88,79.74,79.74,0,0,1-5.58-5.9c-1.75-2-3.55-3.94-5.3-5.94q-2.9-3.31-6-6.48c-1.79-1.86-3.63-3.67-5.55-5.4-1.48-1.33-3-2.64-4.52-3.88C75,31,73.63,30,72.21,29a45.06,45.06,0,0,0-4-2.42,37.34,37.34,0,0,0-3.62-1.71A22.88,22.88,0,0,0,57.27,23a40.93,40.93,0,0,0-9,.42.53.53,0,0,1,.37-.44,36.66,36.66,0,0,1,3.91-1.2c1.34-.27,2.65-.69,4-.84a43.3,43.3,0,0,1,4.37-.5,39.75,39.75,0,0,1,7.15.19c1.65.28,3.31.35,5,.73A48.3,48.3,0,0,1,78,22.71c1.37.47,2.71,1,4,1.56A34.78,34.78,0,0,1,85.56,26a47.79,47.79,0,0,1,5.82,3.87,52.37,52.37,0,0,1,4.25,3.76,33.89,33.89,0,0,1,2.78,3.08,46.37,46.37,0,0,1,4.47,6.57c.72,1.3,1.38,2.63,2,4C105,47.56,104.9,48.05,105.4,48.08Z"/><path class="cls-3" d="M108.62,67c-.23.26-.14.58-.13.87a1.18,1.18,0,0,1-.73,1.2c-.8,0-1.41.62-2.29.53s-1.73.18-2.52-.35c-.07,0-.19,0-.29-.07a14,14,0,0,1-2.55-.89c-1.77-1-3.45-2.25-5.18-3.36A52.32,52.32,0,0,1,90,61.21c-.21-.17-.44-.39-.67-.39a2.81,2.81,0,0,1-1.71-.9c-1.63-1.24-3.22-2.54-4.87-3.78-.81-.6-1.94-1-2.13-2.19,0,0-.08-.09-.13-.12-.46-.32-.86-.72-1.32-1.06s-1.21-.66-1.73-1.09c-1.52-1.24-3.22-2.23-4.83-3.33a23.74,23.74,0,0,0-3.54-2.19.5.5,0,0,1-.28-.37.79.79,0,0,0-.51-.57.75.75,0,0,1-.51-.61c0-.27-.25-.41-.46-.54s-.4-.25-.46-.46a.68.68,0,0,0-.86-.53c-.3,0-.59-.08-.49-.43s-.13-.62-.44-.8-.45-.18-.51-.4a1,1,0,0,0-.89-.8c-.24,0-.34-.31-.2-.36.41-.17.46-.59.74-.84.58-.53,1.07-1.15,1.66-1.66s1.1-1.12,1.67-1.67a14.44,14.44,0,0,0,1.94-1.89c.28-.39.59-.49,1-.22a1.72,1.72,0,0,0,1.41.28,2.69,2.69,0,0,1,2,.66c.5.46,1.13.66,1.6,1.12a.56.56,0,0,0,.45.15c.9-.31,1.52.37,2.16.71a14,14,0,0,1,3.07,2.64c.81.84,1.6,1.7,2.42,2.53a3.56,3.56,0,0,0,.53.41c.13.09.28.13.36,0,.31-.66.58-.23.84,0,1,1,1.88,2,2.84,2.92a16,16,0,0,1,1.94,2.11c1,1.52,2.47,2.7,3.46,4.27.53.84,1.37,1.5,1.87,2.36.81,1.38,2.06,2.37,3,3.66a17.6,17.6,0,0,0,2,2.29c1.3,1.29,2.49,2.7,3.91,3.87a5.24,5.24,0,0,0,4.25,1.26Z"/><path class="cls-4" d="M108.57,65.25A5.24,5.24,0,0,1,104.32,64c-1.42-1.17-2.61-2.58-3.91-3.87a17.6,17.6,0,0,1-2-2.29c-.91-1.29-2.16-2.28-3-3.66-.5-.86-1.34-1.52-1.87-2.36-1-1.57-2.42-2.75-3.46-4.27a16,16,0,0,0-1.94-2.11c-1-1-1.88-2-2.84-2.92-.26-.26-.53-.69-.84,0-.08.16-.23.12-.36,0a3.56,3.56,0,0,1-.53-.41c-.82-.83-1.61-1.69-2.42-2.53a14,14,0,0,0-3.07-2.64c-.64-.34-1.26-1-2.16-.71a.56.56,0,0,1-.45-.15c-.47-.46-1.1-.66-1.6-1.12a2.69,2.69,0,0,0-2-.66A1.72,1.72,0,0,1,70.44,34c-.39-.27-.7-.17-1,.22a14.44,14.44,0,0,1-1.94,1.89c-.57.55-1.07,1.15-1.67,1.67s-1.08,1.13-1.66,1.66c-.28.25-.33.67-.74.84-.14.05,0,.32.2.36a1,1,0,0,1,.89.8c.06.22.32.29.51.4s.57.35.44.8.19.47.49.43a.68.68,0,0,1,.86.53c.06.21.27.34.46.46s.44.27.46.54a.75.75,0,0,0,.51.61.79.79,0,0,1,.51.57.5.5,0,0,0,.28.37,23.74,23.74,0,0,1,3.54,2.19c1.61,1.1,3.31,2.09,4.83,3.33.52.43,1.18.67,1.73,1.09s.86.74,1.32,1.06c0,0,.13.08.13.12.19,1.23,1.32,1.59,2.13,2.19,1.65,1.24,3.24,2.54,4.87,3.78a2.81,2.81,0,0,0,1.71.9c.23,0,.46.22.67.39a52.32,52.32,0,0,0,4.94,3.68c1.73,1.11,3.41,2.31,5.18,3.36a14,14,0,0,0,2.55.89c.1,0,.22,0,.29.07.79.53,1.68.27,2.52.35S107,69,107.76,69a5.93,5.93,0,0,1-3.35,1.72c-2.28.43-4.15-.58-6-1.57A57.7,57.7,0,0,1,90,63.59q-2.9-2.21-5.77-4.43c-2-1.54-3.92-3.13-5.92-4.64-2.21-1.69-4.45-3.33-6.7-5s-4.54-3.22-6.9-4.69c-.92-.58-1.83-1.16-2.76-1.73a1.38,1.38,0,0,1-.4-.36c.18-.09.46,0,.54-.19s-.15-.35-.28-.49c-.58-.62-1.15-1.25-1.74-1.86-1.46-1.48-3-2.91-4.46-4.36-1.1-1.08-2.18-2.18-3.28-3.26-1.49-1.49-3-3-4.44-4.5.07-.2.27-.22.43-.29,1.44-.59,3-.62,4.47-1.24a.5.5,0,0,1,.24,0,10.33,10.33,0,0,0,2.83-.13,21.09,21.09,0,0,1,3.63-.3c.46,0,.91.21,1.37.22a17.78,17.78,0,0,1,5.86,1.05,15,15,0,0,0,2.35.76,5.43,5.43,0,0,1,1.62.54,32.39,32.39,0,0,1,3.81,2.44c1.77,1.34,3.5,2.73,5.18,4.19,1,.91,2,1.9,3,2.85,1.57,1.48,3,3,4.57,4.56,1.37,1.37,2.65,2.83,4,4.27.77.85,1.53,1.72,2.31,2.57,1.85,2,3.63,4.12,5.46,6.16,1,1.11,2,2.21,3,3.27a20.79,20.79,0,0,0,3,2.62,2.73,2.73,0,0,0,2.49.41c.3-.1.52-.41.88-.36.11.27-.08.59.15.84a11.19,11.19,0,0,0,0,1.83,1.08,1.08,0,0,0,0,.75Z"/><path class="cls-5" d="M19,62.7a10.12,10.12,0,0,1,1.52-3.65,9.66,9.66,0,0,1,4-3.3c3.06-1.45,6.27-1.35,9.53-.93a47.54,47.54,0,0,1,9.77,2.44,74.49,74.49,0,0,1,7.57,3.14c1.55.74,3.1,1.47,4.63,2.27,2,1,3.93,2.09,5.88,3.16s3.67,2,5.51,3.08S71.11,71.1,73,72.15c2.78,1.51,5.53,3.07,8.37,4.44,1.93.93,3.87,1.86,5.83,2.71.55.23,1.15.38,1.72.57a25.45,25.45,0,0,0,8.48,1.69A10.94,10.94,0,0,0,107,76.18c.07-.12.12-.26.3-.25a50.14,50.14,0,0,1-1.91,5.74,46,46,0,0,1-3.73,7.21,3.41,3.41,0,0,1-.36.41H101c.74-1.22,1.49-2.44,2.21-3.67.32-.56.57-1.16.85-1.74.09-.19.18-.41.06-.58s-.4,0-.55,0c-.62.23-1.28.37-1.92.55a12.86,12.86,0,0,1-5.45.19,31.49,31.49,0,0,1-4.74-1.24A39.49,39.49,0,0,1,86.8,81c-.81-.38-1.64-.85-2.43-1.29-1.64-.92-3.36-1.72-5-2.63-.3-.17-.56-.49-1-.39,0-.35-.3-.51-.57-.65-.55-.3-1.11-.59-1.66-.9-.28-.16-.67-.27-.75-.58-.18-.75-.78-1-1.35-1.37-1.14-.65-2.29-1.27-3.43-1.92-.88-.49-1.72-1-2.62-1.5-1.14-.57-2.22-1.22-3.34-1.8-2.21-1.15-4.24-2.62-6.63-3.44-1.23-.42-2.43-1-3.68-1.3S52.16,62.3,51,62c-1.7-.47-3.41-.93-5.15-1.29a9.24,9.24,0,0,1-2-.45,14.82,14.82,0,0,0-3.87-.85,23.59,23.59,0,0,0-2.65-.18c-1.27-.08-2.59-.34-3.81.3a3.06,3.06,0,0,1-1.08.36,10.85,10.85,0,0,0-3.59,1c-.56.27-1.24.5-1.45,1.19a2,2,0,0,1-1.27,1.22,2.15,2.15,0,0,0-.82.47,13.51,13.51,0,0,1-1.46,1.16c-.5.38-1,.71-1.57,1.06.37.3.62,0,1.05-.09l-.82,1a.55.55,0,0,1-.4-.24A37.18,37.18,0,0,0,19,63.54,2.63,2.63,0,0,1,19,62.7Z"/><path class="cls-5" d="M108.46,61.72c-.36,0-.58.26-.88.36a2.73,2.73,0,0,1-2.49-.41,20.79,20.79,0,0,1-3-2.62c-1-1.06-2-2.16-3-3.27-1.83-2-3.61-4.13-5.46-6.16-.78-.85-1.54-1.72-2.31-2.57-1.3-1.44-2.58-2.9-4-4.27-1.52-1.52-3-3.08-4.57-4.56-1-.95-2-1.94-3-2.85-1.68-1.46-3.41-2.85-5.18-4.19a32.39,32.39,0,0,0-3.81-2.44,5.43,5.43,0,0,0-1.62-.54,15,15,0,0,1-2.35-.76,17.78,17.78,0,0,0-5.86-1.05c-.46,0-.91-.19-1.37-.22a21.09,21.09,0,0,0-3.63.3,10.33,10.33,0,0,1-2.83.13.5.5,0,0,0-.24,0c-1.43.62-3,.65-4.47,1.24-.16.07-.36.09-.43.29l-1.34-1.22c0-.09-.05-.22-.12-.27A19.39,19.39,0,0,1,44.73,25c-.18-.17-.37-.33-.34-.61l.34-.05A2.43,2.43,0,0,0,46,24a18.5,18.5,0,0,1,2.32-.52,40.93,40.93,0,0,1,9-.42,22.88,22.88,0,0,1,7.33,1.82,37.34,37.34,0,0,1,3.62,1.71,45.06,45.06,0,0,1,4,2.42C73.63,30,75,31,76.36,32c1.56,1.24,3,2.55,4.52,3.88,1.92,1.73,3.76,3.54,5.55,5.4q3.06,3.16,6,6.48c1.75,2,3.55,4,5.3,5.94a79.74,79.74,0,0,0,5.58,5.9,8.2,8.2,0,0,0,2.66,1.88,2.08,2.08,0,0,0,2.41-.62l.09,0,.07.23Z"/><path class="cls-5" d="M41.33,103.62a8.72,8.72,0,0,1,2.55-5.92,8,8,0,0,1,8.48-1.88c2.6.8,5.08,1.92,7.65,2.78A51,51,0,0,0,70.29,101a56.8,56.8,0,0,0,9.58.46,41.35,41.35,0,0,0,12-2.3,3,3,0,0,1,1.06-.27,32.22,32.22,0,0,1-3.58,2.8,43.51,43.51,0,0,1-6.79,3.89,41.16,41.16,0,0,1-5.78,2.2,44.7,44.7,0,0,1-14.35,1.89,43.94,43.94,0,0,1-13.29-2.42A40,40,0,0,1,41.33,103.62Zm4,1.58a2.24,2.24,0,0,1,.34.11,36.7,36.7,0,0,0,7,2.46,28.14,28.14,0,0,0,4.57.87,46.19,46.19,0,0,0,5.11.46,43.31,43.31,0,0,0,6.24-.25c1.35-.22,2.72-.29,4.06-.6s2.71-.63,4-1a34.38,34.38,0,0,0,4.19-1.53,37.33,37.33,0,0,0,8.93-5,1.22,1.22,0,0,0-.31-.06c-1.8.3-3.56.84-5.4,1-1.55.14-3.11.36-4.67.43a69.67,69.67,0,0,1-7.5-.31,58.06,58.06,0,0,1-5.91-.89,32.16,32.16,0,0,1-4.43-1.19c-1.59-.52-3.18-1-4.75-1.63-1.07-.4-2.14-.84-3.23-1.13a8,8,0,0,0-4.28-.12,8.74,8.74,0,0,0-5.09,3.75c-.55.84-.78,1.82-1.3,2.66a.59.59,0,0,0,.2.88A13,13,0,0,0,45.37,105.2Z"/><path class="cls-3" d="M19,63.54a37.18,37.18,0,0,1,3.09,3.06.55.55,0,0,0,.4.24,41.23,41.23,0,0,0,3.32,3.42c1.26,1.27,2.57,2.5,3.79,3.8.28.31.75.52.81,1-1.11,0-2.22-.08-3.33-.1a3.92,3.92,0,0,0-2.34.67,7.06,7.06,0,0,0-2.83,4c-.06.2-.07.46-.4.4a49.31,49.31,0,0,1-2.08-8.29A38.58,38.58,0,0,1,19,63.54Z"/><path class="cls-1" d="M21.49,80c.33.06.34-.2.4-.4a7.06,7.06,0,0,1,2.83-4A3.92,3.92,0,0,1,27.06,75c1.11,0,2.22.07,3.33.1a44,44,0,0,1,8.76,1.56A69,69,0,0,1,48,79.82c2.56,1.11,5.07,2.32,7.59,3.51.54.28,1.07.57,1.62.82C59.11,85,61,86,62.86,86.83s3.64,1.63,5.51,2.35a64.68,64.68,0,0,0,6.87,2.21,42.91,42.91,0,0,0,9.82,1.38,37.77,37.77,0,0,0,5.52-.23,34.7,34.7,0,0,0,5.15-1.1c1.75-.49,3.37-1.28,5.06-1.92V90h0a19.63,19.63,0,0,1-3.91,1.64,40.58,40.58,0,0,1-4.68,1.19c-3,.66-6,.41-9,.43a29.2,29.2,0,0,1-4-.49,45.35,45.35,0,0,1-4.49-1,32.54,32.54,0,0,1-3.45-1c-.87-.32-1.77-.55-2.62-.91s-1.88-.7-2.78-1.14c-.66-.33-1.37-.58-2-.88-.84-.39-1.68-.76-2.52-1.16s-1.55-.69-2.29-1.09a19.56,19.56,0,0,1-2.25-1.11,8.33,8.33,0,0,0-1.56-.76c-1.77-.74-3.46-1.64-5.2-2.42-1.9-.84-3.82-1.59-5.72-2.41a31.76,31.76,0,0,0-3-1,44.8,44.8,0,0,0-4.84-1.29,37,37,0,0,0-5.85-.84c-1,0-1.92-.21-2.89-.24a6.24,6.24,0,0,0-2.14.35,5.34,5.34,0,0,0-2.38,1.83c-.72.84-.87,1.94-1.45,2.83C21.45,80.43,21.51,80.2,21.49,80Z"/><path class="cls-4" d="M44.39,24.36c0,.28.16.44.34.61a19.39,19.39,0,0,0,1.74,1.65c.07.05.08.18.12.27a22.1,22.1,0,0,0-4.11,1.39,24.52,24.52,0,0,0-4.7,2.6A13.8,13.8,0,0,0,35.16,33a1.63,1.63,0,0,0-.51,1.13,17.81,17.81,0,0,0-3.42.37.52.52,0,0,1-.52-.07,43.84,43.84,0,0,1,5.77-5.29,47.41,47.41,0,0,1,7.18-4.53A1.61,1.61,0,0,1,44.39,24.36Z"/><path class="cls-1" d="M48.29,23.45A18.5,18.5,0,0,0,46,24l-.7.06c0-.17,0-.25.21-.32,1-.4,2-.86,3-1.23a42,42,0,0,1,5-1.47,38.16,38.16,0,0,1,6.57-1c1.06-.05,2.14-.13,3.2-.14a19.85,19.85,0,0,1,3.44.14,19.78,19.78,0,0,0,2.18.13c1.44.08,2.81.48,4.22.69a41.35,41.35,0,0,1,4.32,1.09,35.41,35.41,0,0,1,3.67,1.39,32.36,32.36,0,0,1,4,1.92c1,.56,2,1.09,2.9,1.72l2,1.4a36.23,36.23,0,0,1,3.16,2.51c1,.89,2,1.82,2.93,2.8a44.43,44.43,0,0,1,4.64,5.7,40.59,40.59,0,0,1,3.82,6.76,4.67,4.67,0,0,1,.76,1.94c-.5,0-.41-.52-.52-.78-.62-1.36-1.28-2.69-2-4a46.37,46.37,0,0,0-4.47-6.57,33.89,33.89,0,0,0-2.78-3.08,52.37,52.37,0,0,0-4.25-3.76A47.79,47.79,0,0,0,85.56,26,34.78,34.78,0,0,0,82,24.27c-1.33-.56-2.67-1.09-4-1.56a48.3,48.3,0,0,0-4.89-1.32c-1.64-.38-3.3-.45-5-.73A39.75,39.75,0,0,0,61,20.47a43.3,43.3,0,0,0-4.37.5c-1.37.15-2.68.57-4,.84A36.66,36.66,0,0,0,48.66,23,.53.53,0,0,0,48.29,23.45Z"/><path class="cls-1" d="M108.46,61.72l0-.61c.36.46.2,1,.11,1.45C108.38,62.31,108.57,62,108.46,61.72Z"/><path class="cls-4" d="M45.27,24,46,24a2.43,2.43,0,0,1-1.24.34C44.85,24.11,45.07,24.08,45.27,24Z"/><path class="cls-2" d="M100.79,90v-.46l.24-.24h.25C101.3,89.65,101,89.75,100.79,90Z"/><path class="cls-1" d="M108.65,65.14a1.08,1.08,0,0,1,0-.75A.46.46,0,0,1,108.65,65.14Z"/><path class="cls-1" d="M108.43,60.88l-.09,0a.26.26,0,0,1,.11-.28C108.58,60.72,108.57,60.8,108.43,60.88Z"/><path class="cls-3" d="M34.65,34.14A1.63,1.63,0,0,1,35.16,33a13.8,13.8,0,0,1,2.62-2.13,24.52,24.52,0,0,1,4.7-2.6,22.1,22.1,0,0,1,4.11-1.39l1.34,1.22c1.48,1.5,3,3,4.44,4.5,1.1,1.08,2.18,2.18,3.28,3.26,1.49,1.45,3,2.88,4.46,4.36.59.61,1.16,1.24,1.74,1.86.13.14.37.26.28.49s-.36.1-.54.19a1.12,1.12,0,0,1-.55-.26c.07-.06.19-.13.06-.23s-.21,0-.28.11l-3.27-1.78a67.46,67.46,0,0,0-8.87-3.94,49.49,49.49,0,0,0-8.17-2.11A41,41,0,0,0,34.65,34.14Z"/><path class="cls-4" d="M60.82,42.39c.07-.11.16-.19.28-.11s0,.17-.06.23Z"/><path class="cls-3" d="M101,89.28l-.24.24c-1.69.64-3.31,1.43-5.06,1.92a34.7,34.7,0,0,1-5.15,1.1,37.77,37.77,0,0,1-5.52.23,42.91,42.91,0,0,1-9.82-1.38,64.68,64.68,0,0,1-6.87-2.21c-1.87-.72-3.69-1.53-5.51-2.35S59.11,85,57.2,84.15c-.55-.25-1.08-.54-1.62-.82.17-.59.48-.19.67,0a1.74,1.74,0,0,0,1.11.36,20.82,20.82,0,0,0-2.29-1.2,11.07,11.07,0,0,1-1.6-.71,12.36,12.36,0,0,0-1.63-1.07s-.06-.06-.08-.09a1.41,1.41,0,0,0-1.07-.71c-.17,0-.37-.07-.41-.23-.12-.49-.54-.52-.9-.59-.78-.15-1.21-.89-2-1.11,0,0-.1-.14-.1-.21,0-.52-.36-.59-.71-.64s-.55-.13-.52-.5-.24-.52-.55-.6a4.4,4.4,0,0,1-.65-.15c-.29-.13-.38-.31,0-.52.14-.09.38-.12.34-.36s-.2-.31-.43-.34-.34-.09-.35-.29.15-.27.3-.34a2.78,2.78,0,0,1,.5-.21,8.08,8.08,0,0,0,3.36-1.71c1.13-.92,2.34-1.73,3.43-2.69a10.51,10.51,0,0,1,3.18-1.78.55.55,0,0,1,.47,0,2.22,2.22,0,0,0,2,.32.72.72,0,0,1,.72.22.47.47,0,0,0,.45.13,2.75,2.75,0,0,1,1.89.47,1,1,0,0,0,.64.15.81.81,0,0,1,.7.29,8.21,8.21,0,0,0,2.53,1.17h.18a1.68,1.68,0,0,1,1,.27,1.63,1.63,0,0,0,.73.29,3.1,3.1,0,0,1,1.58.69c.34.21.65.48,1,.68,1.19.67,2.4,1.32,3.61,2a7,7,0,0,0,2,1,6.19,6.19,0,0,1,2.25,1,2.31,2.31,0,0,0,1.53.44c.42-.1.68.22,1,.39,1.66.91,3.38,1.71,5,2.63.79.44,1.62.91,2.43,1.29a39.49,39.49,0,0,0,4.69,1.8,31.49,31.49,0,0,0,4.74,1.24,12.86,12.86,0,0,0,5.45-.19c.64-.18,1.3-.32,1.92-.55.15-.06.4-.24.55,0s0,.39-.06.58c-.28.58-.53,1.18-.85,1.74C102.52,86.84,101.77,88.06,101,89.28ZM59.59,84.66s-.05.08,0,.1.06,0,.09,0,0-.08,0-.1S59.62,84.68,59.59,84.66Z"/><path class="cls-4" d="M78.37,76.7a2.31,2.31,0,0,1-1.53-.44,6.19,6.19,0,0,0-2.25-1,7,7,0,0,1-2-1c-1.21-.66-2.42-1.31-3.61-2-.36-.2-.67-.47-1-.68a3.1,3.1,0,0,0-1.58-.69,1.63,1.63,0,0,1-.73-.29,1.68,1.68,0,0,0-1-.27h-.18A8.21,8.21,0,0,1,62,69.2a.81.81,0,0,0-.7-.29,1,1,0,0,1-.64-.15,2.75,2.75,0,0,0-1.89-.47.47.47,0,0,1-.45-.13.72.72,0,0,0-.72-.22,2.22,2.22,0,0,1-2-.32.55.55,0,0,0-.47,0A10.51,10.51,0,0,0,52,69.37c-1.09,1-2.3,1.77-3.43,2.69a8.08,8.08,0,0,1-3.36,1.71,2.78,2.78,0,0,0-.5.21c-.15.07-.32.15-.3.34s.2.26.35.29.4.11.43.34-.2.27-.34.36c-.34.21-.25.39,0,.52a4.4,4.4,0,0,0,.65.15c.31.08.58.2.55.6s.19.46.52.5.75.12.71.64c0,.07.05.2.1.21.74.22,1.17,1,2,1.11.36.07.78.1.9.59,0,.16.24.2.41.23a1.41,1.41,0,0,1,1.07.71s0,.08.08.09a12.36,12.36,0,0,1,1.63,1.07,11.07,11.07,0,0,0,1.6.71,20.82,20.82,0,0,1,2.29,1.2,1.74,1.74,0,0,1-1.11-.36c-.19-.14-.5-.54-.67,0-2.52-1.19-5-2.4-7.59-3.51a69,69,0,0,0-8.84-3.18,44,44,0,0,0-8.76-1.56c-.06-.5-.53-.71-.81-1-1.22-1.3-2.53-2.53-3.79-3.8a41.23,41.23,0,0,1-3.32-3.42l.82-1c-.43.06-.68.39-1.05.09.54-.35,1.07-.68,1.57-1.06a13.51,13.51,0,0,0,1.46-1.16,2.15,2.15,0,0,1,.82-.47,2,2,0,0,0,1.27-1.22c.21-.69.89-.92,1.45-1.19a10.85,10.85,0,0,1,3.59-1,3.06,3.06,0,0,0,1.08-.36c1.22-.64,2.54-.38,3.81-.3a23.59,23.59,0,0,1,2.65.18,14.82,14.82,0,0,1,3.87.85,9.24,9.24,0,0,0,2,.45c1.74.36,3.45.82,5.15,1.29,1.15.32,2.18.93,3.33,1.26s2.45.88,3.68,1.3c2.39.82,4.42,2.29,6.63,3.44,1.12.58,2.2,1.23,3.34,1.8.9.45,1.74,1,2.62,1.5,1.14.65,2.29,1.27,3.43,1.92.57.32,1.17.62,1.35,1.37.08.31.47.42.75.58.55.31,1.11.6,1.66.9C78.07,76.19,78.33,76.35,78.37,76.7Z"/><path class="cls-3" d="M80.93,105.69a34.38,34.38,0,0,1-4.19,1.53c-1.33.4-2.68.71-4,1s-2.71.38-4.06.6a43.31,43.31,0,0,1-6.24.25,46.19,46.19,0,0,1-5.11-.46,28.14,28.14,0,0,1-4.57-.87,36.7,36.7,0,0,1-7-2.46,2.24,2.24,0,0,0-.34-.11,8.66,8.66,0,0,1,1.11-3.43,6,6,0,0,1,3.44-2.49,6.58,6.58,0,0,1,4.66.32c2.05.8,4.14,1.48,6.17,2.32,1.14.47,2.36.7,3.49,1.16a24.42,24.42,0,0,0,5.56,1.36c1.81.29,3.63.51,5.45.68s3.57.62,5.39.23C80.93,105.29,80.92,105.5,80.93,105.69Z"/><path class="cls-4" d="M80.93,105.69c0-.19,0-.4-.29-.34-1.82.39-3.59-.06-5.39-.23s-3.64-.39-5.45-.68a24.42,24.42,0,0,1-5.56-1.36c-1.13-.46-2.35-.69-3.49-1.16-2-.84-4.12-1.52-6.17-2.32a6.58,6.58,0,0,0-4.66-.32,6,6,0,0,0-3.44,2.49,8.66,8.66,0,0,0-1.11,3.43A13,13,0,0,1,43.19,104a.59.59,0,0,1-.2-.88c.52-.84.75-1.82,1.3-2.66a8.74,8.74,0,0,1,5.09-3.75,8,8,0,0,1,4.28.12c1.09.29,2.16.73,3.23,1.13,1.57.59,3.16,1.11,4.75,1.63a32.16,32.16,0,0,0,4.43,1.19,58.06,58.06,0,0,0,5.91.89,69.67,69.67,0,0,0,7.5.31c1.56-.07,3.12-.29,4.67-.43,1.84-.17,3.6-.71,5.4-1a1.22,1.22,0,0,1,.31.06A37.33,37.33,0,0,1,80.93,105.69Z"/><path class="cls-4" d="M59.59,84.66s.08,0,.09,0,0,.06,0,.1-.08,0-.09,0S59.57,84.7,59.59,84.66Z"/><polygon class="cls-6" points="4.57 102.86 4.57 4.57 101.84 4.57 101.84 0 0 0 0 102.86 4.57 102.86"/><polygon class="cls-6" points="123.43 26.5 123.43 124.8 26.28 124.8 26.28 129.36 128 129.36 128 26.5 123.43 26.5"/><polygon class="cls-7" points="101.84 9.3 118.81 9.3 118.81 26.5 123.38 26.5 123.38 4.74 101.84 4.74 101.84 9.3"/><polygon class="cls-7" points="26.28 120.06 9.31 120.06 9.31 102.86 4.75 102.86 4.75 124.62 26.28 124.62 26.28 120.06"/><polygon class="cls-7" points="31.08 13.88 14.12 13.88 14.12 31.08 9.55 31.08 9.55 9.32 31.08 9.32 31.08 13.88"/><polygon class="cls-7" points="97.4 115.63 114.36 115.63 114.36 98.44 118.93 98.44 118.93 120.2 97.4 120.2 97.4 115.63"/></g></g></svg>