<svg xmlns="http://www.w3.org/2000/svg" viewBox="0 0 128 129.36"><defs><style>.cls-1{fill:#34a853;}.cls-2{fill:#fbbc05;}.cls-3{fill:#4285f4;}.cls-4{fill:#ea4335;}.cls-5{fill:#1b73e8;}.cls-6{fill:#333;}.cls-7{fill:#e6e6e6;}.cls-8{fill:#90caf9;}</style></defs><g id="Capa_2" data-name="Capa 2"><g id="Capa_16" data-name="Capa 16"><path class="cls-1" d="M80.07,34.92a8,8,0,0,1,.64,1.32,19.53,19.53,0,0,1,1.36,5.33,22.16,22.16,0,0,1-1.74,11.28,26.07,26.07,0,0,1-2.52,4.37c-1.28,1.87-2.69,3.64-4.12,5.41C72,64.7,70.38,66.79,68.91,69a25.58,25.58,0,0,0-2.7,5c-.41,1.11-.79,2.23-1.15,3.35a5.21,5.21,0,0,1-.45,1.09,1.7,1.7,0,0,1-2,.85,1.32,1.32,0,0,1-.84-.6,4.61,4.61,0,0,1-.55-1.19c-.36-1.07-.7-2.16-1.1-3.22a26.12,26.12,0,0,0-2.64-5c-.88-1.33-1.79-2.65-2.78-3.9a1,1,0,0,1-.14-.21l5.84-6.9,7.53-8.93c.07-.08.16-.14.15-.27a11.61,11.61,0,0,0,1.12-1.3c.1,0,.14-.09.2-.15l2.73-3.25,3.55-4.23c1-1.14,1.89-2.27,2.85-3.4Z"/><path class="cls-2" d="M68.07,49.08c0,.13-.08.19-.15.27l-7.53,8.93-5.84,6.9-1.2-1.53c-1.28-1.63-2.61-3.22-3.85-4.89a32.45,32.45,0,0,1-3.32-5.32,3.08,3.08,0,0,1-.29-.67,2,2,0,0,0,.36-.4l1.92-2.26,1.9-2.27c.64-.75,1.29-1.5,1.92-2.26L54.21,43c.66-.79,1.32-1.58,2-2.36.17-.2.29-.47.56-.59,0,.13-.08.22-.13.32A7.29,7.29,0,0,0,66.75,50,12.25,12.25,0,0,0,68.07,49.08Z"/><path class="cls-3" d="M80.07,34.92l-1.55,1.83c-1,1.13-1.9,2.26-2.85,3.4l-3.55,4.23-2.73,3.25c-.06.06-.1.14-.2.15l.17-.31a7.29,7.29,0,0,0-5.49-11,7.22,7.22,0,0,0-5.22,1.45,1.5,1.5,0,0,1-.36.26c0-.13.06-.22.14-.3l.54-.63,1.2-1.44,1.15-1.35c.5-.6,1-1.2,1.49-1.79s.83-1,1.24-1.45.78-.95,1.18-1.42,1-1.17,1.5-1.76,1.13-1.32,1.67-2c.14-.17.37-.31.37-.57a9.56,9.56,0,0,1,1.56.53,18.89,18.89,0,0,1,9.74,8.9Z"/><path class="cls-4" d="M56.77,40c-.27.12-.39.39-.56.59-.68.78-1.34,1.57-2,2.36L52,45.58c-.63.76-1.28,1.51-1.92,2.26l-1.9,2.27-1.92,2.26a2,2,0,0,1-.36.4,6.87,6.87,0,0,1-.58-1.37,23.17,23.17,0,0,1-1.17-5.25,20.43,20.43,0,0,1,0-4.21,18.77,18.77,0,0,1,4.24-10.28l.14-.18.18.13,4.46,3.77L57.48,39c-.13.24-.34.42-.49.65l0,.06h0a.14.14,0,0,0-.08.13h0c-.09,0-.13.06-.12.15Z"/><path class="cls-5" d="M57.48,39l-4.35-3.65-4.46-3.77-.18-.13a.36.36,0,0,1,.12-.18,19.05,19.05,0,0,1,9.91-6.13,19.76,19.76,0,0,1,10.07.25l.18.07c0,.26-.23.4-.37.57-.54.68-1.11,1.33-1.67,2s-1,1.17-1.5,1.76-.78.95-1.18,1.42-.83,1-1.24,1.45-1,1.19-1.49,1.79l-1.15,1.35L59,37.27l-.54.63c-.08.08-.17.17-.14.3a.76.76,0,0,1-.21.19l-.06,0h0l0,0Z"/><path class="cls-6" d="M28.34,90.9,27.24,92c-.09.09-.15.07-.23,0l-.33-.26a4.59,4.59,0,0,0-7.19,2.73,4.63,4.63,0,0,0,7.72,4.42,3.56,3.56,0,0,0,.92-2c0-.2,0-.21-.21-.21H24.18c-.17,0-.22-.06-.22-.22q0-.67,0-1.35c0-.13.05-.19.19-.18h5.49c.24,0,.24,0,.27.22a7,7,0,0,1-.1,2.32A5.6,5.6,0,0,1,25,101.86a6.61,6.61,0,0,1-6.82-3.37,6.46,6.46,0,0,1,8.61-8.73,5.6,5.6,0,0,1,1.34.92A.48.48,0,0,1,28.34,90.9Z"/><path class="cls-6" d="M55.41,94.59v-.52c0-.11,0-.15.15-.15H57c.12,0,.17.06.16.18v7.25a5.71,5.71,0,0,1-.26,1.79,3.5,3.5,0,0,1-3.09,2.48,4,4,0,0,1-2.9-.71,4.18,4.18,0,0,1-1.23-1.45.44.44,0,0,1-.07-.26l1.4-.59c.12,0,.17,0,.21.1a2.63,2.63,0,0,0,.31.48,2.28,2.28,0,0,0,2.89.55,1.89,1.89,0,0,0,.89-1.16,4.58,4.58,0,0,0,.12-1.52.08.08,0,0,0-.11,0,3,3,0,0,1-3.13.72,4.16,4.16,0,0,1,.21-8,3,3,0,0,1,2.9.73Zm.13,3.23a2.8,2.8,0,0,0-.46-1.57,2.11,2.11,0,0,0-3.08-.5,2.65,2.65,0,0,0-.1,4,2.14,2.14,0,0,0,3.25-.53A2.77,2.77,0,0,0,55.54,97.82Z"/><path class="cls-6" d="M82.14,93.42c-.06.1-.12.19-.17.29-1,1.75-2,3.49-3,5.25a.5.5,0,0,1-.58.31h-.16a.36.36,0,0,1-.4-.22l-3-5.36-.18-.28c-.1.08-.06.18,0,.26.08,2.5,0,5,0,7.51,0,.45,0,.39-.39.39H73.4c-.12,0-.18,0-.17-.17V91.06c0-.28,0-.28.28-.28s.58,0,.86,0a.36.36,0,0,1,.38.21q1.19,2.1,2.38,4.19l1.09,1.92.15.24a.4.4,0,0,0,.18-.23l3.45-6a.46.46,0,0,1,.49-.29,6.15,6.15,0,0,0,.86,0c.18,0,.23.06.21.22v10.19c0,.45,0,.38-.37.38h-.83c-.14,0-.2,0-.19-.18a1.77,1.77,0,0,0,0-.23c0-2.53,0-5.06,0-7.6,0,0,0-.08,0-.12Z"/><path class="cls-6" d="M67.45,99.16l1.3.86c.08,0,.1.11,0,.18s-.24.31-.37.45a4,4,0,0,1-4.22,1.1,3.77,3.77,0,0,1-2.75-3.17A4.21,4.21,0,0,1,62.37,95a3.68,3.68,0,0,1,5.69.1,5.44,5.44,0,0,1,.76,1.4c.12.31.12.31-.17.43l-2.86,1.18-2.09.87-.27.12a2.08,2.08,0,0,0,1.45,1.18A2.37,2.37,0,0,0,67.45,99.16Zm-4.31-1.52.17,0,3.27-1.35c.25-.11.26-.14.08-.36a1.7,1.7,0,0,0-1.54-.61,2.22,2.22,0,0,0-1.91,1.64A1.62,1.62,0,0,0,63.14,97.64Z"/><path class="cls-6" d="M40.07,97.81a4.08,4.08,0,1,1,7.18,2.69,4.08,4.08,0,0,1-7-1.65c-.05-.22-.08-.44-.11-.66S40.08,97.93,40.07,97.81Zm1.79-.07a2.72,2.72,0,0,0,.39,1.47,2.2,2.2,0,0,0,3.68.18,2.72,2.72,0,0,0-.1-3.31,2.2,2.2,0,0,0-3.23-.14A2.57,2.57,0,0,0,41.86,97.74Z"/><path class="cls-6" d="M35.16,101.93a4.13,4.13,0,1,1,3.93-4.38A4,4,0,0,1,35.16,101.93Zm.09-6.63a2.32,2.32,0,0,0-1.8.66,2.73,2.73,0,0,0-.23,3.41,2.21,2.21,0,0,0,3.6,0,2.73,2.73,0,0,0,0-3.19A2.06,2.06,0,0,0,35.25,95.3Z"/><path class="cls-6" d="M94.47,100.58a.85.85,0,0,0,0,.16c.1,1.27,0,2.53,0,3.8,0,.28,0,.28-.27.29s-.62,0-.93,0c-.14,0-.19-.06-.18-.19V94.55a.56.56,0,0,1,0-.13c0-.23,0-.24.25-.24h.83c.24,0,.24,0,.24.26v.71c.1,0,.12-.05.15-.09A3,3,0,0,1,97.26,94a3.61,3.61,0,0,1,3.11,2.72,4.39,4.39,0,0,1-.1,2.73,3.49,3.49,0,0,1-2.46,2.31,3,3,0,0,1-3.2-1A.19.19,0,0,0,94.47,100.58Zm2.35-5.39a2.25,2.25,0,0,0-2.16,1.54,3.26,3.26,0,0,0,0,2.22,2.23,2.23,0,0,0,1.49,1.48,2.31,2.31,0,0,0,2.9-1.67,3.54,3.54,0,0,0,0-1.8A2.37,2.37,0,0,0,96.82,95.19Z"/><path class="cls-6" d="M90.31,100.63c-.14,0-.18.13-.24.2a2.93,2.93,0,0,1-2.49,1A2.87,2.87,0,0,1,85.7,101,2.38,2.38,0,0,1,86,97.5a3.58,3.58,0,0,1,2-.7,4.3,4.3,0,0,1,2.21.35.13.13,0,0,0,.12,0,1.62,1.62,0,0,0-1-1.72,2.2,2.2,0,0,0-1.89,0,1.44,1.44,0,0,0-.73.69c-.06.14-.13.15-.27.08l-.87-.38c-.21-.09-.21-.1-.1-.3a3,3,0,0,1,1.84-1.44,4,4,0,0,1,2.14,0,2.87,2.87,0,0,1,2.22,2.82c0,1.48,0,3,0,4.44,0,.16,0,.23-.21.23s-.61,0-.92,0-.2-.07-.2-.22S90.31,100.89,90.31,100.63Zm-1.8-2.75c-.17,0-.4,0-.63.07a1.7,1.7,0,0,0-1.19.73,1.1,1.1,0,0,0,.35,1.58,1.83,1.83,0,0,0,.5.21,2.31,2.31,0,0,0,2.73-1.74c.06-.33,0-.37-.25-.53A3.67,3.67,0,0,0,88.51,97.88Z"/><path class="cls-6" d="M104.63,101.82a3.38,3.38,0,0,1-3.19-1.89c-.12-.22-.11-.23.11-.32l.86-.35c.12-.06.2,0,.24.09a.64.64,0,0,0,.08.14,2.08,2.08,0,0,0,2.51,1,1.28,1.28,0,0,0,.57-.34.86.86,0,0,0-.08-1.25,1.62,1.62,0,0,0-.69-.32l-1.36-.33a3.86,3.86,0,0,1-1.41-.65,1.81,1.81,0,0,1-.21-2.7,3.18,3.18,0,0,1,1.63-.83,3.68,3.68,0,0,1,2.1.17,2.58,2.58,0,0,1,1.43,1.25c.12.23.11.23-.13.34l-.83.33c-.1,0-.16,0-.2-.06a1.43,1.43,0,0,0-1-.79,2.25,2.25,0,0,0-1.61.18.8.8,0,0,0-.45.72.77.77,0,0,0,.47.67,2.33,2.33,0,0,0,.66.22c.47.11.94.21,1.4.33a3.13,3.13,0,0,1,1,.44,2,2,0,0,1,0,3.42A3.61,3.61,0,0,1,104.63,101.82Z"/><path class="cls-6" d="M60.32,95.64v5.65a1.61,1.61,0,0,0,0,.22c0,.14-.06.18-.19.18H58.69c-.15,0-.22,0-.2-.2V89.74c0-.14,0-.21.19-.21q.72,0,1.44,0c.14,0,.22,0,.2.2a1.77,1.77,0,0,0,0,.23Z"/><path class="cls-2" d="M56.88,39.85c0,.07,0,.15-.12.15S56.79,39.87,56.88,39.85Z"/><path class="cls-2" d="M57,39.73a.17.17,0,0,1-.08.13A.14.14,0,0,1,57,39.73Z"/><path class="cls-2" d="M57,39.68a.07.07,0,0,1,0,.06Z"/><path class="cls-3" d="M58.08,38.39s0,0-.06,0Z"/><path class="cls-3" d="M58,38.45s0,0,0,0Z"/><polygon class="cls-7" points="4.57 102.86 4.57 4.57 101.84 4.57 101.84 0 0 0 0 102.86 4.57 102.86"/><polygon class="cls-7" points="123.43 26.5 123.43 124.8 26.28 124.8 26.28 129.36 128 129.36 128 26.5 123.43 26.5"/><polygon class="cls-8" points="101.84 9.3 118.81 9.3 118.81 26.5 123.38 26.5 123.38 4.74 101.84 4.74 101.84 9.3"/><polygon class="cls-8" points="26.28 120.06 9.31 120.06 9.31 102.86 4.75 102.86 4.75 124.62 26.28 124.62 26.28 120.06"/><polygon class="cls-8" points="31.08 13.88 14.12 13.88 14.12 31.08 9.55 31.08 9.55 9.32 31.08 9.32 31.08 13.88"/><polygon class="cls-8" points="97.4 115.63 114.36 115.63 114.36 98.44 118.93 98.44 118.93 120.2 97.4 120.2 97.4 115.63"/></g></g></svg>