<svg xmlns="http://www.w3.org/2000/svg" viewBox="0 0 128 129.36"><defs><style>.cls-1{fill:gray;}.cls-2{fill:#ccc;}.cls-3{fill:#e6e6e6;}.cls-4{fill:#90caf9;}</style></defs><g id="Capa_2" data-name="Capa 2"><g id="Capa_16" data-name="Capa 16"><path class="cls-1" d="M64,111.39q-14.9,0-29.79,0A13.65,13.65,0,0,1,31,111a15.88,15.88,0,0,1-4.74-2.06,12.51,12.51,0,0,1-1.55-1.16,15.92,15.92,0,0,1-4-5c-.3-.64-.6-1.29-.84-2A19.53,19.53,0,0,1,19.19,98,12.14,12.14,0,0,1,19,95.5q0-27.89,0-55.76a16.64,16.64,0,0,1,1.13-6A16,16,0,0,1,30.8,24.29c.75-.2,1.52-.28,2.27-.45a14.09,14.09,0,0,1,3-.15H92.63a18.51,18.51,0,0,1,5,.74,15,15,0,0,1,5.77,3.12A15.75,15.75,0,0,1,108,34.1a19.69,19.69,0,0,1,.87,3.5,18.33,18.33,0,0,1,.15,3.22q0,27.27,0,54.55a17.41,17.41,0,0,1-.62,4.43,14.67,14.67,0,0,1-2.21,4.76,16.2,16.2,0,0,1-3.84,3.91,16,16,0,0,1-5,2.4c-.51.15-1.06.2-1.58.36a7.94,7.94,0,0,1-2.38.16Q78.64,111.41,64,111.39Zm-8.44-65.2H50.8c-.37,0-.47.12-.5.47a2.53,2.53,0,0,1,0,.28,10,10,0,0,1-.44,2.87c-.52,1.56-1.07,3.12-1.61,4.67-1,2.77-1.91,5.54-2.87,8.3q-1.63,4.73-3.28,9.43-1.92,5.51-3.83,11c-.21.59-.42,1.19-.61,1.79s0,.68.49.71H45a.78.78,0,0,0,.89-.64c.89-2.74,1.77-5.48,2.66-8.23.15-.47.14-.48.63-.48h13c.45,0,.45,0,.6.42.3.87.61,1.74.91,2.62q1,2.82,1.93,5.64c.19.57.34.67,1,.67h7.27c.68,0,.81-.18.61-.81l0-.09L71.6,76.92l-4-11.23q-1.23-3.46-2.45-6.93-1.29-3.66-2.59-7.32c-.56-1.6-1.14-3.2-1.7-4.8a.56.56,0,0,0-.61-.44H55.52ZM78.47,70.68V84.61c0,.2,0,.4,0,.6,0,.35.18.49.53.52h6.85c.93,0,1,0,1-1v-28c0-.15,0-.31,0-.46,0-.34-.17-.45-.51-.48H79c-.35,0-.46.14-.49.49,0,.2,0,.4,0,.6ZM78.06,47.9a3.78,3.78,0,0,0,.15,1.34,4.35,4.35,0,0,0,1.29,2.19,4.82,4.82,0,0,0,4,1.13,4.12,4.12,0,0,0,2.22-.94,4.62,4.62,0,0,0,1.68-3.32,4.86,4.86,0,0,0-.52-2.78,4.27,4.27,0,0,0-3.93-2.32A4.57,4.57,0,0,0,78.06,47.9Z"/><path class="cls-2" d="M55.52,46.19h4.73a.56.56,0,0,1,.61.44c.56,1.6,1.14,3.2,1.7,4.8q1.3,3.66,2.59,7.32,1.21,3.47,2.45,6.93l4,11.23,2.79,7.89,0,.09c.2.63.07.81-.61.81H66.54c-.61,0-.76-.1-1-.67q-1-2.82-1.93-5.64c-.3-.88-.61-1.75-.91-2.62-.15-.41-.15-.42-.6-.42h-13c-.49,0-.48,0-.63.48-.89,2.75-1.77,5.49-2.66,8.23a.78.78,0,0,1-.89.64H38.14c-.48,0-.64-.24-.49-.71s.4-1.2.61-1.79q1.91-5.5,3.83-11,1.63-4.71,3.28-9.43c1-2.76,1.91-5.53,2.87-8.3.54-1.55,1.09-3.11,1.61-4.67a10,10,0,0,0,.44-2.87,2.53,2.53,0,0,0,0-.28c0-.35.13-.44.5-.47h4.72Zm0,7a.37.37,0,0,0-.11.25c-.26,1.17-.54,2.34-.89,3.48-.64,2.08-1.29,4.15-1.93,6.22-.38,1.24-.71,2.49-1.12,3.72-.18.52-.36,1-.53,1.57-.08.23,0,.27.19.29a1.77,1.77,0,0,0,.23,0H60c.31,0,.33,0,.25-.34q-.22-.75-.48-1.5c-.57-1.71-1.08-3.43-1.62-5.15-.8-2.51-1.6-5-2.29-7.56A2.69,2.69,0,0,0,55.51,53.22Z"/><path class="cls-2" d="M78.47,70.68V56.84c0-.2,0-.4,0-.6,0-.35.14-.46.49-.49h7.36c.34,0,.47.14.51.48,0,.15,0,.31,0,.46V84.74c0,.94,0,1-1,1H79c-.35,0-.5-.17-.53-.52,0-.2,0-.4,0-.6Z"/><path class="cls-2" d="M78.06,47.9a4.57,4.57,0,0,1,4.86-4.7,4.27,4.27,0,0,1,3.93,2.32,4.86,4.86,0,0,1,.52,2.78,4.62,4.62,0,0,1-1.68,3.32,4.12,4.12,0,0,1-2.22.94,4.82,4.82,0,0,1-4-1.13,4.35,4.35,0,0,1-1.29-2.19A3.78,3.78,0,0,1,78.06,47.9Z"/><path class="cls-1" d="M55.51,53.22a2.69,2.69,0,0,1,.35,1c.69,2.54,1.49,5,2.29,7.56.54,1.72,1.05,3.44,1.62,5.15q.25.75.48,1.5c.08.29.06.32-.25.34H51.35a1.77,1.77,0,0,1-.23,0c-.24,0-.27-.06-.19-.29.17-.52.35-1,.53-1.57.41-1.23.74-2.48,1.12-3.72C53.22,61.1,53.87,59,54.51,57c.35-1.14.63-2.31.89-3.48A.37.37,0,0,1,55.51,53.22Z"/><polygon class="cls-3" points="4.57 102.86 4.57 4.57 101.84 4.57 101.84 0 0 0 0 102.86 4.57 102.86"/><polygon class="cls-3" points="123.43 26.5 123.43 124.8 26.28 124.8 26.28 129.36 128 129.36 128 26.5 123.43 26.5"/><polygon class="cls-4" points="101.84 9.3 118.81 9.3 118.81 26.5 123.38 26.5 123.38 4.74 101.84 4.74 101.84 9.3"/><polygon class="cls-4" points="26.28 120.06 9.31 120.06 9.31 102.86 4.75 102.86 4.75 124.62 26.28 124.62 26.28 120.06"/><polygon class="cls-4" points="31.08 13.88 14.12 13.88 14.12 31.08 9.55 31.08 9.55 9.32 31.08 9.32 31.08 13.88"/><polygon class="cls-4" points="97.4 115.63 114.36 115.63 114.36 98.44 118.93 98.44 118.93 120.2 97.4 120.2 97.4 115.63"/></g></g></svg>