<svg xmlns="http://www.w3.org/2000/svg" viewBox="0 0 128 129.36"><defs><style>.cls-1{fill:#e6e6e6;}.cls-2{fill:#90caf9;}.cls-3{fill:#b3b3b3;}.cls-4{fill:#fff;}.cls-5{fill:gray;}</style></defs><g id="Capa_2" data-name="Capa 2"><g id="Capa_16" data-name="Capa 16"><polygon class="cls-1" points="4.57 102.86 4.57 4.57 101.84 4.57 101.84 0 0 0 0 102.86 4.57 102.86"/><polygon class="cls-1" points="123.43 26.5 123.43 124.8 26.28 124.8 26.28 129.36 128 129.36 128 26.5 123.43 26.5"/><polygon class="cls-2" points="101.84 9.3 118.81 9.3 118.81 26.5 123.38 26.5 123.38 4.74 101.84 4.74 101.84 9.3"/><polygon class="cls-2" points="26.28 120.06 9.31 120.06 9.31 102.86 4.75 102.86 4.75 124.62 26.28 124.62 26.28 120.06"/><polygon class="cls-2" points="31.08 13.88 14.12 13.88 14.12 31.08 9.55 31.08 9.55 9.32 31.08 9.32 31.08 13.88"/><polygon class="cls-2" points="97.4 115.63 114.36 115.63 114.36 98.44 118.93 98.44 118.93 120.2 97.4 120.2 97.4 115.63"/><path class="cls-3" d="M63,110.37c-6.87,0-13.74.22-20.6-.05-11.53-.44-21.67-9.46-23.83-20.83A29.75,29.75,0,0,1,18,83.92C18,71.61,18,59.3,18,47s7.82-22.57,19.53-25.66a26.15,26.15,0,0,1,6.76-.84c12.44,0,24.89-.06,37.33,0A26,26,0,0,1,107.36,41a24.79,24.79,0,0,1,.6,5.56c0,12.65.1,25.3,0,38a25.94,25.94,0,0,1-20.34,25.31,29.13,29.13,0,0,1-6.58.63H63ZM90.41,65.48h0q0-10.52,0-21c0-4-2.44-6.42-6.42-6.42H42.07c-4.07,0-6.49,2.41-6.49,6.45q0,21,0,41.91c0,4,2.41,6.47,6.47,6.47H83.86c4.18,0,6.54-2.39,6.55-6.6Z"/><path class="cls-4" d="M90.41,65.48v20.8c0,4.21-2.37,6.6-6.55,6.6H42.05c-4.06,0-6.47-2.42-6.47-6.47q0-21,0-41.91c0-4,2.42-6.45,6.49-6.45H84c4,0,6.42,2.44,6.42,6.42q0,10.5,0,21ZM62.89,86.93h19c1.72,0,2.59-.75,2.6-2.31,0-7.82,0-15.64,0-23.45,0-.68-.28-.9-.91-.88-1.12,0-2.25,0-3.37,0-.8,0-.9.27-.69,1A14.82,14.82,0,0,1,80,64.36a17,17,0,0,1-30.84,11,16.73,16.73,0,0,1-2.71-14c.27-1.15.26-1.15-1-1.16-.88,0-1.77.06-2.65,0s-1.34.23-1.34,1.29c0,7.51,0,15,0,22.54,0,2.12.7,2.82,2.81,2.82ZM63,54.37a11.09,11.09,0,1,0,11.07,11.1A11.06,11.06,0,0,0,63,54.37Zm21.45-7.06h0c0-.81,0-1.63,0-2.44a2.15,2.15,0,0,0-2.24-2.36c-1.69-.07-3.39-.07-5.08,0a2.2,2.2,0,0,0-2.28,2.36c0,1.62,0,3.25,0,4.88a2.17,2.17,0,0,0,2.26,2.36c1.76.07,3.53,0,5.29,0a2,2,0,0,0,2-2.11C84.48,49.08,84.45,48.19,84.45,47.31Z"/><path class="cls-5" d="M62.89,86.93H44.33c-2.11,0-2.81-.7-2.81-2.82,0-7.51,0-15,0-22.54,0-1.06.34-1.38,1.34-1.29s1.77,0,2.65,0c1.22,0,1.23,0,1,1.16a16.73,16.73,0,0,0,2.71,14A17,17,0,0,0,80,64.36a14.82,14.82,0,0,0-.49-3.11c-.21-.69-.11-1,.69-1,1.12,0,2.25,0,3.37,0,.63,0,.91.2.91.88,0,7.81,0,15.63,0,23.45,0,1.56-.88,2.31-2.6,2.31Z"/><path class="cls-5" d="M63,54.37A11.09,11.09,0,1,1,51.9,65.45,11,11,0,0,1,63,54.37Z"/><path class="cls-5" d="M84.45,47.31c0,.88,0,1.77,0,2.65a2,2,0,0,1-2,2.11c-1.76.07-3.53.1-5.29,0a2.17,2.17,0,0,1-2.26-2.36c0-1.63,0-3.26,0-4.88a2.2,2.2,0,0,1,2.28-2.36c1.69-.06,3.39-.06,5.08,0a2.15,2.15,0,0,1,2.24,2.36c0,.81,0,1.63,0,2.44Z"/></g></g></svg>