<svg xmlns="http://www.w3.org/2000/svg" viewBox="0 0 128 129.36"><defs><style>.cls-1{fill:#b3b3b3;}.cls-2{fill:#714a0e;}.cls-3{fill:#fff;}.cls-4{fill:#fffffe;}.cls-5{fill:#e6e6e6;}.cls-6{fill:#90caf9;}</style></defs><g id="Capa_2" data-name="Capa 2"><g id="Capa_16" data-name="Capa 16"><path class="cls-1" d="M110.31,37.06V71.91s0-.06-.07,0a.57.57,0,0,0-.06.28,36.07,36.07,0,0,1-.61,4.13,39,39,0,0,1-3.94,10.76,40,40,0,0,1-26.71,20,38.16,38.16,0,0,1-7.67.9c-3.79,0-7.58,0-11.38,0A40,40,0,0,1,24.39,85.7a38.71,38.71,0,0,1-3.93-14.52.69.69,0,0,0,0-.25c0-.06-.1,0-.12,0v-.44s.05.08.1,0a.09.09,0,0,0,0-.06c0-.33.06-.68-.13-1V37.64c.12.08.11,0,.12-.09s.06-.38.09-.57a9.79,9.79,0,0,1,6.13-7.4,10,10,0,0,1,3.93-.72h69.8a10.07,10.07,0,0,1,9.46,6.76,8.34,8.34,0,0,1,.34,1.28C110.2,37,110.14,37.12,110.31,37.06ZM50.36,56.83c0-2.58,0-5.16,0-7.74,0-.5,0-.45-.44-.45H35.81c-.5,0-.44,0-.44.45,0,4.67,0,9.34,0,14a31.64,31.64,0,0,0,.21,3.77,26.91,26.91,0,0,0,1.19,5.55,29.93,29.93,0,0,0,24,20.36,29.9,29.9,0,0,0,6.75.26A30.07,30.07,0,0,0,91,78.89a28.77,28.77,0,0,0,4.39-15c0-.38,0-.38-.33-.38H80.7c-.33,0-.33,0-.34.33a14.27,14.27,0,0,1-.47,3.38,15,15,0,0,1-18,10.7,14.57,14.57,0,0,1-10.34-8.55,14.35,14.35,0,0,1-1.23-6C50.37,61.17,50.36,59,50.36,56.83ZM84.23,40.51c-.19,0-.16.19-.19.3q-1.67,6.82-3.34,13.66c-.08.34-.08.34.26.43l.11,0,11.11,2.85,2.72.69c.17,0,.24,0,.28-.15l0-.14q1.68-6.44,3.37-12.88c.08-.31.15-.62.24-.94,0-.12,0-.18-.11-.21l-.18,0L84.44,40.57Z"/><path class="cls-2" d="M20.31,69.54c.19.3.1.65.13,1a.09.09,0,0,1,0,.06c-.05,0-.07,0-.1,0Z"/><path class="cls-3" d="M50.36,56.83c0,2.17,0,4.34,0,6.51a14.35,14.35,0,0,0,1.23,6,14.57,14.57,0,0,0,10.34,8.55,15,15,0,0,0,18-10.7,14.27,14.27,0,0,0,.47-3.38c0-.33,0-.33.34-.33H95c.33,0,.33,0,.33.38a28.77,28.77,0,0,1-4.39,15A30.07,30.07,0,0,1,67.54,93a29.9,29.9,0,0,1-6.75-.26,29.93,29.93,0,0,1-24-20.36,26.91,26.91,0,0,1-1.19-5.55,31.64,31.64,0,0,1-.21-3.77c0-4.66,0-9.33,0-14,0-.48-.06-.45.44-.45H49.92c.48,0,.44,0,.44.45C50.37,51.67,50.36,54.25,50.36,56.83Z"/><path class="cls-4" d="M84.23,40.51l.21.06L98.53,44.1l.18,0c.11,0,.15.09.11.21-.09.32-.16.63-.24.94q-1.69,6.43-3.37,12.88l0,.14c0,.16-.11.2-.28.15l-2.72-.69L81.07,54.92l-.11,0c-.34-.09-.34-.09-.26-.43Q82.38,47.65,84,40.81C84.07,40.7,84,40.53,84.23,40.51Z"/><polygon class="cls-5" points="4.57 102.86 4.57 4.57 101.84 4.57 101.84 0 0 0 0 102.86 4.57 102.86"/><polygon class="cls-5" points="123.43 26.5 123.43 124.8 26.28 124.8 26.28 129.36 128 129.36 128 26.5 123.43 26.5"/><polygon class="cls-6" points="101.84 9.3 118.81 9.3 118.81 26.5 123.38 26.5 123.38 4.74 101.84 4.74 101.84 9.3"/><polygon class="cls-6" points="26.28 120.06 9.31 120.06 9.31 102.86 4.75 102.86 4.75 124.62 26.28 124.62 26.28 120.06"/><polygon class="cls-6" points="31.08 13.88 14.12 13.88 14.12 31.08 9.55 31.08 9.55 9.32 31.08 9.32 31.08 13.88"/><polygon class="cls-6" points="97.4 115.63 114.36 115.63 114.36 98.44 118.93 98.44 118.93 120.2 97.4 120.2 97.4 115.63"/></g></g></svg>