<svg xmlns="http://www.w3.org/2000/svg" viewBox="0 0 128 129.36"><defs><style>.cls-1{fill:#26ade2;}.cls-2{fill:#27aee2;}.cls-3{fill:#e6e6e6;}.cls-4{fill:#90caf9;}</style></defs><g id="Capa_2" data-name="Capa 2"><g id="Capa_16" data-name="Capa 16"><path class="cls-1" d="M105.79,84.66c.54,1-.24,1.57-.67,2.23-8,12.19-19.48,18.16-34,19.08-23,1.47-42.93-15-49.4-33.08C16.78,59,18,46.12,28,34.69c.23-.26.52-.47,1.36-1.24-6,23,1.87,40.5,20.36,52.68S87.45,98.74,105.79,84.66Z"/><path class="cls-2" d="M51.76,26.76C48.88,44.32,55.7,57.32,71,65.44c13.11,7,26,6.11,38.13-4.76a20.83,20.83,0,0,1-6.21,9c-11.3,10.23-29.4,10.75-42.51,1.17C52.22,64.9,47,57.07,45.65,46.88,44.67,39.32,46.83,32.69,51.76,26.76Z"/><path class="cls-2" d="M71.53,21.52c-.9,9.34,2.41,16.74,10,21.87,7.34,5,15.3,6.11,23.71,1.64-2.21,4.9-7.89,7.8-14.89,7.63-9.92-.24-16.78-5.32-20.83-14.11C66.83,32.68,67.43,26.86,71.53,21.52Z"/><polygon class="cls-3" points="4.57 102.86 4.57 4.57 101.84 4.57 101.84 0 0 0 0 102.86 4.57 102.86"/><polygon class="cls-3" points="123.43 26.5 123.43 124.8 26.28 124.8 26.28 129.36 128 129.36 128 26.5 123.43 26.5"/><polygon class="cls-4" points="101.84 9.3 118.81 9.3 118.81 26.5 123.38 26.5 123.38 4.74 101.84 4.74 101.84 9.3"/><polygon class="cls-4" points="26.28 120.06 9.31 120.06 9.31 102.86 4.75 102.86 4.75 124.62 26.28 124.62 26.28 120.06"/><polygon class="cls-4" points="31.08 13.88 14.12 13.88 14.12 31.08 9.55 31.08 9.55 9.32 31.08 9.32 31.08 13.88"/><polygon class="cls-4" points="97.4 115.63 114.36 115.63 114.36 98.44 118.93 98.44 118.93 120.2 97.4 120.2 97.4 115.63"/></g></g></svg>