<svg xmlns="http://www.w3.org/2000/svg" viewBox="0 0 128 129.36"><defs><style>.cls-1{fill:#e6e6e6;}.cls-2{fill:#90caf9;}.cls-3{fill:#bfe575;}.cls-4{fill:#3e3f3c;}.cls-5{fill:#b5de68;}.cls-6{fill:#85be4c;}.cls-7{fill:#bae16f;}</style></defs><g id="Capa_2" data-name="Capa 2"><g id="Capa_16" data-name="Capa 16"><polygon class="cls-1" points="4.57 102.86 4.57 4.57 101.84 4.57 101.84 0 0 0 0 102.86 4.57 102.86"/><polygon class="cls-1" points="123.43 26.5 123.43 124.8 26.28 124.8 26.28 129.36 128 129.36 128 26.5 123.43 26.5"/><polygon class="cls-2" points="101.84 9.3 118.81 9.3 118.81 26.5 123.38 26.5 123.38 4.74 101.84 4.74 101.84 9.3"/><polygon class="cls-2" points="26.28 120.06 9.31 120.06 9.31 102.86 4.75 102.86 4.75 124.62 26.28 124.62 26.28 120.06"/><polygon class="cls-2" points="31.08 13.88 14.12 13.88 14.12 31.08 9.55 31.08 9.55 9.32 31.08 9.32 31.08 13.88"/><polygon class="cls-2" points="97.4 115.63 114.36 115.63 114.36 98.44 118.93 98.44 118.93 120.2 97.4 120.2 97.4 115.63"/><path class="cls-3" d="M89.89,18.5a109.72,109.72,0,0,1,4.16,14.33,95.24,95.24,0,0,1,2,12.79c.19,2.56.36,5.12.3,7.69A74,74,0,0,1,94.7,67.14c0,.08-.1.15-.15.22a2.78,2.78,0,0,1-.43-.76c-.19-1-.88-2,.11-3,.13-.13.22-.34,0-.47s-.33.06-.44.19a1.17,1.17,0,0,0-.19.3c-.17.34-.4.68-.8.6s-.24-.55-.25-.84c0-1.23,0-2.46,0-3.68,0-.62-.2-1.07-.86-1.16-.47-.06-.6-.32-.59-.74s0-.72,0-1.07c0-.55-.22-1-.78-1s-.67-.46-.67-.95c0-1.23,0-2.45,0-3.68,0-.4,0-.91-.45-1-1.18-.19-1-1-1-1.81,0-.64-.15-1.14-.87-1.23-.55-.07-.57-.43-.57-.84,0-1.23,0-2.46,0-3.69,0-.43,0-1-.47-1.06-1.13-.18-1-1-1-1.73,0-.53,0-1.11-.63-1.23s-.59-.48-.65-1c-.11-1,.2-2-.16-2.91a1.84,1.84,0,0,1,.18-.95c.74-1.71,1.5-3.41,2.23-5.13.38-.89.7-1.79,1.06-2.69l-.21-.09c-.31.62-.65,1.22-.94,1.85-1,2.09-1.92,4.19-2.83,6.3-.57,1.34-1.39,2.55-1.83,3.95-.65,0-.43-.82-1-.93-1.11-.22-1.08-1.14-1.19-2a6.37,6.37,0,0,1,0-1.07c0-.58-.13-1-.78-1.09s-.63-.51-.64-.94a3.53,3.53,0,0,1,.08-1.41c.12-.3.15-.65-.18-.78-.69-.26-.42-.56-.1-.9.13-.14.23-.3.11-.48s-.27,0-.41,0c-.63.16-.6-.26-.6-.67h0c.38-.06,1,.17,1-.38s-.63.08-.89-.2a18.35,18.35,0,0,1,3.44-2.35C83.22,23,86,21.22,88.7,19.47a2.42,2.42,0,0,0,1-1Z"/><path class="cls-4" d="M61.32,88.37C54.79,90,49,93.27,43.58,97.13a73.44,73.44,0,0,1-6.51,4.11,12.37,12.37,0,0,1-2.79,1.22,5.43,5.43,0,0,0-2.8,1.69,3,3,0,0,1-2.32.95,43.71,43.71,0,0,1-7.73-1c-.29-.05-.59-.07-.88-.11v-1.8a32.19,32.19,0,0,0,5.64.08c3.58-.45,4.8-1.1,7-3.77.1,1.12.16,1.16,1.21.67,3.92-1.84,7.79-3.75,11.52-6,2.42-1.2,4.72-2.63,7-4a28.64,28.64,0,0,0,4.91-3.36,1.46,1.46,0,0,1,1.25.35c.66.35,1,1.11,1.63,1.45l.18.19.16.18.08,0h.09l0,0Z"/><path class="cls-4" d="M90.05,80a21.33,21.33,0,0,0,7,.5,9.53,9.53,0,0,0,4.38-1.91c2.81-1.93,5.25-4.32,7.87-6.48.37-.3.66-.76,1.22-.77v1.08l-7.27,5.54c-.42.33-.84.68-1.28,1a.8.8,0,0,0-.22,1.34c.53.69.46.8-.43,1a44,44,0,0,1-9.67.24l-2.33-.09c-.08-.46.37-.72.4-1.13Z"/><path class="cls-5" d="M59.16,86.21a1.46,1.46,0,0,0-1.25-.35c-.1-.73-.8-.75-1.27-1-3.83-1.87-6-5-7.19-9A28.91,28.91,0,0,1,48.4,66a12.06,12.06,0,0,1,.89-5.1,22.55,22.55,0,0,1,1.55-5,59.36,59.36,0,0,1,6.44-12.08A26.12,26.12,0,0,1,62,38.62l.18-.19.17-.18c.52,0,.87-.17.87-.75h0c.27,0,.39-.08.37-.34h0c1-.12,1.57-.59,1.63-1.43h0l1.1-.17c-.09.21-.26.43,0,.61s.45,0,.61-.17a.84.84,0,0,0,.26-.62c.27,0,.7-.05.47-.4-.54-.84.34-.91.63-1.26s.53-.09.51.28c-.09,1.28.49,2.46.41,3.76,0,1,.71,2,.53,3.12,0,.08.12.21.21.27.41.25.44.64.5,1.07.11.83.09,1.76,1.18,2.06a.56.56,0,0,1,.39.56,11,11,0,0,0,.51,3.4c.19.7.08,1.43.83,1.9.26.16.24.58.32.9.17.67.08,1.46.73,2a6.39,6.39,0,0,1-.33,1.1c-1,2-1.87,4-2.8,6-1.29,2.76-2.7,5.46-3.9,8.27-1.51,3.55-3.28,7-4.92,10.49C61.38,81.28,60.28,83.75,59.16,86.21Zm7.24-49a.36.36,0,0,0-.37.3c0,.15,0,.3.19.32a.34.34,0,0,0,.43-.31C66.66,37.38,66.54,37.3,66.4,37.24Z"/><path class="cls-6" d="M49.29,60.93A12.06,12.06,0,0,0,48.4,66a28.91,28.91,0,0,0,1.05,9.83c1.21,4,3.36,7.15,7.19,9,.47.23,1.17.25,1.27,1A28.64,28.64,0,0,1,53,89.22c-2.32,1.38-4.62,2.81-7,4C39.34,92.35,35.6,88,33,82.34a44.42,44.42,0,0,1-3.55-21.89,79.35,79.35,0,0,1,1-8c.09-.51.16-.74.77-.45,2.09,1,4.23,1.82,6.3,2.82,3.76,1.82,7.63,3.44,11.07,5.87C48.78,60.84,49,61,49.29,60.93Z"/><path class="cls-7" d="M74.47,53c-.65-.51-.56-1.3-.73-2-.08-.32-.06-.74-.32-.9-.75-.47-.64-1.2-.83-1.9a11,11,0,0,1-.51-3.4.56.56,0,0,0-.39-.56c-1.09-.3-1.07-1.23-1.18-2.06-.06-.43-.09-.82-.5-1.07-.09-.06-.22-.19-.21-.27.18-1.11-.58-2.09-.53-3.12.08-1.3-.5-2.48-.41-3.76,0-.37-.28-.54-.51-.28s-1.17.42-.63,1.26c.23.35-.2.39-.47.4l-.38-1A39.72,39.72,0,0,1,72.81,30c.08.19.18.78.32.39.21-.57,1-.64.94-1.29l.34-.2a1.24,1.24,0,0,0,1.21.67c.57-.1.68-.65.62-1.2s.24-.7.71-.67c0,.41,0,.83.6.67.14,0,.3-.14.41,0s0,.34-.11.48c-.32.34-.59.64.1.9.33.13.3.48.18.78a3.53,3.53,0,0,0-.08,1.41c0,.43.13.86.64.94s.81.51.78,1.09a6.37,6.37,0,0,0,0,1.07c.11.82.08,1.74,1.19,2,.52.11.3,1,1,.93-.47,1.38-1.22,2.62-1.82,3.94-.77,1.7-1.61,3.37-2.39,5.07-.65,1.41-1.26,2.85-1.89,4.28-.27.22-.29.56-.43.84S75,52.88,74.47,53ZM77.21,29.9c0-.23-.12-.25-.22-.24s-.26.06-.28.13.11.18.22.18A1.15,1.15,0,0,0,77.21,29.9Z"/><path class="cls-3" d="M77,27.66c-.47,0-.76.17-.71.67s0,1.1-.62,1.2a1.24,1.24,0,0,1-1.21-.67A10.27,10.27,0,0,1,77,27.11v.55Z"/><path class="cls-7" d="M65.27,35.73c-.06.84-.6,1.31-1.63,1.43A4.68,4.68,0,0,1,65.27,35.73Z"/><path class="cls-3" d="M74.07,29.06c0,.65-.73.72-.94,1.29-.14.39-.24-.2-.32-.39A3,3,0,0,1,74.07,29.06Z"/><path class="cls-7" d="M66.36,35.56l-1.1.17a3.31,3.31,0,0,1,1.27-1.08v.73l-.18.18Z"/><path class="cls-7" d="M77,27.66v-.55a.24.24,0,0,1,.12,0c.26.28.87-.43.89.2S77.33,27.6,77,27.66Z"/><path class="cls-5" d="M66.54,35.38v-.73l.34-.23.38,1Z"/><path class="cls-7" d="M63.26,37.5c0,.58-.35.77-.87.75A1.64,1.64,0,0,1,63.26,37.5Z"/><path class="cls-7" d="M63.64,37.16c0,.26-.1.39-.37.34A.37.37,0,0,1,63.64,37.16Z"/><path class="cls-7" d="M62.22,38.43l-.18.19Z"/><path class="cls-7" d="M89.75,80.23c0,.41-.48.67-.4,1.13-.6.29-.77.94-1.14,1.42a16.31,16.31,0,0,1-2.28,2.69c0-.73-.61-1-1.15-1.33a.65.65,0,0,1-.47-.65c0-1.41-.83-2.72-.56-4.18a.74.74,0,0,0-.23-.56c-1-1-.71-2.67-2-3.46-.07,0-.07-.22-.07-.34,0-1.44-.85-2.78-.57-4.27a.78.78,0,0,0-.23-.56c-1-1-.72-2.67-2-3.45a.21.21,0,0,1,0-.17c.21-1.3-.86-2.4-.57-3.73a1.8,1.8,0,0,0-.45-1.58c-.83-1-.69-2.47-1.81-3.28-.07,0,0-.23-.06-.35-.18-.93-.37-1.86-.55-2.78l1.1-2.87c.42-.91.87-1.81,1.27-2.73,1.09-2.52,2.19-5,3.22-7.57.74-1.82,1.6-3.58,2.23-5.44a2.69,2.69,0,0,1,1-1.51c.36,1,.05,1.94.16,2.91.06.47,0,.83.65,1s.65.7.63,1.23c0,.77-.16,1.55,1,1.73.46.08.47.63.47,1.06,0,1.23,0,2.46,0,3.69,0,.41,0,.77.57.84.72.09.9.59.87,1.23,0,.79-.19,1.62,1,1.81.41.07.45.58.45,1,0,1.23,0,2.45,0,3.68,0,.49,0,.87.67.95s.78.49.78,1c0,.35,0,.71,0,1.07s.12.68.59.74c.66.09.86.54.86,1.16,0,1.22,0,2.45,0,3.68,0,.29-.2.74.25.84s.63-.26.8-.6a1.17,1.17,0,0,1,.19-.3c.11-.13.25-.33.44-.19s.09.34,0,.47c-1,.95-.3,2-.11,3a2.78,2.78,0,0,0,.43.76c-.06.3-.13.6-.19.9-.69.12-.87-.29-1-.86,0-.19,0-.54-.36-.52s-.26.35-.26.56c0,.48,0,1,0,1.43,0,.07.09.13.13.18.31,0,.09-.49.47-.51.09.36.53.76.09,1.09-.81.62-.44,1.13,0,1.69l-.06.35c-.37.07-.4.38-.5.66a6.28,6.28,0,0,1-.77,2c-.88,1.06-.73,2.55-1.65,3.56-.13.14.11.3.27.38a1.07,1.07,0,0,1-.34.73h-.2q-.09-.18-.18,0C89.47,79.31,89.74,79.8,89.75,80.23Zm3.17-14.72c-.16.39-.23.63,0,.95A.79.79,0,0,0,92.92,65.51Z"/><path class="cls-5" d="M75.15,54.77c.18.93.37,1.86.55,2.79,0,.12,0,.3.06.35,1.12.81,1,2.31,1.81,3.28A1.8,1.8,0,0,1,78,62.77c-.29,1.33.78,2.43.57,3.73a.21.21,0,0,0,0,.17c1.29.78,1,2.49,2,3.45a.78.78,0,0,1,.23.56c-.28,1.49.54,2.83.57,4.27,0,.12,0,.3.07.34,1.29.79,1,2.5,2,3.46a.74.74,0,0,1,.23.56c-.27,1.46.52,2.77.56,4.18a.65.65,0,0,0,.47.65c.54.28,1.11.6,1.15,1.33-.07.07-.14.13-.2.2L84.44,85c.82,1,.1,1.31-.54,1.8A8.49,8.49,0,0,0,81.64,89,12.17,12.17,0,0,1,77.89,91,20,20,0,0,1,72,92.58a10.34,10.34,0,0,1-6.61-1.39A6.86,6.86,0,0,1,63.48,90a.75.75,0,0,0-.9-.72h0c-.13-.56-.38-1-1.06-.9h0c0-.16,0-.31-.21-.35l0,0-.16-.23a11.7,11.7,0,0,1,1.22-3.25c2.43-5.84,5-11.65,7.43-17.47,1.68-3.94,3.48-7.82,4.94-11.84C74.81,55.06,74.84,54.79,75.15,54.77ZM81,88.27s-.07.11-.06.15.09,0,.14.06.07-.11.06-.14S81.09,88.29,81,88.27Z"/><path class="cls-7" d="M81.64,89a8.49,8.49,0,0,1,2.26-2.13c.64-.49,1.36-.84.54-1.8l1.29.65A13.4,13.4,0,0,1,81.64,89Z"/><path class="cls-3" d="M61.51,88.39c.68-.09.93.34,1.06.9A2.5,2.5,0,0,1,61.51,88.39Z"/><path class="cls-3" d="M62.58,89.29a.75.75,0,0,1,.9.72A1.7,1.7,0,0,1,62.58,89.29Z"/><path class="cls-3" d="M61.28,88c.19,0,.22.19.21.35l-.17,0Z"/><path class="cls-3" d="M93.5,71.32c-.46-.56-.83-1.07,0-1.69.44-.33,0-.73-.09-1.09-.38,0-.16.46-.47.51,0,0-.13-.11-.13-.18,0-.48,0-1,0-1.43,0-.21-.09-.54.26-.56s.33.33.36.52c.1.57.28,1,1,.86A11.25,11.25,0,0,1,93.5,71.32Z"/><path class="cls-3" d="M90.79,78.32c-.16-.08-.4-.24-.27-.38.92-1,.77-2.5,1.65-3.56a6.28,6.28,0,0,0,.77-2c.1-.28.13-.59.5-.66A27.49,27.49,0,0,1,90.79,78.32Z"/><path class="cls-3" d="M89.75,80.23c0-.43-.28-.92.32-1.19.06.1.12.11.18,0h.2c0,.37-.28.61-.4.92Z"/><path class="cls-5" d="M84,34.66a2.69,2.69,0,0,0-1,1.51c-.63,1.86-1.49,3.62-2.23,5.44-1,2.54-2.13,5-3.22,7.57-.4.92-.85,1.82-1.27,2.73-.38-.11-.37-.6-.73-.72.63-1.43,1.24-2.87,1.89-4.28.78-1.7,1.62-3.37,2.39-5.07.6-1.32,1.35-2.56,1.82-3.94s1.26-2.61,1.83-3.95c.91-2.11,1.88-4.21,2.83-6.3.29-.63.63-1.23.94-1.85l.21.09c-.36.9-.68,1.8-1.06,2.69-.73,1.72-1.49,3.42-2.23,5.13A1.84,1.84,0,0,0,84,34.66Z"/><path class="cls-6" d="M75.52,51.19c.36.12.35.61.73.72l-1.1,2.87c-.31,0-.34.28-.42.5-1.46,4-3.26,7.9-4.94,11.84-2.48,5.82-5,11.63-7.43,17.47a11.7,11.7,0,0,0-1.22,3.25V88L61,87.85l-.18-.19c-.67-.34-1-1.1-1.63-1.45,1.12-2.46,2.22-4.93,3.36-7.39,1.64-3.5,3.41-6.94,4.92-10.49,1.2-2.81,2.61-5.51,3.9-8.27.93-2,1.78-4,2.8-6a6.39,6.39,0,0,0,.33-1.1c.51-.13.46-.63.62-1S75.25,51.41,75.52,51.19Z"/><path class="cls-3" d="M60.79,87.66l.18.19Z"/><path class="cls-3" d="M61.13,88v-.19l.16.23h-.09Z"/><path class="cls-7" d="M66.54,35.38h.71A.84.84,0,0,1,67,36c-.16.16-.36.33-.61.17s-.11-.4,0-.61h0Z"/><path class="cls-7" d="M66.4,37.24c.14.06.26.14.25.31a.34.34,0,0,1-.43.31c-.18,0-.22-.17-.19-.32A.36.36,0,0,1,66.4,37.24Z"/><path class="cls-3" d="M77.21,29.9a1.15,1.15,0,0,1-.28.07c-.11,0-.27,0-.22-.18s.18-.12.28-.13S77.23,29.67,77.21,29.9Z"/><path class="cls-5" d="M66.54,35.38l-.18.18Z"/><path class="cls-3" d="M92.92,65.51a.79.79,0,0,1,0,.95C92.69,66.14,92.76,65.9,92.92,65.51Z"/><path class="cls-3" d="M90.07,79q.09-.18.18,0h-.18Z"/><path class="cls-7" d="M81,88.27s.12,0,.14.07,0,.1-.06.14-.13,0-.14-.06S81,88.32,81,88.27Z"/><path class="cls-7" d="M90.07,79h.18C90.19,79.15,90.13,79.14,90.07,79Z"/></g></g></svg>