<svg xmlns="http://www.w3.org/2000/svg" viewBox="0 0 128 129.36"><defs><style>.cls-1{fill:#11ab51;}.cls-2{fill:#14924f;}.cls-3{fill:#b9c5c2;}.cls-4{fill:#e6e6e6;}.cls-5{fill:#90caf9;}</style></defs><g id="Capa_2" data-name="Capa 2"><g id="Capa_16" data-name="Capa 16"><path class="cls-1" d="M62.59,101.78C44.89,90,38.85,66.78,47.5,45.28c3.57-8.84,10.36-15.09,16.28-22.06.29-.35.7.66.74,1.23L64.4,96.5C63,98,62.87,99.91,62.59,101.78Z"/><path class="cls-2" d="M64.4,96.5l.12-72a57.51,57.51,0,0,0,6.53,8C88,50.75,88.91,78,73.33,95.79a24.1,24.1,0,0,1-6.1,5.28C66.23,99.58,64.48,98.56,64.4,96.5Z"/><path class="cls-3" d="M64.4,96.5c.08,2.06,1.83,3.08,2.83,4.57-.8,3.78-.52,7.84-2.87,12.08a31.27,31.27,0,0,1-1.77-11.37C62.87,99.91,63,98,64.4,96.5Z"/><polygon class="cls-4" points="4.57 102.86 4.57 4.57 101.84 4.57 101.84 0 0 0 0 102.86 4.57 102.86"/><polygon class="cls-4" points="123.43 26.5 123.43 124.8 26.28 124.8 26.28 129.36 128 129.36 128 26.5 123.43 26.5"/><polygon class="cls-5" points="101.84 9.3 118.81 9.3 118.81 26.5 123.38 26.5 123.38 4.74 101.84 4.74 101.84 9.3"/><polygon class="cls-5" points="26.28 120.06 9.31 120.06 9.31 102.86 4.75 102.86 4.75 124.62 26.28 124.62 26.28 120.06"/><polygon class="cls-5" points="31.08 13.88 14.12 13.88 14.12 31.08 9.55 31.08 9.55 9.32 31.08 9.32 31.08 13.88"/><polygon class="cls-5" points="97.4 115.63 114.36 115.63 114.36 98.44 118.93 98.44 118.93 120.2 97.4 120.2 97.4 115.63"/></g></g></svg>