<svg xmlns="http://www.w3.org/2000/svg" viewBox="0 0 128 129.36"><defs><style>.cls-1{fill:#999;}.cls-2{fill:#666;}.cls-3{fill:gray;}.cls-4{fill:#ababab;}.cls-5{fill:#ccc;}.cls-6{fill:#888961;}.cls-7{fill:#41a142;}.cls-8{fill:#f2f2f2;}.cls-9{fill:#e6e6e6;}.cls-10{fill:#90caf9;}</style></defs><g id="Capa_2" data-name="Capa 2"><g id="Capa_16" data-name="Capa 16"><path class="cls-1" d="M40.34,57.43c.69-2.09,1.2-4.24,2-6.28,3-7,7.41-13.06,12.43-18.73,2.7-3,5.58-5.9,8.55-8.67.4-.38.68-.66,1.25-.17C74,31.69,81.73,41,86.22,52.72a21.7,21.7,0,0,1,1.26,4.54,1.12,1.12,0,0,0-.1.42,29.35,29.35,0,0,1,.45,7.78c-.14,1.08-.69,2.26-.07,3.4a7.51,7.51,0,0,0-.57,2,28.72,28.72,0,0,1-9,14.8,2.46,2.46,0,0,0-1.23.65,20.82,20.82,0,0,1-25.89,0c-.48-.36-.88-.93-1.58-1a29.81,29.81,0,0,1-8.78-15.5c-.06-.23-.07-.46-.11-.7a11.21,11.21,0,0,0-.14-1.73,31.48,31.48,0,0,1-.15-7.7C40.44,59,40.9,58.19,40.34,57.43ZM64.42,71C70,71.35,75,66.4,75,60.59a10.5,10.5,0,0,0-21,0A10.27,10.27,0,0,0,64.42,71ZM65,78.33c0-.7,0-1.41,0-2.11s-.13-1-.9-1-1,.24-1,1c0,1.41,0,2.82,0,4.23,0,.81.39,1,1.1,1s.83-.38.81-1S65,79,65,78.33Zm1.42-.19c0,.55,0,1.1,0,1.65s-.28,1.19.59,1.07c.58-.08,1.38,0,1.31-1.09s0-2.26,0-3.4c0-.61.08-1.17-.86-1.15s-1.08.4-1,1.16C66.48,77,66.45,77.56,66.45,78.14Zm-4.73,0c0-.67,0-1.34,0-2s-.16-.88-.8-.85-1.08,0-1.09.74c0,1.34,0,2.67,0,4,0,.82.78.81,1.31.89.69.11.55-.5.56-.9C61.74,79.34,61.72,78.72,61.72,78.09Zm8-.86a3.37,3.37,0,0,0,0,.71c.12.43-.37,1.22.42,1.23a1.13,1.13,0,0,0,1.25-1.35,10.46,10.46,0,0,1,0-1.77c0-.63-.24-.82-.84-.82s-.89.19-.84.82A11.61,11.61,0,0,1,69.75,77.23Zm-11.34,0c0-.35,0-.71,0-1.06,0-.56,0-1-.78-1s-.93.35-.89,1,0,1.26,0,1.89a1.21,1.21,0,0,0,1.28,1c.65,0,.27-.65.35-1A3.83,3.83,0,0,0,58.41,77.28Z"/><path class="cls-2" d="M49.52,85.38c.7,0,1.1.59,1.58,1a20.82,20.82,0,0,0,25.89,0,2.46,2.46,0,0,1,1.23-.65c-.82,2.69-2.76,4.52-4.87,6.2-.71.56-1.48,1-2.21,1.55a16.64,16.64,0,0,1-8,1.94,20,20,0,0,1-6.38-1.89,25.36,25.36,0,0,1-4.52-3.6A9.54,9.54,0,0,1,49.52,85.38Z"/><path class="cls-3" d="M92.27,92.26a7,7,0,0,1-5.76,8.24,2.2,2.2,0,0,1-2.82-1.8c-.25-1.26.39-2.11,1.89-2.5.23-.06.47-.07.7-.14a2.5,2.5,0,0,0,1.92-2,2.43,2.43,0,0,0-1-2.6,2.51,2.51,0,0,0-2.89-.13c-.27.16-.5.39-.76.56a2.33,2.33,0,0,1-3.19-.32,2.28,2.28,0,0,1,.52-3.16,7,7,0,0,1,6.41-1.52c.74.71,1.75,1,2.54,1.63C91.05,89.52,91.51,91,92.27,92.26Z"/><path class="cls-4" d="M64.13,113.32c-5.61-.31-11-.08-16.36-.92a11.33,11.33,0,0,1-1.16-.23c-.36-.09-.93-.07-.9-.55s.6-.45.95-.53a40.92,40.92,0,0,1,6.79-.76c5.19-.3,10.39-.44,15.58-.23a79.63,79.63,0,0,1,11.75.9c.54.1,1.45,0,1.43.69s-.95.55-1.48.64a62.89,62.89,0,0,1-7.75.72C70,113.21,66.92,113.09,64.13,113.32Z"/><path class="cls-2" d="M38.79,68.11c-.25-.8-.94-1.32-1.27-2.09a8.58,8.58,0,0,1-.65-3.8.54.54,0,0,0,.16-.56,6.77,6.77,0,0,1,3.31-4.23c.56.76.1,1.59,0,2.32a31.48,31.48,0,0,0,.15,7.7,11.21,11.21,0,0,1,.14,1.73C39.94,69,39.53,68.25,38.79,68.11Z"/><path class="cls-2" d="M90.83,61.51c.64,2.49-.32,4.56-1.68,6.53-.58.08-.85.68-1.39.82-.62-1.14-.07-2.32.07-3.4a29.35,29.35,0,0,0-.45-7.78,1.12,1.12,0,0,1,.1-.42A7.7,7.7,0,0,1,90.83,61.51Z"/><path class="cls-2" d="M40.41,87.31a6.43,6.43,0,0,0-4.49,5h-.26a3.45,3.45,0,0,1-.8-2.28c0-.2,0-.39,0-.59a3.9,3.9,0,0,1,4-3.15,4.55,4.55,0,0,1,1.78.61Z"/><path class="cls-2" d="M92.27,92.26c-.76-1.29-1.22-2.74-2.45-3.76-.79-.66-1.8-.92-2.54-1.63a4,4,0,0,1,1.82-.58c2.49.27,3.57,1.29,3.93,3.67A3.54,3.54,0,0,1,92.27,92.26Z"/><path class="cls-5" d="M96.86,74.37a20.9,20.9,0,0,0-6-12.86c.64,2.49-.32,4.56-1.68,6.53A26,26,0,0,1,91.42,75c0,1.45,0,2.9,0,4.35a23.73,23.73,0,0,1-2.33,7c2.49.27,3.57,1.29,3.93,3.67.46-.16.59-.61.8-1A22.79,22.79,0,0,0,96.86,74.37Z"/><path class="cls-5" d="M63.1,95.37a20,20,0,0,1-6.38-1.89,6.71,6.71,0,0,0,5,5.64,1.72,1.72,0,0,0,.94.22l.47,0a2.84,2.84,0,0,0,1.66,0l.48-.05.92-.23a6.77,6.77,0,0,0,5-5.66A16.64,16.64,0,0,1,63.1,95.37Z"/><path class="cls-6" d="M34.9,89.42c0,.2,0,.39,0,.59a1.26,1.26,0,0,1-.44-.74Z"/><path class="cls-5" d="M36.61,75.31a22.92,22.92,0,0,1,2.18-7.2c-.25-.8-.94-1.32-1.27-2.09a8.58,8.58,0,0,1-.65-3.8h0a.54.54,0,0,0,.16-.56.76.76,0,0,0-.46.5h0a.83.83,0,0,0-.46.51l-.47.6a1,1,0,0,0-.45.59,1.3,1.3,0,0,0-.48.71,2.09,2.09,0,0,0-.59.93l-.12.21a22,22,0,0,0-2.93,13.63A20.1,20.1,0,0,0,34.24,89h0l.21.28h0l.48.15a3.9,3.9,0,0,1,4-3.15A19.59,19.59,0,0,1,36.61,75.31Z"/><path class="cls-6" d="M34.23,89l.22.29Z"/><path class="cls-7" d="M40.44,91.63l.34-.27Z"/><path class="cls-7" d="M40.21,91.92l.26-.32Z"/><path class="cls-3" d="M47.34,88.67h0a1.45,1.45,0,0,0-.77-.65h0a3.39,3.39,0,0,1-.82-.2,3.39,3.39,0,0,0,.82.2,6.78,6.78,0,0,0-5.92-1.14l-.23.43a6.43,6.43,0,0,0-4.49,5,1.64,1.64,0,0,1,0,.38,1.64,1.64,0,0,0,0-.38h-.26l0,.7c0,.39,0,.79,0,1.18a5,5,0,0,0,1.06,3.17l.06,0-.06,0a1.21,1.21,0,0,0,.51.68h0l.22.26a.24.24,0,0,0,0-.19.24.24,0,0,1,0,.19h0l.24.23h0a.24.24,0,0,1,.18,0,.24.24,0,0,0-.18,0l.24.23h0l.25.21h0a1.12,1.12,0,0,0,.71.51h0a5,5,0,0,0,2.9,1l.72,0a.83.83,0,0,0,.77-.35h0l.26-.22h0l.22-.26h0v0h0c1-1.58.61-2.85-1.18-3.4a7,7,0,0,1-2-.67l-.46-.48a2.94,2.94,0,0,1,0-3.08c.06,0,.09-.06.07-.12l.25-.3.32-.26s.09,0,.11-.06a3,3,0,0,1,3.3.3l.26.2a2.35,2.35,0,0,0,3.08-.09A2.24,2.24,0,0,0,47.34,88.67Zm-3.54,11Zm-.23.26Z"/><path class="cls-2" d="M64.42,71A10.27,10.27,0,0,1,54,60.64a10.5,10.5,0,0,1,21,0C75,66.4,70,71.35,64.42,71Zm9-10.48a9,9,0,1,0-9,9A8.94,8.94,0,0,0,73.4,60.51Z"/><path class="cls-2" d="M65,78.33c0,.71,0,1.41,0,2.11s-.07,1-.81,1-1.11-.19-1.1-1c0-1.41,0-2.82,0-4.23,0-.72.33-.93,1-1s.94.33.9,1S65,77.63,65,78.33Z"/><path class="cls-2" d="M66.45,78.14c0-.58,0-1.17,0-1.76,0-.76.18-1.15,1-1.16s.87.54.86,1.15c0,1.14-.07,2.28,0,3.4s-.73,1-1.31,1.09c-.87.12-.56-.64-.59-1.07S66.45,78.69,66.45,78.14Z"/><path class="cls-2" d="M61.72,78.09c0,.63,0,1.25,0,1.88,0,.4.13,1-.56.9-.53-.08-1.29-.07-1.31-.89,0-1.34,0-2.67,0-4,0-.73.56-.71,1.09-.74s.82.27.8.85S61.72,77.42,61.72,78.09Z"/><path class="cls-2" d="M69.75,77.23a11.61,11.61,0,0,0,0-1.18c0-.63.24-.82.84-.82s.87.19.84.82a10.46,10.46,0,0,0,0,1.77,1.13,1.13,0,0,1-1.25,1.35c-.79,0-.3-.8-.42-1.23A3.37,3.37,0,0,1,69.75,77.23Z"/><path class="cls-2" d="M58.41,77.28a3.83,3.83,0,0,1,0,.83c-.08.36.3,1-.35,1a1.21,1.21,0,0,1-1.28-1c-.06-.63,0-1.26,0-1.89s.11-1,.89-1,.81.44.78,1C58.4,76.57,58.41,76.93,58.41,77.28Z"/><path class="cls-5" d="M73.4,60.51a9,9,0,1,1-8.94-8.95A9,9,0,0,1,73.4,60.51ZM57,60.61a7.46,7.46,0,0,0,7.59,7.54A7.59,7.59,0,1,0,64.46,53,7.47,7.47,0,0,0,57,60.61Z"/><path class="cls-5" d="M57,60.61A7.47,7.47,0,0,1,64.46,53a7.59,7.59,0,1,1,.09,15.17A7.46,7.46,0,0,1,57,60.61Zm6.89-3.36a1.7,1.7,0,0,0-1.64-1.9,2,2,0,0,0-2.44,1.48c-.35,1.06,0,1.87,1.23,2.55a1.7,1.7,0,0,1,0,.22v.71c0,2.06,1.79,3.92,3.58,3.79A3.56,3.56,0,0,0,67.89,60c-.09-1.54-2.09-3.38-3.84-2.76Z"/><path class="cls-2" d="M64.05,57.27c1.75-.62,3.75,1.22,3.84,2.76a3.56,3.56,0,0,1-3.3,4.07c-1.79.13-3.54-1.73-3.58-3.79V59.6C63.09,59.6,63.75,59.09,64.05,57.27Z"/><path class="cls-8" d="M61,59.38c-1.19-.68-1.58-1.49-1.23-2.55a2,2,0,0,1,2.44-1.48,1.7,1.7,0,0,1,1.64,1.9A2.56,2.56,0,0,0,62.2,58C61.69,58.41,61.68,59.19,61,59.38Z"/><path class="cls-8" d="M61,59.38c.68-.19.69-1,1.2-1.35a2.56,2.56,0,0,1,1.65-.78l.2,0c-.3,1.82-1,2.33-3,2.33A1.7,1.7,0,0,0,61,59.38Z"/><polygon class="cls-9" points="4.57 102.86 4.57 4.57 101.84 4.57 101.84 0 0 0 0 102.86 4.57 102.86"/><polygon class="cls-9" points="123.43 26.5 123.43 124.8 26.28 124.8 26.28 129.36 128 129.36 128 26.5 123.43 26.5"/><polygon class="cls-10" points="101.84 9.3 118.81 9.3 118.81 26.5 123.38 26.5 123.38 4.74 101.84 4.74 101.84 9.3"/><polygon class="cls-10" points="26.28 120.06 9.31 120.06 9.31 102.86 4.75 102.86 4.75 124.62 26.28 124.62 26.28 120.06"/><polygon class="cls-10" points="31.08 13.88 14.12 13.88 14.12 31.08 9.55 31.08 9.55 9.32 31.08 9.32 31.08 13.88"/><polygon class="cls-10" points="97.4 115.63 114.36 115.63 114.36 98.44 118.93 98.44 118.93 120.2 97.4 120.2 97.4 115.63"/></g></g></svg>