<svg xmlns="http://www.w3.org/2000/svg" viewBox="0 0 128 129.36"><defs><style>.cls-1{fill:#e6e6e6;}.cls-2{fill:#90caf9;}.cls-3{fill:#06a75c;}.cls-4{fill:#fcfdfd;}</style></defs><g id="Capa_2" data-name="Capa 2"><g id="Capa_16" data-name="Capa 16"><polygon class="cls-1" points="4.57 102.86 4.57 4.57 101.84 4.57 101.84 0 0 0 0 102.86 4.57 102.86"/><polygon class="cls-1" points="123.43 26.5 123.43 124.8 26.28 124.8 26.28 129.36 128 129.36 128 26.5 123.43 26.5"/><polygon class="cls-2" points="101.84 9.3 118.81 9.3 118.81 26.5 123.38 26.5 123.38 4.74 101.84 4.74 101.84 9.3"/><polygon class="cls-2" points="26.28 120.06 9.31 120.06 9.31 102.86 4.75 102.86 4.75 124.62 26.28 124.62 26.28 120.06"/><polygon class="cls-2" points="31.08 13.88 14.12 13.88 14.12 31.08 9.55 31.08 9.55 9.32 31.08 9.32 31.08 13.88"/><polygon class="cls-2" points="97.4 115.63 114.36 115.63 114.36 98.44 118.93 98.44 118.93 120.2 97.4 120.2 97.4 115.63"/><path class="cls-3" d="M20,109.85c2.32-6.95,4.36-13.39,6.65-19.73a8.57,8.57,0,0,0-.38-7.21c-7.87-17-6.36-33.25,5.54-47.68,12-14.59,28-19.47,46.14-14.29,18.39,5.25,29.14,18.18,31.61,37,2.2,16.69-3.87,30.8-17.49,40.88-13.45,9.95-28.33,11.56-43.81,5a10.53,10.53,0,0,0-8.36-.34C33.54,105.75,27,107.63,20,109.85Zm11.13-12,1,.5c3.52-1.1,7.1-2,10.54-3.35a5.65,5.65,0,0,1,5.4.59,33.82,33.82,0,0,0,15,4.47A36.81,36.81,0,1,0,44,33.6C31,43.11,24.93,60.74,31.39,75.5,34.87,83.47,36.08,90.25,31.13,97.8Z"/><path class="cls-4" d="M31.13,97.8c4.95-7.55,3.74-14.33.26-22.3C24.93,60.74,31,43.11,44,33.6A36.82,36.82,0,1,1,63.13,100a33.82,33.82,0,0,1-15-4.47A5.65,5.65,0,0,0,42.7,95c-3.44,1.31-7,2.25-10.54,3.35ZM77.6,85.45a12.42,12.42,0,0,0,8.24-3c3.94-3.19,3.54-7.54-.83-9.91a26.15,26.15,0,0,1-2.71-1.47c-3.22-2.3-6-2.52-8.17,1.39C72.82,74.77,71,75,68.6,73.63a33.19,33.19,0,0,1-12.45-11.8C55,59.92,55,58.62,56.7,57.22c2.45-2,2.73-4.41,1.35-7.22a49.6,49.6,0,0,1-1.75-4.69c-1.62-4.33-5.73-5.13-9-1.68-3.71,3.94-4.44,8.61-2.79,13.63,2,6,5.76,10.89,9.86,15.53C60.59,79.8,68.54,83.69,77.6,85.45Z"/><path class="cls-3" d="M77.6,85.45c-9.06-1.76-17-5.65-23.21-12.66-4.1-4.64-7.89-9.55-9.86-15.53-1.65-5-.92-9.69,2.79-13.63,3.25-3.45,7.36-2.65,9,1.68A49.6,49.6,0,0,0,58.05,50c1.38,2.81,1.1,5.21-1.35,7.22-1.7,1.4-1.74,2.7-.55,4.61A33.19,33.19,0,0,0,68.6,73.63C71,75,72.82,74.77,74.13,72.48c2.22-3.91,5-3.69,8.17-1.39A26.15,26.15,0,0,0,85,72.56c4.37,2.37,4.77,6.72.83,9.91A12.42,12.42,0,0,1,77.6,85.45Z"/></g></g></svg>