<svg xmlns="http://www.w3.org/2000/svg" viewBox="0 0 128 129.36"><defs><style>.cls-1{fill:#e6e6e6;}.cls-2{fill:#90caf9;}.cls-3{fill:#999;}.cls-4{fill:#fcfdfd;}</style></defs><g id="Capa_2" data-name="Capa 2"><g id="Capa_16" data-name="Capa 16"><polygon class="cls-1" points="4.57 102.86 4.57 4.57 101.84 4.57 101.84 0 0 0 0 102.86 4.57 102.86"/><polygon class="cls-1" points="123.43 26.5 123.43 124.8 26.28 124.8 26.28 129.36 128 129.36 128 26.5 123.43 26.5"/><polygon class="cls-2" points="101.84 9.3 118.81 9.3 118.81 26.5 123.38 26.5 123.38 4.74 101.84 4.74 101.84 9.3"/><polygon class="cls-2" points="26.28 120.06 9.31 120.06 9.31 102.86 4.75 102.86 4.75 124.62 26.28 124.62 26.28 120.06"/><polygon class="cls-2" points="31.08 13.88 14.12 13.88 14.12 31.08 9.55 31.08 9.55 9.32 31.08 9.32 31.08 13.88"/><polygon class="cls-2" points="97.4 115.63 114.36 115.63 114.36 98.44 118.93 98.44 118.93 120.2 97.4 120.2 97.4 115.63"/><path class="cls-3" d="M20.69,109.29c2.32-6.94,4.36-13.38,6.65-19.73A8.57,8.57,0,0,0,27,82.35C19.09,65.4,20.6,49.1,32.5,34.67c12-14.59,28-19.47,46.14-14.29,18.38,5.25,29.14,18.18,31.61,37,2.19,16.7-3.87,30.8-17.49,40.88-13.46,10-28.33,11.56-43.81,5a10.53,10.53,0,0,0-8.36-.34C34.23,105.2,27.72,107.07,20.69,109.29ZM31.82,97.24l1,.5c3.53-1.09,7.11-2,10.55-3.35a5.65,5.65,0,0,1,5.4.59,33.82,33.82,0,0,0,15,4.47A36.81,36.81,0,1,0,44.71,33c-13,9.51-19.1,27.14-12.63,41.9C35.56,82.91,36.76,89.69,31.82,97.24Z"/><path class="cls-4" d="M31.82,97.24c4.94-7.55,3.74-14.33.26-22.3C25.61,60.18,31.7,42.55,44.71,33a36.82,36.82,0,1,1,19.1,66.41,33.82,33.82,0,0,1-15-4.47,5.65,5.65,0,0,0-5.4-.59c-3.44,1.31-7,2.26-10.55,3.35ZM78.28,84.89a12.43,12.43,0,0,0,8.25-3c3.94-3.19,3.54-7.54-.83-9.91A25.16,25.16,0,0,1,83,70.53C79.77,68.23,77,68,74.81,71.92c-1.3,2.29-3.11,2.47-5.52,1.15a33.19,33.19,0,0,1-12.45-11.8c-1.19-1.91-1.16-3.21.55-4.61,2.44-2,2.73-4.41,1.35-7.22A49.6,49.6,0,0,1,57,44.75c-1.62-4.33-5.73-5.13-9-1.68-3.71,4-4.45,8.61-2.8,13.63,2,6,5.77,10.89,9.87,15.53C61.27,79.24,69.23,83.13,78.28,84.89Z"/><path class="cls-3" d="M78.28,84.89c-9-1.76-17-5.65-23.2-12.66-4.1-4.64-7.9-9.54-9.87-15.53-1.65-5-.91-9.68,2.8-13.63,3.25-3.45,7.36-2.65,9,1.68a49.6,49.6,0,0,0,1.75,4.69c1.38,2.81,1.09,5.21-1.35,7.22-1.71,1.4-1.74,2.7-.55,4.61a33.19,33.19,0,0,0,12.45,11.8c2.41,1.32,4.22,1.14,5.52-1.15C77,68,79.77,68.23,83,70.53A25.16,25.16,0,0,0,85.7,72c4.37,2.37,4.77,6.72.83,9.91A12.43,12.43,0,0,1,78.28,84.89Z"/></g></g></svg>