<svg xmlns="http://www.w3.org/2000/svg" viewBox="0 0 128 129.36"><defs><style>.cls-1{fill:#e6e6e6;}.cls-2{fill:#90caf9;}.cls-3{fill:#fd0101;}.cls-4{fill:#fdfafa;}</style></defs><g id="Capa_2" data-name="Capa 2"><g id="Capa_16" data-name="Capa 16"><polygon class="cls-1" points="4.57 102.86 4.57 4.57 101.84 4.57 101.84 0 0 0 0 102.86 4.57 102.86"/><polygon class="cls-1" points="123.43 26.5 123.43 124.8 26.28 124.8 26.28 129.36 128 129.36 128 26.5 123.43 26.5"/><polygon class="cls-2" points="101.84 9.3 118.81 9.3 118.81 26.5 123.38 26.5 123.38 4.74 101.84 4.74 101.84 9.3"/><polygon class="cls-2" points="26.28 120.06 9.31 120.06 9.31 102.86 4.75 102.86 4.75 124.62 26.28 124.62 26.28 120.06"/><polygon class="cls-2" points="31.08 13.88 14.12 13.88 14.12 31.08 9.55 31.08 9.55 9.32 31.08 9.32 31.08 13.88"/><polygon class="cls-2" points="97.4 115.63 114.36 115.63 114.36 98.44 118.93 98.44 118.93 120.2 97.4 120.2 97.4 115.63"/><path class="cls-3" d="M64.57,97.68c-11.08-.08-22.18.2-33.21-1.27-6-.8-9.73-3.89-10.71-9.94a122.7,122.7,0,0,1,0-40.11C21.77,39.67,25.8,36.57,33.46,36a429.72,429.72,0,0,1,61.42,0,27.16,27.16,0,0,1,4.54.8,10.77,10.77,0,0,1,8.3,8.21A37.77,37.77,0,0,1,109,54.6q0,11.57,0,23.13a41.56,41.56,0,0,1-1.21,9.81A11.25,11.25,0,0,1,98,96.38a154.93,154.93,0,0,1-18,1.26C74.86,97.81,69.71,97.68,64.57,97.68ZM78.91,66.39,55.44,53V79.82Z"/><path class="cls-4" d="M78.91,66.39,55.44,79.82V53Z"/></g></g></svg>