<svg xmlns="http://www.w3.org/2000/svg" viewBox="0 0 128 129.36"><defs><style>.cls-1{fill:#999;}.cls-2{fill:#e6e6e6;}.cls-3{fill:#90caf9;}</style></defs><g id="Capa_2" data-name="Capa 2"><g id="Capa_16" data-name="Capa 16"><path class="cls-1" d="M20.53,54.38C26.37,34,46.2,19.6,66.5,21.05c22.46,1.6,39.75,17.32,43,39.09C112.65,81.29,100.68,102,81,109.5c-4.41,1.68-5.2,1.12-5.21-3.68,0-3,0-5.94,0-8.9a14.62,14.62,0,0,0-2.57-9.47c1.78-1.3,3.91-1,5.81-1.56,12.49-3.72,18.75-19.32,12-30.51a10.13,10.13,0,0,1-1.52-7c.33-2.79.8-6.39-1.56-8s-5.36.3-7.59,1.79c-3.11,2.06-6.12,2.3-9.72,1.55a34.61,34.61,0,0,0-15.18.47,5.49,5.49,0,0,1-4.7-.84,22.26,22.26,0,0,0-7.47-3.25c-1.94-.47-3.23.11-3.58,2.22a3.41,3.41,0,0,0-.15.69c.42,6.08-2,11.5-3.46,17.22-2.86,11,1.53,24,16.76,26.28a26,26,0,0,1,2.76.74,13.76,13.76,0,0,0-1.26,2.31c-.74,2.48-1.59,4.56-4.81,4.72C46,94.5,43,93.7,40.83,90.68c-1.59-2.26-3.13-4.53-5.87-5.49-1.19-.41-2.94-1-3.6.2s1.06,1.83,1.93,2.5a11.65,11.65,0,0,1,3.84,5c2.27,6,6.72,8.39,12.86,7.73,2.58-.28,3.17.52,3.15,3,0,7.48-.76,8.09-7.55,4.85C32.39,102.23,23.87,92,20.17,77.79a70.64,70.64,0,0,1-.94-12.12A58.06,58.06,0,0,1,20.53,54.38Z"/><polygon class="cls-2" points="4.57 102.86 4.57 4.57 101.84 4.57 101.84 0 0 0 0 102.86 4.57 102.86"/><polygon class="cls-2" points="123.43 26.5 123.43 124.8 26.28 124.8 26.28 129.36 128 129.36 128 26.5 123.43 26.5"/><polygon class="cls-3" points="101.84 9.3 118.81 9.3 118.81 26.5 123.38 26.5 123.38 4.74 101.84 4.74 101.84 9.3"/><polygon class="cls-3" points="26.28 120.06 9.31 120.06 9.31 102.86 4.75 102.86 4.75 124.62 26.28 124.62 26.28 120.06"/><polygon class="cls-3" points="31.08 13.88 14.12 13.88 14.12 31.08 9.55 31.08 9.55 9.32 31.08 9.32 31.08 13.88"/><polygon class="cls-3" points="97.4 115.63 114.36 115.63 114.36 98.44 118.93 98.44 118.93 120.2 97.4 120.2 97.4 115.63"/></g></g></svg>