<svg xmlns="http://www.w3.org/2000/svg" viewBox="0 0 128 129.36"><defs><style>.cls-1{fill:#efda52;}.cls-2{fill:#363731;}.cls-3{fill:#e6e6e6;}.cls-4{fill:#90caf9;}</style></defs><g id="Capa_2" data-name="Capa 2"><g id="Capa_16" data-name="Capa 16"><path class="cls-1" d="M63.57,20.23c13.61,0,27.22.09,40.82-.07,3.24,0,4.19.94,4.18,4.17q-.18,40.85,0,81.69c0,3.23-.94,4.19-4.17,4.17q-40.83-.16-81.66,0c-3.23,0-4.19-.94-4.17-4.17q.16-40.84,0-81.68c0-3.24.93-4.22,4.17-4.18C36.35,20.32,50,20.23,63.57,20.23ZM87.69,61.14c-7,0-11.21,2.89-12.64,8.22-1.49,5.53.71,10.59,6.18,13.71,2.47,1.4,5.13,2.48,7.7,3.69,2.34,1.1,4.6,2.43,3.7,5.49S89,95.59,86.28,95.42c-1.7-.1-3.63-.54-4.56-1.89-2.34-3.43-4.52-2.26-7.33-.65-2.38,1.37-2,2.37-.61,4.06,4.19,5.17,12.1,7.37,19.13,5.22,6.32-1.94,9.27-6.92,8.18-13.49-.8-4.78-4.1-7.31-8-9.35-2.75-1.44-5.65-2.59-8.34-4.11a3.41,3.41,0,0,1-1.41-4.73c.81-1.72,2.42-2.25,4.25-2a5.31,5.31,0,0,1,3.64,2c.59.74,1.21,1.48,2.24.77,1.68-1.17,4.44-1.74,4.78-3.6.38-2-2-3.41-3.68-4.6A11.28,11.28,0,0,0,87.69,61.14Zm-20.21,17h0c0-4.39-.27-8.81.09-13.18.29-3.61-1.59-3.58-4.17-3.57s-4.63-.22-4.5,3.67c.31,8.52.09,17.07.07,25.61,0,1.92-.48,3.59-2.5,4.39s-4,.6-5-1c-2.36-4-4.48-1.55-6.9-.3-2,1-2.31,2-1,3.82,3.28,4.52,10,6.55,16.1,4.67,4.83-1.48,7.56-5.42,7.68-11.32C67.55,86.69,67.48,82.41,67.48,78.14Z"/><path class="cls-2" d="M87.69,61.14A11.28,11.28,0,0,1,94.58,63c1.7,1.19,4.06,2.58,3.68,4.6-.34,1.86-3.1,2.43-4.78,3.6-1,.71-1.65,0-2.24-.77a5.31,5.31,0,0,0-3.64-2c-1.83-.2-3.44.33-4.25,2a3.41,3.41,0,0,0,1.41,4.73c2.69,1.52,5.59,2.67,8.34,4.11,3.89,2,7.19,4.57,8,9.35,1.09,6.57-1.86,11.55-8.18,13.49-7,2.15-14.94,0-19.13-5.22-1.38-1.69-1.77-2.69.61-4.06,2.81-1.61,5-2.78,7.33.65.93,1.35,2.86,1.79,4.56,1.89,2.68.17,5.43-.08,6.35-3.17s-1.36-4.39-3.7-5.49c-2.57-1.21-5.23-2.29-7.7-3.69-5.47-3.12-7.67-8.18-6.18-13.71C76.48,64,80.74,61.14,87.69,61.14Z"/><path class="cls-2" d="M67.48,78.14c0,4.27.07,8.55,0,12.81-.12,5.9-2.85,9.84-7.68,11.32-6.12,1.88-12.82-.15-16.1-4.67-1.36-1.87-1-2.8,1-3.82,2.42-1.25,4.54-3.67,6.9.3.94,1.58,3.07,1.72,5,1S59,92.59,59,90.67c0-8.54.24-17.09-.07-25.61-.13-3.89,1.87-3.66,4.5-3.67s4.46,0,4.17,3.57c-.36,4.37-.09,8.79-.09,13.18Z"/><polygon class="cls-3" points="4.57 102.86 4.57 4.57 101.84 4.57 101.84 0 0 0 0 102.86 4.57 102.86"/><polygon class="cls-3" points="123.43 26.5 123.43 124.8 26.28 124.8 26.28 129.36 128 129.36 128 26.5 123.43 26.5"/><polygon class="cls-4" points="101.84 9.3 118.81 9.3 118.81 26.5 123.38 26.5 123.38 4.74 101.84 4.74 101.84 9.3"/><polygon class="cls-4" points="26.28 120.06 9.31 120.06 9.31 102.86 4.75 102.86 4.75 124.62 26.28 124.62 26.28 120.06"/><polygon class="cls-4" points="31.08 13.88 14.12 13.88 14.12 31.08 9.55 31.08 9.55 9.32 31.08 9.32 31.08 13.88"/><polygon class="cls-4" points="97.4 115.63 114.36 115.63 114.36 98.44 118.93 98.44 118.93 120.2 97.4 120.2 97.4 115.63"/></g></g></svg>