<svg xmlns="http://www.w3.org/2000/svg" viewBox="0 0 128 129.36"><defs><style>.cls-1{fill:#e6e6e6;}.cls-2{fill:#90caf9;}.cls-3{fill:#3e3f3c;}.cls-4{fill:#666;}.cls-5{fill:#bfe575;}.cls-6{fill:#4d4d4d;}.cls-7{fill:#b3b3b3;}.cls-8{fill:#bae16f;}</style></defs><g id="Capa_2" data-name="Capa 2"><g id="Capa_16" data-name="Capa 16"><polygon class="cls-1" points="4.57 102.86 4.57 4.57 101.84 4.57 101.84 0 0 0 0 102.86 4.57 102.86"/><polygon class="cls-1" points="123.43 26.5 123.43 124.8 26.28 124.8 26.28 129.36 128 129.36 128 26.5 123.43 26.5"/><polygon class="cls-2" points="101.84 9.3 118.81 9.3 118.81 26.5 123.38 26.5 123.38 4.74 101.84 4.74 101.84 9.3"/><polygon class="cls-2" points="26.28 120.06 9.31 120.06 9.31 102.86 4.75 102.86 4.75 124.62 26.28 124.62 26.28 120.06"/><polygon class="cls-2" points="31.08 13.88 14.12 13.88 14.12 31.08 9.55 31.08 9.55 9.32 31.08 9.32 31.08 13.88"/><polygon class="cls-2" points="97.4 115.63 114.36 115.63 114.36 98.44 118.93 98.44 118.93 120.2 97.4 120.2 97.4 115.63"/><path class="cls-3" d="M61.32,88.37C54.79,90,49,93.27,43.58,97.13a73.44,73.44,0,0,1-6.51,4.11,12.37,12.37,0,0,1-2.79,1.22,5.43,5.43,0,0,0-2.8,1.69,3,3,0,0,1-2.32.95,43.71,43.71,0,0,1-7.73-1c-.29-.05-.59-.07-.88-.11v-1.8a32.19,32.19,0,0,0,5.64.08c3.58-.45,4.8-1.1,7-3.77.1,1.12.16,1.16,1.21.67,3.92-1.84,7.79-3.75,11.52-6,2.42-1.2,4.72-2.63,7-4a28.64,28.64,0,0,0,4.91-3.36,1.46,1.46,0,0,1,1.25.35c.66.35,1,1.11,1.63,1.45l.18.19.16.18.08,0h.09l0,0Z"/><path class="cls-3" d="M90.05,80a21.33,21.33,0,0,0,7,.5,9.53,9.53,0,0,0,4.38-1.91c2.81-1.93,5.25-4.32,7.87-6.48.37-.3.66-.76,1.22-.77v1.08l-7.27,5.54c-.42.33-.84.68-1.28,1a.8.8,0,0,0-.22,1.34c.53.69.46.8-.43,1a44,44,0,0,1-9.67.24l-2.33-.09c-.08-.46.37-.72.4-1.13Z"/><path class="cls-4" d="M49.29,60.93A12.06,12.06,0,0,0,48.4,66a28.91,28.91,0,0,0,1.05,9.83c1.21,4,3.36,7.15,7.19,9,.47.23,1.17.25,1.27,1A28.64,28.64,0,0,1,53,89.22c-2.32,1.38-4.62,2.81-7,4C39.34,92.35,35.6,88,33,82.34a44.42,44.42,0,0,1-3.55-21.89,79.35,79.35,0,0,1,1-8c.09-.51.16-.74.77-.45,2.09,1,4.23,1.82,6.3,2.82,3.76,1.82,7.63,3.44,11.07,5.87C48.78,60.84,49,61,49.29,60.93Z"/><path class="cls-5" d="M61.51,88.39c.68-.09.93.34,1.06.9A2.5,2.5,0,0,1,61.51,88.39Z"/><path class="cls-5" d="M62.58,89.29a.75.75,0,0,1,.9.72A1.7,1.7,0,0,1,62.58,89.29Z"/><path class="cls-5" d="M61.28,88c.19,0,.22.19.21.35l-.17,0Z"/><path class="cls-6" d="M87.22,25.8c-.31.62-.65,1.22-.94,1.85-1,2.09-1.92,4.19-2.83,6.3-.57,1.34-1.38,2.55-1.83,3.95s-1.22,2.62-1.82,3.94c-.77,1.7-1.61,3.37-2.39,5.07-.65,1.41-1.26,2.85-1.89,4.28-.27.22-.29.56-.43.84s-.11.85-.62,1a6.39,6.39,0,0,1-.33,1.1c-1,2-1.87,4-2.8,6-1.29,2.76-2.7,5.46-3.9,8.27-1.51,3.55-3.29,7-4.92,10.49-1.14,2.46-2.24,4.93-3.36,7.39.66.35,1,1.11,1.63,1.45l.18.19.16.18a1.28,1.28,0,0,0,0-.19,11.7,11.7,0,0,1,1.22-3.25c2.43-5.84,5-11.65,7.43-17.47,1.68-3.94,3.48-7.82,4.94-11.84.08-.22.11-.49.42-.5l1.1-2.87c.42-.91.87-1.81,1.27-2.73,1.09-2.52,2.19-5,3.22-7.57.74-1.82,1.6-3.58,2.23-5.44a2.69,2.69,0,0,1,1-1.51,1.94,1.94,0,0,1,.17-.95c.75-1.71,1.51-3.42,2.24-5.13.38-.89.7-1.79,1.06-2.69Z"/><path class="cls-5" d="M60.79,87.66l.18.19Z"/><path class="cls-5" d="M61.13,88v-.19l.16.23h-.09Z"/><path class="cls-5" d="M77.21,29.9a1.15,1.15,0,0,1-.28.07c-.11,0-.27,0-.22-.18s.18-.12.28-.13S77.23,29.67,77.21,29.9Z"/><path class="cls-7" d="M96,45.62a95.24,95.24,0,0,0-2-12.79A111.3,111.3,0,0,0,89.89,18.5h-.18a2.42,2.42,0,0,1-1,1C86,21.22,83.22,23,80.51,24.73a18.35,18.35,0,0,0-3.44,2.35h0a.24.24,0,0,0-.12,0,10.27,10.27,0,0,0-2.54,1.75l-.34.2a3,3,0,0,0-1.26.9,39.72,39.72,0,0,0-5.94,4.46l.38,1-.38-1-.34.23a3.31,3.31,0,0,0-1.27,1.08h0a4.63,4.63,0,0,0-1.62,1.43h0a.37.37,0,0,0-.37.34h0a1.64,1.64,0,0,0-.87.75l-.17.18-.18.19a26.12,26.12,0,0,0-4.76,5.2A59.36,59.36,0,0,0,50.84,55.9a22.55,22.55,0,0,0-1.55,5A12.06,12.06,0,0,0,48.4,66a28.91,28.91,0,0,0,1.05,9.83c1.21,4,3.36,7.15,7.19,9,.47.23,1.16.25,1.27,1a1.46,1.46,0,0,1,1.25.35c1.12-2.46,2.22-4.93,3.36-7.39,1.63-3.5,3.41-6.94,4.92-10.49,1.2-2.81,2.61-5.51,3.9-8.27.93-2,1.78-4,2.8-6a6.39,6.39,0,0,0,.33-1.1c.51-.13.46-.63.62-1s.16-.62.43-.84c.63-1.43,1.24-2.87,1.89-4.28.78-1.7,1.62-3.37,2.39-5.07.6-1.32,1.35-2.57,1.82-3.94s1.26-2.61,1.83-3.95c.91-2.11,1.88-4.21,2.83-6.3.29-.63.63-1.23.94-1.85l.21.09c-.36.9-.68,1.8-1.06,2.69-.73,1.71-1.49,3.42-2.24,5.13a1.94,1.94,0,0,0-.17.95,2.69,2.69,0,0,0-1,1.51c-.63,1.86-1.49,3.62-2.23,5.44-1,2.54-2.13,5-3.22,7.57-.4.92-.85,1.82-1.27,2.73l-1.1,2.87c.18.92.37,1.85.55,2.78-.18-.93-.37-1.86-.55-2.79-.31,0-.34.29-.42.51-1.46,4-3.26,7.9-4.94,11.84-2.48,5.82-5,11.63-7.43,17.47a11.7,11.7,0,0,0-1.22,3.25l.16.23,0,0c.19,0,.22.19.21.35h0c.68-.09.93.34,1.06.9h0a.74.74,0,0,1,.89.72,7.06,7.06,0,0,0,2,1.18A10.34,10.34,0,0,0,72,92.58,20,20,0,0,0,77.89,91,12.17,12.17,0,0,0,81.64,89h0a13.4,13.4,0,0,0,4.09-3.28c.06-.07.13-.13.2-.2a16.31,16.31,0,0,0,2.28-2.69c.37-.48.54-1.13,1.14-1.42-.08-.46.37-.72.4-1.13h0l.3-.26c.12-.31.43-.55.4-.92a1.07,1.07,0,0,0,.34-.73h0a27.49,27.49,0,0,0,2.65-6.65l.06-.35h0a11.25,11.25,0,0,0,.86-3.06l.19-.9c0-.07.14-.14.15-.22a74,74,0,0,0,1.63-13.83C96.39,50.74,96.22,48.18,96,45.62ZM66.4,37.24h0a.36.36,0,0,0-.37.3A.36.36,0,0,1,66.4,37.24ZM77.74,27c-.17,0-.39.17-.56.13C77.35,27.18,77.57,27,77.74,27Zm-.81,3c-.11,0-.27,0-.22-.18s.18-.12.28-.13.24,0,.22.24A1.15,1.15,0,0,1,76.93,30Zm4.19,58.51c-.05,0-.13,0-.14-.06s0-.1.06-.15.12,0,.14.07S81.14,88.44,81.12,88.48ZM90.25,79c-.06.11-.12.1-.18,0s.12-.12.18,0Zm2.67-13.53a.79.79,0,0,1,0,.95C92.69,66.14,92.76,65.9,92.92,65.51Zm0,3.54a.6.6,0,0,1-.08-.08.6.6,0,0,0,.08.08Zm.47-.51h0c0,.18.18.37.25.56C93.57,68.91,93.44,68.72,93.39,68.54Z"/><path class="cls-5" d="M92.92,65.51a.79.79,0,0,1,0,.95C92.69,66.14,92.76,65.9,92.92,65.51Z"/><path class="cls-5" d="M90.07,79q.09-.18.18,0h-.18Z"/><path class="cls-8" d="M81,88.27s.12,0,.14.07,0,.1-.06.14-.13,0-.14-.06S81,88.32,81,88.27Z"/><path class="cls-8" d="M90.07,79h.18C90.19,79.15,90.13,79.14,90.07,79Z"/></g></g></svg>