<svg xmlns="http://www.w3.org/2000/svg" viewBox="0 0 128 129.36"><defs><style>.cls-1{fill:#e6e6e6;}.cls-2{fill:#90caf9;}.cls-3{fill:#0077b6;}.cls-4{fill:#fdfdfe;}</style></defs><g id="Capa_2" data-name="Capa 2"><g id="Capa_16" data-name="Capa 16"><polygon class="cls-1" points="4.57 102.86 4.57 4.57 101.84 4.57 101.84 0 0 0 0 102.86 4.57 102.86"/><polygon class="cls-1" points="123.43 26.5 123.43 124.8 26.28 124.8 26.28 129.36 128 129.36 128 26.5 123.43 26.5"/><polygon class="cls-2" points="101.84 9.3 118.81 9.3 118.81 26.5 123.38 26.5 123.38 4.74 101.84 4.74 101.84 9.3"/><polygon class="cls-2" points="26.28 120.06 9.31 120.06 9.31 102.86 4.75 102.86 4.75 124.62 26.28 124.62 26.28 120.06"/><polygon class="cls-2" points="31.08 13.88 14.12 13.88 14.12 31.08 9.55 31.08 9.55 9.32 31.08 9.32 31.08 13.88"/><polygon class="cls-2" points="97.4 115.63 114.36 115.63 114.36 98.44 118.93 98.44 118.93 120.2 97.4 120.2 97.4 115.63"/><path class="cls-3" d="M64,21.33h36.44A8.07,8.07,0,0,1,108.2,26a7.92,7.92,0,0,1,.79,3.64q0,36.66,0,73.31a8.28,8.28,0,0,1-8.44,8.34H27.45a8.12,8.12,0,0,1-8.19-6.22,8.57,8.57,0,0,1-.26-2.26v-73a8.12,8.12,0,0,1,6.19-8.21,9,9,0,0,1,2.48-.28Zm4.34,38.83c0-1.21,0-2.2,0-3.19a2.33,2.33,0,0,0-2.6-2.59c-3.19,0-6.39,0-9.58,0A2.34,2.34,0,0,0,53.52,57V98.78a2.32,2.32,0,0,0,2.63,2.62h9.37c2,0,2.85-.8,2.85-2.85,0-7,0-14,0-20.94A16.73,16.73,0,0,1,69.28,72c1.21-3.54,3.76-5.53,7.22-5.59a6.74,6.74,0,0,1,7.06,4.88,15.64,15.64,0,0,1,.81,5.29c0,7.42,0,14.85,0,22.27a2.26,2.26,0,0,0,2.5,2.51H97.06a2.27,2.27,0,0,0,2.49-2.53c0-3.78,0-7.57,0-11.35,0-5.34.17-10.67-.23-16a28.07,28.07,0,0,0-1.75-8.25,13.86,13.86,0,0,0-10.4-9.08,23.8,23.8,0,0,0-9.73,0,13.7,13.7,0,0,0-6.33,3A20.09,20.09,0,0,0,68.37,60.16ZM32,77.84v20.8a2.46,2.46,0,0,0,2.71,2.76h9.44a2.41,2.41,0,0,0,2.69-2.7V57.1a2.43,2.43,0,0,0-2.74-2.72c-3.07,0-6.14,0-9.22,0-2,0-2.88.9-2.88,2.88Zm-2.13-37a9.58,9.58,0,1,0,19.16,0,9.58,9.58,0,0,0-19.16,0Z"/><path class="cls-4" d="M68.37,60.16a20.09,20.09,0,0,1,2.74-3,13.7,13.7,0,0,1,6.33-3,23.8,23.8,0,0,1,9.73,0,13.86,13.86,0,0,1,10.4,9.08,28.07,28.07,0,0,1,1.75,8.25c.4,5.33.19,10.66.23,16,0,3.78,0,7.57,0,11.35a2.27,2.27,0,0,1-2.49,2.53H86.88a2.26,2.26,0,0,1-2.5-2.51c0-7.42,0-14.85,0-22.27a15.64,15.64,0,0,0-.81-5.29,6.74,6.74,0,0,0-7.06-4.88c-3.46.06-6,2-7.22,5.59a16.73,16.73,0,0,0-.92,5.57c0,7,0,14,0,20.94,0,2-.8,2.85-2.85,2.85H56.15a2.32,2.32,0,0,1-2.63-2.62V57a2.34,2.34,0,0,1,2.67-2.66c3.19,0,6.39,0,9.58,0A2.33,2.33,0,0,1,68.37,57C68.38,58,68.37,59,68.37,60.16Z"/><path class="cls-4" d="M32,77.84V57.26c0-2,.9-2.88,2.88-2.88,3.08,0,6.15,0,9.22,0a2.43,2.43,0,0,1,2.74,2.72V98.7a2.41,2.41,0,0,1-2.69,2.7H34.72A2.46,2.46,0,0,1,32,98.64Z"/><path class="cls-4" d="M29.88,40.82a9.58,9.58,0,1,1,9.54,9.57A9.57,9.57,0,0,1,29.88,40.82Z"/></g></g></svg>