<svg xmlns="http://www.w3.org/2000/svg" viewBox="0 0 128 129.36"><defs><style>.cls-1{fill:#e6e6e6;}.cls-2{fill:#90caf9;}.cls-3{fill:#b3b3b3;}.cls-4{fill:#f2f2f2;}</style></defs><g id="Capa_2" data-name="Capa 2"><g id="Capa_16" data-name="Capa 16"><polygon class="cls-1" points="4.57 102.86 4.57 4.57 101.84 4.57 101.84 0 0 0 0 102.86 4.57 102.86"/><polygon class="cls-1" points="123.43 26.5 123.43 124.8 26.28 124.8 26.28 129.36 128 129.36 128 26.5 123.43 26.5"/><polygon class="cls-2" points="101.84 9.3 118.81 9.3 118.81 26.5 123.38 26.5 123.38 4.74 101.84 4.74 101.84 9.3"/><polygon class="cls-2" points="26.28 120.06 9.31 120.06 9.31 102.86 4.75 102.86 4.75 124.62 26.28 124.62 26.28 120.06"/><polygon class="cls-2" points="31.08 13.88 14.12 13.88 14.12 31.08 9.55 31.08 9.55 9.32 31.08 9.32 31.08 13.88"/><polygon class="cls-2" points="97.4 115.63 114.36 115.63 114.36 98.44 118.93 98.44 118.93 120.2 97.4 120.2 97.4 115.63"/><path class="cls-3" d="M109,63.52a45,45,0,1,1-44.51-45.1A45.1,45.1,0,0,1,109,63.52ZM41.87,73.89a75.52,75.52,0,0,0,.44,9.31c.11,1.07.37,1.69,1.69,1.86a69.37,69.37,0,0,0,15.71.18c7.13-.75,13.95-2.55,20.05-6.47,8.4-5.38,12.78-12.77,11.37-23-2-14.3-17.59-23.52-31-18.27-5.91,2.31-9.76,6.83-12.7,12.21C43.2,57.44,41.87,65.87,41.87,73.89Z"/><path class="cls-4" d="M41.87,73.89c0-8,1.33-16.45,5.56-24.19,2.94-5.38,6.79-9.9,12.7-12.21,13.41-5.25,29,4,31,18.27,1.41,10.24-3,17.63-11.37,23-6.1,3.92-12.92,5.72-20.05,6.47A69.37,69.37,0,0,1,44,85.06c-1.32-.17-1.58-.79-1.69-1.86A75.52,75.52,0,0,1,41.87,73.89Zm40.86-15.6c-2.84-1.39-5.29-2.65-7.8-3.78a4,4,0,0,1-2.08-2.14c-1.15-2.47-2.38-4.91-3.72-7.66-1.37,2.79-2.62,5.19-3.74,7.64a4.13,4.13,0,0,1-2.23,2.23c-2.48,1.14-4.91,2.38-7.64,3.71C58.33,59.66,60.8,60.9,63.3,62a3.81,3.81,0,0,1,2,2c1.17,2.53,2.45,5,3.84,7.8,1.36-2.78,2.57-5.19,3.71-7.64a4,4,0,0,1,2.09-2.14C77.45,60.92,79.91,59.66,82.73,58.29Z"/><path class="cls-3" d="M82.73,58.29c-2.82,1.37-5.28,2.63-7.79,3.76a4,4,0,0,0-2.09,2.14c-1.14,2.45-2.35,4.86-3.71,7.64C67.75,69,66.47,66.56,65.3,64a3.81,3.81,0,0,0-2-2c-2.5-1.14-5-2.38-7.78-3.75,2.73-1.33,5.16-2.57,7.64-3.71a4.13,4.13,0,0,0,2.23-2.23c1.12-2.45,2.37-4.85,3.74-7.64,1.34,2.75,2.57,5.19,3.72,7.66a4,4,0,0,0,2.08,2.14C77.44,55.64,79.89,56.9,82.73,58.29Z"/></g></g></svg>