<svg xmlns="http://www.w3.org/2000/svg" viewBox="0 0 128 129.36"><defs><style>.cls-1{fill:#70b2bd;}.cls-2{fill:#82bbc4;}.cls-3{fill:#e1e3e0;}.cls-4{fill:#325057;}.cls-5{fill:#639fa9;}.cls-6{fill:#e6e6e6;}.cls-7{fill:#90caf9;}</style></defs><g id="Capa_2" data-name="Capa 2"><g id="Capa_16" data-name="Capa 16"><path class="cls-1" d="M90.69,43.61a8.86,8.86,0,0,1,3.47,9.66c-.09.31-.27.63-.12,1a25.65,25.65,0,0,1-3.14,3.85C84.15,63.71,77.45,69.39,70.7,75a13.71,13.71,0,0,1-17.63-.07c-3-2.53-6.1-5-9.13-7.58s-6.1-4.9-9-7.56a6,6,0,0,0,.78-.64,52.5,52.5,0,0,1,12-10.22,51.24,51.24,0,0,1,24.38-7.59,49.32,49.32,0,0,1,16.2,1.83C89.07,43.39,89.82,43.9,90.69,43.61Z"/><path class="cls-2" d="M90.69,43.61c-.87.29-1.62-.22-2.4-.44a49.32,49.32,0,0,0-16.2-1.83,51.24,51.24,0,0,0-24.38,7.59,52.5,52.5,0,0,0-12,10.22,6,6,0,0,1-.78.64,15.63,15.63,0,0,1-5.37-5.73,10.82,10.82,0,0,1-.38-4.83,9.09,9.09,0,0,1,3.21-5.37C39.34,38,46.24,32.19,53.21,26.44c4.5-3.71,11.71-4,16.24-.39C76.64,31.77,83.62,37.75,90.69,43.61Z"/><path class="cls-3" d="M29.6,54.06A15.63,15.63,0,0,0,35,59.79c2.87,2.66,6,5,9,7.56S50,72.4,53.07,74.93A13.71,13.71,0,0,0,70.7,75c6.75-5.61,13.45-11.29,20.2-16.91A25.65,25.65,0,0,0,94,54.24a8.86,8.86,0,0,1,0,5.46,11.13,11.13,0,0,1-3.4,4.62Q80.66,72.65,70.72,81a13.73,13.73,0,0,1-17.54,0C46.78,75.73,40.39,70.4,34,65.12A14.59,14.59,0,0,1,29.57,60,9.16,9.16,0,0,1,29.6,54.06Z"/><path class="cls-4" d="M29.57,60A14.59,14.59,0,0,0,34,65.12C40.39,70.4,46.78,75.73,53.18,81a13.73,13.73,0,0,0,17.54,0q10-8.34,19.92-16.69A11.13,11.13,0,0,0,94,59.7a8.62,8.62,0,0,1-2.93,9.63C84.25,75.21,77.3,81,70.35,86.77a13.64,13.64,0,0,1-16.72.07Q43,78.16,32.49,69.33a8.81,8.81,0,0,1-3.37-7.73A2.82,2.82,0,0,1,29.57,60Z"/><path class="cls-5" d="M29.39,102.56a5.94,5.94,0,0,1-5.89,6,6,6,0,0,1-6-5.93,5.94,5.94,0,0,1,5.86-5.89A5.86,5.86,0,0,1,29.39,102.56Zm-9,0a3.13,3.13,0,0,0,6.26.13,3.13,3.13,0,1,0-6.26-.13Z"/><path class="cls-5" d="M33.19,108.11c0,.91,0,1.77,0,2.63,0,.64-.19.85-.84.86-1.64,0-1.64.06-1.64-1.61,0-2.7,0-5.4,0-8.1,0-.74.19-1,.95-1a13.28,13.28,0,0,0,3.27-.07,3.25,3.25,0,0,1,3.69,1.68,4,4,0,0,1-.1,4.33,3.54,3.54,0,0,1-3.76,1.55C34.27,108.35,33.79,108.23,33.19,108.11Zm1.59-1.91a1.53,1.53,0,0,0,0-3,1.59,1.59,0,0,0-1.53,1.55A1.56,1.56,0,0,0,34.78,106.2Z"/><path class="cls-5" d="M74.24,104.58c0,1,0,2,0,3.07,0,.55-.19.72-.73.71a28.51,28.51,0,0,0-3.8.13,3.54,3.54,0,0,1-3.88-3.67,3.63,3.63,0,0,1,3.71-4c1.13,0,2.23.36,3.39,0s1.44.28,1.32,1.34A23.79,23.79,0,0,0,74.24,104.58Zm-2.6,0a1.5,1.5,0,0,0-1.52-1.5,1.5,1.5,0,1,0,0,3A1.47,1.47,0,0,0,71.64,104.6Z"/><path class="cls-5" d="M49.19,104.58c0-1,0-2,0-3,0-.6.21-.87.79-.75s1.49-.39,2.1.37c.16.2.48-.12.72-.21,2.73-1,4.49.23,4.5,3.14,0,1.09,0,2.2,0,3.29,0,.68-.17.93-.89.91-2.4-.08-1.89.27-1.94-1.89,0-.79,0-1.59,0-2.39s-.22-1.37-1.12-1.39A1.25,1.25,0,0,0,52,104.13c0,1.09,0,2.2,0,3.29,0,.75-.21,1-.95,1-1.84,0-1.84,0-1.84-1.86Z"/><path class="cls-5" d="M76.51,111.58c.72-1.32,1.31-2.46,2-3.56a1.23,1.23,0,0,0,0-1.45c-1-1.79-2-3.62-3.15-5.63.88,0,1.59,0,2.29,0,.48,0,.65.3.84.64.56,1,1.13,2.05,1.79,3.23.62-1.11,1.16-2.08,1.71-3a3,3,0,0,1,2.88-.78c.31.19.14.38,0,.57q-2.68,4.83-5.36,9.66a.76.76,0,0,1-.75.39Z"/><path class="cls-5" d="M91.1,105.2c-.69,0-1.37,0-2,0s-.63.41-.35.77a1.46,1.46,0,0,0,2,.34,2.66,2.66,0,0,1,1.61-.35c.37,0,.87-.2,1.06.16s-.2.77-.45,1.09a4.41,4.41,0,0,1-4.89,1.07,4,4,0,1,1,5.81-4c.07.72-.15,1-.85.91S91.74,105.2,91.1,105.2Zm-1.27-1.58c.27-.32,1,.31,1-.38,0-.51-.63-.69-1.15-.68s-1.16.21-1.09.75S89.38,103.43,89.83,103.62Z"/><path class="cls-5" d="M45.32,105.2H43.38c-.21,0-.49-.08-.59.2a.67.67,0,0,0,.23.71,1.5,1.5,0,0,0,1.9.2,3,3,0,0,1,1.84-.36c.32,0,.81-.17.92.2s-.21.63-.4.9a4.3,4.3,0,0,1-4.83,1.28A3.79,3.79,0,0,1,40,104.4a3.87,3.87,0,0,1,3.23-3.61c2.65-.44,4.68,1,4.87,3.48,0,.66-.06,1-.82.94S46,105.2,45.32,105.2Zm0-1.64c-.58-1-1.24-1.15-2-.85a.65.65,0,0,0-.48.58c0,.43.4.25.62.26C44,103.58,44.55,103.56,45.32,103.56Z"/><path class="cls-5" d="M61.52,108.35c-.75-.08-2,.41-2.56-.17s-.17-1.8-.18-2.73c0-2.54,0-5.08,0-7.62,0-.79.22-1.11,1-1a3.86,3.86,0,0,0,.9,0c.72-.09.9.23.89.91,0,2.31,0,4.62,0,6.93,0,1,.32,1.37,1.28,1.21a1.93,1.93,0,0,1,.34,0c1.47,0,1.92.64,1.53,2.08-.12.44-.41.39-.7.39C63.22,108.36,62.46,108.35,61.52,108.35Z"/><path class="cls-5" d="M104.89,100.76a5,5,0,0,1,1.24.15c.4.15,1.26,0,.9.91-.21.53-.26,1.4-1.25.84a1,1,0,0,0-.55-.08c-.3,0-.68,0-.77.34s.32.45.58.54.75.18,1.09.33a2.24,2.24,0,0,1,1.4,2,2.3,2.3,0,0,1-1.1,2.12,5.22,5.22,0,0,1-4.9-.14c-.39-.27-.4-.54-.12-.81s.2-1.13,1-.77a3.66,3.66,0,0,0,1.73.48.59.59,0,0,0,.61-.42c.08-.33-.19-.48-.43-.58a5.17,5.17,0,0,0-.88-.23c-1-.23-1.76-.73-1.85-1.86a2.42,2.42,0,0,1,1.45-2.48A3.94,3.94,0,0,1,104.89,100.76Z"/><path class="cls-5" d="M95,104.7c0-1.06,0-2.12,0-3.18,0-.49.17-.73.66-.65.72.12,1.44-.19,2.19.22.32.18,1-.27,1.47-.35s1-.15,1.25.29a2.58,2.58,0,0,1,0,1.67c-.07.34-.43.18-.68.19-1.6,0-2.14.61-2.15,2.24v1.37c0,2-.3,2.18-2.29,1.87-.52-.08-.48-.37-.48-.71C95,106.68,95,105.69,95,104.7Z"/><polygon class="cls-6" points="4.57 102.86 4.57 4.57 101.84 4.57 101.84 0 0 0 0 102.86 4.57 102.86"/><polygon class="cls-6" points="123.43 26.5 123.43 124.8 26.28 124.8 26.28 129.36 128 129.36 128 26.5 123.43 26.5"/><polygon class="cls-7" points="101.84 9.3 118.81 9.3 118.81 26.5 123.38 26.5 123.38 4.74 101.84 4.74 101.84 9.3"/><polygon class="cls-7" points="26.28 120.06 9.31 120.06 9.31 102.86 4.75 102.86 4.75 124.62 26.28 124.62 26.28 120.06"/><polygon class="cls-7" points="31.08 13.88 14.12 13.88 14.12 31.08 9.55 31.08 9.55 9.32 31.08 9.32 31.08 13.88"/><polygon class="cls-7" points="97.4 115.63 114.36 115.63 114.36 98.44 118.93 98.44 118.93 120.2 97.4 120.2 97.4 115.63"/></g></g></svg>