<svg xmlns="http://www.w3.org/2000/svg" viewBox="0 0 128 129.36"><defs><style>.cls-1{fill:#fe6c37;}.cls-2{fill:#fefaf8;}.cls-3{fill:#fefdfd;}.cls-4{fill:#e6e6e6;}.cls-5{fill:#90caf9;}</style></defs><g id="Capa_2" data-name="Capa 2"><g id="Capa_16" data-name="Capa 16"><circle class="cls-1" cx="64.42" cy="65.67" r="45"/><path class="cls-2" d="M45.83,90.68c-.28-1.5-1.63-2.14-2.56-3.1s-1-1.44,0-2.4c4.1-4,8.06-8.11,12.17-12.08,2.1-2,5-1.86,7.66-2.12.89-.1,2.11,1.65,2.94,2.74.45.61-.52,1-.93,1.29A84.32,84.32,0,0,1,49,85.25c-1.73.86-2.39,1.7-1.75,3.64s.51,2.06-1.45,1.76Z"/><path class="cls-3" d="M79.08,49A6.71,6.71,0,0,0,76,51.16c-4.68,4.7-9.39,9.37-14,14.1-1.22,1.24-2.19,2-3.15-.19a3,3,0,0,0-1-1c-.71-.56-.82-1-.09-1.72,4.33-4.2,8.59-8.48,13.49-12a15.64,15.64,0,0,1,3.45-2A4,4,0,0,1,79.08,49Z"/><path class="cls-3" d="M63.1,69.68c-.54-.7-1.05-1.31-1.5-2s.29-1,.64-1.41q7.51-7.56,15.05-15.07c1.53-1.52,2.89-1.64,3.91-.34s.45,2.56-.73,3.6q-8.1,7.06-16.16,14.17Z"/><path class="cls-2" d="M85.37,37.54a10.09,10.09,0,0,1,1.37.08c1,.23,2.38.43,2.77,1.35S88.48,40.3,88,41c0,.05-.1.09-.14.14-1.33,1.39-3.49,2.64-3.76,4.21s2.27,2.64,3.43,4.06c.24.3.72.56.56,1s-.86.56-1.35.62a6.79,6.79,0,0,1-7.24-9.66A6.55,6.55,0,0,1,85.37,37.54Z"/><path class="cls-2" d="M81.64,54.66c.12,1.72-.74,2.92-1.47,4.12a50.54,50.54,0,0,1-7.46,9c-1.35,1.38-2.83,2.63-4.09,4.08s-1.9,1.2-3.1,0-1.43-1.89,0-3.14C71,64.16,76.2,59.44,81.64,54.66Z"/><path class="cls-2" d="M92.5,44.5c-.17.68-.32,1.54-.6,2.34a4.37,4.37,0,0,1-2.13,2.76c-1.29.51-1.68-1.05-2.38-1.71-2.53-2.36-2.48-2.41,0-4.91a19.07,19.07,0,0,0,1.95-2c1.18-1.6,1.8-.9,2.4.45A10.92,10.92,0,0,1,92.5,44.5Zm-1.5.22c-.08-.58-.07-1.59-.67-1.4-1.14.38.11,1.75-.64,2.49-.16.16,0,.59.33.55C91,46.21,90.89,45.38,91,44.72Z"/><path class="cls-2" d="M45.8,90.65c0,.71-.46.77-1.06.73-1.83-.11-3.65-.65-5.49,0a.73.73,0,0,1-.88-.3A.81.81,0,0,1,38.5,90c.85-.84,1.7-1.67,2.53-2.54.62-.66.87,0,1.24.3,1.23.93,1.87,2.56,3.56,2.93Z"/><path class="cls-2" d="M60,67,52.15,68.7l-.34-.41c1.39-1.38,2.78-2.77,4.19-4.14.34-.34.58,0,.82.23C57.73,65.14,58.65,65.89,60,67Z"/><path class="cls-2" d="M62,69.85a10.75,10.75,0,0,1-3.8.79C60.16,67.71,60.32,67.68,62,69.85Z"/><polygon class="cls-4" points="4.57 102.86 4.57 4.57 101.84 4.57 101.84 0 0 0 0 102.86 4.57 102.86"/><polygon class="cls-4" points="123.43 26.5 123.43 124.8 26.28 124.8 26.28 129.36 128 129.36 128 26.5 123.43 26.5"/><polygon class="cls-5" points="101.84 9.3 118.81 9.3 118.81 26.5 123.38 26.5 123.38 4.74 101.84 4.74 101.84 9.3"/><polygon class="cls-5" points="26.28 120.06 9.31 120.06 9.31 102.86 4.75 102.86 4.75 124.62 26.28 124.62 26.28 120.06"/><polygon class="cls-5" points="31.08 13.88 14.12 13.88 14.12 31.08 9.55 31.08 9.55 9.32 31.08 9.32 31.08 13.88"/><polygon class="cls-5" points="97.4 115.63 114.36 115.63 114.36 98.44 118.93 98.44 118.93 120.2 97.4 120.2 97.4 115.63"/></g></g></svg>