<svg xmlns="http://www.w3.org/2000/svg" viewBox="0 0 128 129.36"><defs><style>.cls-1{fill:#40a140;}.cls-2{fill:#888961;}.cls-3{fill:#888861;}.cls-4{fill:#22822d;}.cls-5{fill:#41a142;}.cls-6{fill:#ababab;}.cls-7{fill:#41a141;}.cls-8{fill:#90926a;}.cls-9{fill:#1b6825;}.cls-10{fill:#1e7928;}.cls-11{fill:#c2f8f3;}.cls-12{fill:#8ad4a5;}.cls-13{fill:#6cc079;}.cls-14{fill:#ceedd9;}.cls-15{fill:#c1e4c6;}.cls-16{fill:#e6e6e6;}.cls-17{fill:#90caf9;}</style></defs><g id="Capa_2" data-name="Capa 2"><g id="Capa_16" data-name="Capa 16"><path class="cls-1" d="M40.34,57.43c.69-2.09,1.2-4.24,2-6.28,3-7,7.41-13.06,12.43-18.73,2.7-3,5.58-5.9,8.55-8.67.4-.38.68-.66,1.25-.17C74,31.69,81.73,41,86.22,52.72a21.7,21.7,0,0,1,1.26,4.54,1.12,1.12,0,0,0-.1.42,29.35,29.35,0,0,1,.45,7.78c-.14,1.08-.69,2.26-.07,3.4a7.51,7.51,0,0,0-.57,2,28.72,28.72,0,0,1-9,14.8,2.46,2.46,0,0,0-1.23.65,20.82,20.82,0,0,1-25.89,0c-.48-.36-.88-.93-1.58-1a29.81,29.81,0,0,1-8.78-15.5c-.06-.23-.07-.46-.11-.7a11.21,11.21,0,0,0-.14-1.73,31.48,31.48,0,0,1-.15-7.7C40.44,59,40.9,58.19,40.34,57.43ZM64.42,71C70,71.35,75,66.4,75,60.59a10.5,10.5,0,0,0-21,0A10.27,10.27,0,0,0,64.42,71ZM65,78.33c0-.7,0-1.41,0-2.11s-.13-1-.9-1-1,.24-1,1c0,1.41,0,2.82,0,4.23,0,.81.39,1,1.1,1s.83-.38.81-1S65,79,65,78.33Zm1.42-.19c0,.55,0,1.1,0,1.65s-.28,1.19.59,1.07c.58-.08,1.38,0,1.31-1.09s0-2.26,0-3.4c0-.61.08-1.17-.86-1.15s-1.08.4-1,1.16C66.48,77,66.45,77.56,66.45,78.14Zm-4.73,0c0-.67,0-1.34,0-2s-.16-.88-.8-.85-1.08,0-1.09.74c0,1.34,0,2.67,0,4,0,.82.78.81,1.31.89.69.11.55-.5.56-.9C61.74,79.34,61.72,78.72,61.72,78.09Zm8-.86a3.37,3.37,0,0,0,0,.71c.12.43-.37,1.22.42,1.23a1.13,1.13,0,0,0,1.25-1.35,10.46,10.46,0,0,1,0-1.77c0-.63-.24-.82-.84-.82s-.89.19-.84.82A11.61,11.61,0,0,1,69.75,77.23Zm-11.34,0c0-.35,0-.71,0-1.06,0-.56,0-1-.78-1s-.93.35-.89,1,0,1.26,0,1.89a1.21,1.21,0,0,0,1.28,1c.65,0,.27-.65.35-1A3.83,3.83,0,0,0,58.41,77.28Z"/><path class="cls-2" d="M89.1,86.29a23.73,23.73,0,0,0,2.33-7,5.79,5.79,0,0,0,0-4.35A26,26,0,0,0,89.15,68c1.36-2,2.32-4,1.68-6.53a20.9,20.9,0,0,1,6,12.86,22.79,22.79,0,0,1-3,14.62c-.21.36-.34.81-.8,1C92.67,87.58,91.59,86.56,89.1,86.29Z"/><path class="cls-3" d="M35.64,63.27l.47-.6c.35,0,.53-.14.47-.51h0l.3.06a8.58,8.58,0,0,0,.65,3.8c.33.77,1,1.29,1.27,2.09a22.92,22.92,0,0,0-2.18,7.2,19.59,19.59,0,0,0,2.25,11,3.9,3.9,0,0,0-4,3.15l-.48-.15h0L34.23,89h0a2.14,2.14,0,0,0-.39-1.32A23.39,23.39,0,0,1,33,68.44c.34-.91,1.08-1.67,1-2.73l.12-.21c.58-.07.63-.47.6-.94h0c.51,0,.5-.35.49-.71h0C35.59,63.85,35.69,63.61,35.64,63.27Z"/><path class="cls-4" d="M49.52,85.38c.7,0,1.1.59,1.58,1a20.82,20.82,0,0,0,25.89,0,2.46,2.46,0,0,1,1.23-.65c-.82,2.69-2.76,4.52-4.87,6.2-.71.56-1.48,1-2.21,1.55a16.64,16.64,0,0,1-8,1.94,20,20,0,0,1-6.38-1.89,25.36,25.36,0,0,1-4.52-3.6A9.54,9.54,0,0,1,49.52,85.38Z"/><path class="cls-5" d="M92.27,92.26a7,7,0,0,1-5.76,8.24,2.2,2.2,0,0,1-2.82-1.8c-.25-1.26.39-2.11,1.89-2.5.23-.06.47-.07.7-.14a2.5,2.5,0,0,0,1.92-2,2.43,2.43,0,0,0-1-2.6,2.51,2.51,0,0,0-2.89-.13c-.27.16-.5.39-.76.56a2.33,2.33,0,0,1-3.19-.32,2.28,2.28,0,0,1,.52-3.16,7,7,0,0,1,6.41-1.52c.74.71,1.75,1,2.54,1.63C91.05,89.52,91.51,91,92.27,92.26Z"/><path class="cls-6" d="M64.13,113.32c-5.61-.31-11-.08-16.36-.92a11.33,11.33,0,0,1-1.16-.23c-.36-.09-.93-.07-.9-.55s.6-.45.95-.53a40.92,40.92,0,0,1,6.79-.76c5.19-.3,10.39-.44,15.58-.23a79.63,79.63,0,0,1,11.75.9c.54.1,1.45,0,1.43.69s-.95.55-1.48.64a62.89,62.89,0,0,1-7.75.72C70,113.21,66.92,113.09,64.13,113.32Z"/><path class="cls-7" d="M40.21,91.92c0,.06,0,.1-.07.12a2,2,0,0,0,0,3.08l.46.48c.24.73.89.84,1.49.92a2.54,2.54,0,0,1,1.37.62c.87.77.28,1.69.29,2.55v0c-.17,0-.25.1-.23.27l-.08,0,.08,0c-.17,0-.25.06-.27.23h0c-.34-.07-.68-.15-.77.35l-.72,0a6.73,6.73,0,0,0-2.91-1l.06,0,0,.06c0-.46-.3-.58-.71-.51h0c0-.16-.1-.24-.27-.22l.07-.07-.07.07c0-.17-.07-.25-.24-.23,0-.18-.06-.26-.24-.23h0a.21.21,0,0,0-.22-.27l.06,0-.06,0c.08-.41,0-.7-.51-.68l.06,0-.06,0a10.13,10.13,0,0,0-1.06-3.17V93c.26-.18.21-.45.22-.7a6.43,6.43,0,0,1,4.49-5,11,11,0,0,1,2.92-.24c1.16,0,2.1.82,3.23,1h0c0,.48.27.73.77.65l-.05.06.05-.07a2.17,2.17,0,0,0,.14.68,1.67,1.67,0,0,1-.19,2.07,1.9,1.9,0,0,1-2,.55l-.8-.16-.26-.2a2,2,0,0,0-3.3-.3c0,.06-.06.08-.11.06l-.34.27,0,0Z"/><path class="cls-8" d="M56.72,93.48a20,20,0,0,0,6.38,1.89,16.64,16.64,0,0,0,8-1.94,6.77,6.77,0,0,1-5,5.66c-.39-.26-.74-.36-.92.23l-.48.05a1.38,1.38,0,0,0-1.66,0l-.47,0c-.19-.62-.54-.51-.94-.22A6.71,6.71,0,0,1,56.72,93.48Z"/><path class="cls-4" d="M38.79,68.11c-.25-.8-.94-1.32-1.27-2.09a8.58,8.58,0,0,1-.65-3.8.54.54,0,0,0,.16-.56,6.77,6.77,0,0,1,3.31-4.23c.56.76.1,1.59,0,2.32a31.48,31.48,0,0,0,.15,7.7,11.21,11.21,0,0,1,.14,1.73C39.94,69,39.53,68.25,38.79,68.11Z"/><path class="cls-4" d="M90.83,61.51c.64,2.49-.32,4.56-1.68,6.53-.58.08-.85.68-1.39.82-.62-1.14-.07-2.32.07-3.4a29.35,29.35,0,0,0-.45-7.78,1.12,1.12,0,0,1,.1-.42A7.7,7.7,0,0,1,90.83,61.51Z"/><path class="cls-4" d="M40.41,87.31a6.43,6.43,0,0,0-4.49,5h-.26a3.45,3.45,0,0,1-.8-2.28c0-.2,0-.39,0-.59a3.9,3.9,0,0,1,4-3.15,4.55,4.55,0,0,1,1.78.61Z"/><path class="cls-4" d="M92.27,92.26c-.76-1.29-1.22-2.74-2.45-3.76-.79-.66-1.8-.92-2.54-1.63a4,4,0,0,1,1.82-.58c2.49.27,3.57,1.29,3.93,3.67A3.54,3.54,0,0,1,92.27,92.26Z"/><path class="cls-2" d="M34,65.71c.08,1.06-.66,1.82-1,2.73a23.39,23.39,0,0,0,.85,19.23A2.14,2.14,0,0,1,34.24,89a20.2,20.2,0,0,1-3.17-9.65A22,22,0,0,1,34,65.71Z"/><path class="cls-5" d="M40.41,87.31l.23-.43A6.78,6.78,0,0,1,46.56,88c-1.13-.13-2.07-.93-3.23-1A11,11,0,0,0,40.41,87.31Z"/><path class="cls-5" d="M43.8,99.69c0-.86.58-1.78-.29-2.55a2.54,2.54,0,0,0-1.37-.62c-.6-.08-1.25-.19-1.49-.92a7,7,0,0,0,2,.67C44.43,96.82,44.85,98.1,43.8,99.69Z"/><path class="cls-5" d="M44.45,91.8l.8.16a1.9,1.9,0,0,0,2-.55,1.67,1.67,0,0,0,.19-2.07,2.17,2.17,0,0,1-.14-.68,2.24,2.24,0,0,1,.19,3A2.35,2.35,0,0,1,44.45,91.8Z"/><path class="cls-5" d="M40.89,91.3a2,2,0,0,1,3.3.3A3,3,0,0,0,40.89,91.3Z"/><path class="cls-5" d="M40.19,95.12a2,2,0,0,1,0-3.08A2.94,2.94,0,0,0,40.19,95.12Z"/><path class="cls-5" d="M35.69,94.17a10.13,10.13,0,0,1,1.06,3.17A5,5,0,0,1,35.69,94.17Z"/><path class="cls-5" d="M38.92,99.47a6.73,6.73,0,0,1,2.91,1A5,5,0,0,1,38.92,99.47Z"/><path class="cls-3" d="M91.42,75a5.79,5.79,0,0,1,0,4.35C91.42,77.86,91.42,76.41,91.42,75Z"/><path class="cls-3" d="M63.13,99.38a1.38,1.38,0,0,1,1.66,0A2.84,2.84,0,0,1,63.13,99.38Z"/><path class="cls-5" d="M47.34,88.67c-.5.08-.73-.17-.77-.65A1.45,1.45,0,0,1,47.34,88.67Z"/><path class="cls-3" d="M61.72,99.12c.4-.29.75-.4.94.22A1.72,1.72,0,0,1,61.72,99.12Z"/><path class="cls-2" d="M34.72,64.56c0,.47,0,.87-.6.94A2,2,0,0,1,34.72,64.56Z"/><path class="cls-3" d="M65.27,99.32c.18-.59.53-.49.92-.23Z"/><path class="cls-5" d="M42.55,100.51c.09-.5.43-.42.77-.35A.84.84,0,0,1,42.55,100.51Z"/><path class="cls-2" d="M34.9,89.42c0,.2,0,.39,0,.59a1.26,1.26,0,0,1-.44-.74Z"/><path class="cls-2" d="M35.2,63.86c0,.36,0,.71-.49.71A1.23,1.23,0,0,1,35.2,63.86Z"/><path class="cls-5" d="M36.75,97.35c.5,0,.59.27.51.68A1.21,1.21,0,0,1,36.75,97.35Z"/><path class="cls-5" d="M38.22,99c.41-.07.68,0,.71.51A1.12,1.12,0,0,1,38.22,99Z"/><path class="cls-2" d="M37,61.66a.54.54,0,0,1-.16.56l-.3-.06A.76.76,0,0,1,37,61.66Z"/><path class="cls-2" d="M36.58,62.16c.06.37-.12.52-.47.51A.85.85,0,0,1,36.58,62.16Z"/><path class="cls-2" d="M35.64,63.27c0,.34,0,.58-.45.59A1,1,0,0,1,35.64,63.27Z"/><path class="cls-5" d="M35.66,92.29h.26c0,.25,0,.52-.22.7Z"/><path class="cls-2" d="M34.23,89l.22.29Z"/><path class="cls-5" d="M40.44,91.63l.34-.27Z"/><path class="cls-5" d="M40.21,91.92l.26-.32Z"/><path class="cls-5" d="M37.26,98a.21.21,0,0,1,.22.27Z"/><path class="cls-5" d="M37.48,98.3c.18,0,.26,0,.24.23Z"/><path class="cls-5" d="M37.72,98.53c.17,0,.25.06.24.23Z"/><path class="cls-5" d="M38,98.76c.17,0,.25.06.27.22Z"/><path class="cls-5" d="M43.58,99.94c0-.17.06-.25.23-.27Z"/><path class="cls-5" d="M43.31,100.17c0-.17.1-.25.27-.23Z"/><path class="cls-9" d="M64.42,71A10.27,10.27,0,0,1,54,60.64a10.5,10.5,0,0,1,21,0C75,66.4,70,71.35,64.42,71Zm9-10.48a9,9,0,1,0-9,9A8.94,8.94,0,0,0,73.4,60.51Z"/><path class="cls-10" d="M65,78.33c0,.71,0,1.41,0,2.11s-.07,1-.81,1-1.11-.19-1.1-1c0-1.41,0-2.82,0-4.23,0-.72.33-.93,1-1s.94.33.9,1S65,77.63,65,78.33Z"/><path class="cls-10" d="M66.45,78.14c0-.58,0-1.17,0-1.76,0-.76.18-1.15,1-1.16s.87.54.86,1.15c0,1.14-.07,2.28,0,3.4s-.73,1-1.31,1.09c-.87.12-.56-.64-.59-1.07S66.45,78.69,66.45,78.14Z"/><path class="cls-10" d="M61.72,78.09c0,.63,0,1.25,0,1.88,0,.4.13,1-.56.9-.53-.08-1.29-.07-1.31-.89,0-1.34,0-2.67,0-4,0-.73.56-.71,1.09-.74s.82.27.8.85S61.72,77.42,61.72,78.09Z"/><path class="cls-10" d="M69.75,77.23a11.61,11.61,0,0,0,0-1.18c0-.63.24-.82.84-.82s.87.19.84.82a10.46,10.46,0,0,0,0,1.77,1.13,1.13,0,0,1-1.25,1.35c-.79,0-.3-.8-.42-1.23A3.37,3.37,0,0,1,69.75,77.23Z"/><path class="cls-10" d="M58.41,77.28a3.83,3.83,0,0,1,0,.83c-.08.36.3,1-.35,1a1.21,1.21,0,0,1-1.28-1c-.06-.63,0-1.26,0-1.89s.11-1,.89-1,.81.44.78,1C58.4,76.57,58.41,76.93,58.41,77.28Z"/><path class="cls-11" d="M73.4,60.51a9,9,0,1,1-8.94-8.95A9,9,0,0,1,73.4,60.51ZM57,60.61a7.46,7.46,0,0,0,7.59,7.54A7.59,7.59,0,1,0,64.46,53,7.47,7.47,0,0,0,57,60.61Z"/><path class="cls-12" d="M57,60.61A7.47,7.47,0,0,1,64.46,53a7.59,7.59,0,1,1,.09,15.17A7.46,7.46,0,0,1,57,60.61Zm6.89-3.36a1.7,1.7,0,0,0-1.64-1.9,2,2,0,0,0-2.44,1.48c-.35,1.06,0,1.87,1.23,2.55a1.7,1.7,0,0,1,0,.22v.71c0,2.06,1.79,3.92,3.58,3.79A3.56,3.56,0,0,0,67.89,60c-.09-1.54-2.09-3.38-3.84-2.76Z"/><path class="cls-13" d="M64.05,57.27c1.75-.62,3.75,1.22,3.84,2.76a3.56,3.56,0,0,1-3.3,4.07c-1.79.13-3.54-1.73-3.58-3.79V59.6C63.09,59.6,63.75,59.09,64.05,57.27Z"/><path class="cls-14" d="M61,59.38c-1.19-.68-1.58-1.49-1.23-2.55a2,2,0,0,1,2.44-1.48,1.7,1.7,0,0,1,1.64,1.9A2.56,2.56,0,0,0,62.2,58C61.69,58.41,61.68,59.19,61,59.38Z"/><path class="cls-15" d="M61,59.38c.68-.19.69-1,1.2-1.35a2.56,2.56,0,0,1,1.65-.78l.2,0c-.3,1.82-1,2.33-3,2.33A1.7,1.7,0,0,0,61,59.38Z"/><polygon class="cls-16" points="4.57 102.86 4.57 4.57 101.84 4.57 101.84 0 0 0 0 102.86 4.57 102.86"/><polygon class="cls-16" points="123.43 26.5 123.43 124.8 26.28 124.8 26.28 129.36 128 129.36 128 26.5 123.43 26.5"/><polygon class="cls-17" points="101.84 9.3 118.81 9.3 118.81 26.5 123.38 26.5 123.38 4.74 101.84 4.74 101.84 9.3"/><polygon class="cls-17" points="26.28 120.06 9.31 120.06 9.31 102.86 4.75 102.86 4.75 124.62 26.28 124.62 26.28 120.06"/><polygon class="cls-17" points="31.08 13.88 14.12 13.88 14.12 31.08 9.55 31.08 9.55 9.32 31.08 9.32 31.08 13.88"/><polygon class="cls-17" points="97.4 115.63 114.36 115.63 114.36 98.44 118.93 98.44 118.93 120.2 97.4 120.2 97.4 115.63"/></g></g></svg>