<svg xmlns="http://www.w3.org/2000/svg" viewBox="0 0 128 129.36"><defs><style>.cls-1{fill:#017acb;}.cls-2{fill:#fbfcfd;}.cls-3{fill:#fafcfd;}.cls-4{fill:#e6e6e6;}.cls-5{fill:#90caf9;}</style></defs><g id="Capa_2" data-name="Capa 2"><g id="Capa_16" data-name="Capa 16"><path class="cls-1" d="M64.35,109.25q-21.78,0-43.56,0c-1.1,0-1.48-.11-1.48-1.39q.09-43.57,0-87.14c0-1.1.1-1.48,1.39-1.47q43.56.07,87.12,0c1.1,0,1.47.11,1.47,1.39q-.07,43.58,0,87.14c0,1.41-.51,1.45-1.6,1.45Q86,109.23,64.35,109.25ZM88.86,60.34c-6.79-.2-11.58,2.72-12.84,7.93-1.36,5.65.11,10.36,5.79,13.73,1.54.91,3.2,1.62,4.8,2.41s3.36,1.58,5,2.45a3.72,3.72,0,0,1,2.06,4A3.84,3.84,0,0,1,90.76,94c-3.53,1.3-7.32,0-10-3.41-.72-.92-1.22-1.17-2.24-.5a36.9,36.9,0,0,1-4.13,2.39c-1.33.66-1.24,1.27-.46,2.41,3.9,5.7,11.64,8.39,19,6.47,4.74-1.24,8.26-3.88,9-9,.81-5.23-.78-9.59-5.49-12.51a59,59,0,0,0-6.92-3.5,29.32,29.32,0,0,1-4.05-2.11,3.6,3.6,0,0,1-1.38-4.42c.52-1.6,1.83-2.15,3.42-2.25a4.89,4.89,0,0,1,4.78,2.28c.67,1.06,1.28,1.1,2.23.4a35.57,35.57,0,0,1,3.82-2.53c1.33-.74,1.12-1.41.33-2.45C96,61.86,92.53,60.19,88.86,60.34ZM59,85.08c0-5.13,0-10.25,0-15.37,0-1.19.27-1.7,1.55-1.61,1.52.1,3.06,0,4.59,0,6,0,6,0,5.61-6-.07-1.06-.4-1.33-1.42-1.32q-14.37,0-28.74,0c-1.18,0-1.69.31-1.62,1.57a35.72,35.72,0,0,1,0,4.39c-.08,1.19.42,1.45,1.5,1.42,2.6-.06,5.2.13,7.78-.06,2-.16,2.54.48,2.51,2.49-.11,9.72,0,19.43-.07,29.15,0,1.25.26,1.8,1.64,1.71a40.7,40.7,0,0,1,5.18,0c1.28.09,1.56-.39,1.54-1.58C59,94.93,59,90,59,85.08Z"/><path class="cls-2" d="M88.86,60.34c3.67-.15,7.16,1.52,9.83,5,.79,1,1,1.71-.33,2.45a35.57,35.57,0,0,0-3.82,2.53c-1,.7-1.56.66-2.23-.4a4.89,4.89,0,0,0-4.78-2.28c-1.59.1-2.9.65-3.42,2.25a3.6,3.6,0,0,0,1.38,4.42,29.32,29.32,0,0,0,4.05,2.11,59,59,0,0,1,6.92,3.5c4.71,2.92,6.3,7.28,5.49,12.51-.79,5.08-4.31,7.72-9,9-7.33,1.92-15.07-.77-19-6.47-.78-1.14-.87-1.75.46-2.41a36.9,36.9,0,0,0,4.13-2.39c1-.67,1.52-.42,2.24.5,2.68,3.46,6.47,4.71,10,3.41a3.84,3.84,0,0,0,2.91-3.2,3.72,3.72,0,0,0-2.06-4c-1.64-.87-3.33-1.63-5-2.45s-3.26-1.5-4.8-2.41c-5.68-3.37-7.15-8.08-5.79-13.73C77.28,63.06,82.07,60.14,88.86,60.34Z"/><path class="cls-3" d="M59,85.08c0,4.92,0,9.85,0,14.77,0,1.19-.26,1.67-1.54,1.58a40.7,40.7,0,0,0-5.18,0c-1.38.09-1.65-.46-1.64-1.71,0-9.72,0-19.43.07-29.15,0-2-.46-2.65-2.51-2.49-2.58.19-5.18,0-7.78.06-1.08,0-1.58-.23-1.5-1.42a35.72,35.72,0,0,0,0-4.39c-.07-1.26.44-1.58,1.62-1.57q14.37.06,28.74,0c1,0,1.35.26,1.42,1.32.36,6,.4,6-5.61,6-1.53,0-3.07.08-4.59,0C59.28,68,59,68.52,59,69.71,59.06,74.83,59,80,59,85.08Z"/><polygon class="cls-4" points="4.57 102.86 4.57 4.57 101.84 4.57 101.84 0 0 0 0 102.86 4.57 102.86"/><polygon class="cls-4" points="123.43 26.5 123.43 124.8 26.28 124.8 26.28 129.36 128 129.36 128 26.5 123.43 26.5"/><polygon class="cls-5" points="101.84 9.3 118.81 9.3 118.81 26.5 123.38 26.5 123.38 4.74 101.84 4.74 101.84 9.3"/><polygon class="cls-5" points="26.28 120.06 9.31 120.06 9.31 102.86 4.75 102.86 4.75 124.62 26.28 124.62 26.28 120.06"/><polygon class="cls-5" points="31.08 13.88 14.12 13.88 14.12 31.08 9.55 31.08 9.55 9.32 31.08 9.32 31.08 13.88"/><polygon class="cls-5" points="97.4 115.63 114.36 115.63 114.36 98.44 118.93 98.44 118.93 120.2 97.4 120.2 97.4 115.63"/></g></g></svg>