<svg xmlns="http://www.w3.org/2000/svg" xmlns:xlink="http://www.w3.org/1999/xlink" viewBox="0 0 400 400"><defs><style>.cls-1{fill:none;}.cls-2{font-size:12.19px;font-family:Impact;}.cls-3{fill:url(#Degradado_sin_nombre_98);}.cls-4{fill:url(#Degradado_sin_nombre_96);}.cls-5{fill:url(#Degradado_sin_nombre_79);}.cls-6{fill:url(#Degradado_sin_nombre_76);}.cls-7{fill:url(#Degradado_sin_nombre_76-2);}.cls-8{fill:url(#Degradado_sin_nombre_79-2);}.cls-9{fill:red;}.cls-10{fill:url(#Nueva_muestra_de_degradado_5);}.cls-11{fill:url(#Nueva_muestra_de_degradado_4);}.cls-12{fill:#1a1a1a;}.cls-13{fill:url(#Nueva_muestra_de_degradado_5-2);}.cls-14{fill:#fff;}.cls-14,.cls-22{opacity:0.26;}.cls-15{fill:url(#Nueva_muestra_de_degradado_4-2);}.cls-16{fill:url(#Degradado_sin_nombre_169);}.cls-17{fill:url(#Degradado_sin_nombre_171);}.cls-18,.cls-22{fill:#0050b5;}.cls-19{fill:url(#Degradado_sin_nombre_94);}.cls-20{fill:url(#Degradado_sin_nombre_62);}.cls-21{fill:url(#Degradado_sin_nombre_77);}.cls-23{fill:url(#Degradado_sin_nombre_58);}.cls-24{fill:url(#Degradado_sin_nombre_82);}.cls-25{fill:url(#Degradado_sin_nombre_89);}.cls-26{fill:url(#Nueva_muestra_de_degradado_5-3);}.cls-27{fill:url(#Nueva_muestra_de_degradado_4-3);}.cls-28{fill:url(#Nueva_muestra_de_degradado_5-4);}.cls-29{fill:url(#Nueva_muestra_de_degradado_4-4);}.cls-30{fill:url(#Degradado_sin_nombre_169-2);}.cls-31{fill:url(#Degradado_sin_nombre_171-2);}</style><linearGradient id="Degradado_sin_nombre_98" x1="311.89" y1="342.51" x2="324.3" y2="349.68" gradientUnits="userSpaceOnUse"><stop offset="0" stop-color="#590f16"/><stop offset="0.65" stop-color="#ed1c24"/><stop offset="1" stop-color="#f15a24"/></linearGradient><linearGradient id="Degradado_sin_nombre_96" x1="310.67" y1="352.82" x2="319.3" y2="347.84" gradientUnits="userSpaceOnUse"><stop offset="0" stop-color="#f15a24"/><stop offset="0.38" stop-color="#ed1c24"/><stop offset="1" stop-color="#590f16"/></linearGradient><linearGradient id="Degradado_sin_nombre_79" x1="320.21" y1="330.41" x2="325.14" y2="325.48" gradientUnits="userSpaceOnUse"><stop offset="0" stop-color="#f15a24"/><stop offset="0.52" stop-color="#ed1c24"/><stop offset="1" stop-color="#590f16"/></linearGradient><linearGradient id="Degradado_sin_nombre_76" x1="319.31" y1="319.09" x2="331.52" y2="331.31" gradientUnits="userSpaceOnUse"><stop offset="0" stop-color="#590f16"/><stop offset="0.48" stop-color="#ed1c24"/><stop offset="1" stop-color="#f15a24"/></linearGradient><linearGradient id="Degradado_sin_nombre_76-2" x1="318.39" y1="329.09" x2="326.62" y2="337.32" xlink:href="#Degradado_sin_nombre_76"/><linearGradient id="Degradado_sin_nombre_79-2" x1="318.22" y1="337.49" x2="321.78" y2="333.93" xlink:href="#Degradado_sin_nombre_79"/><linearGradient id="Nueva_muestra_de_degradado_5" x1="223.21" y1="344.09" x2="251.31" y2="344.09" gradientUnits="userSpaceOnUse"><stop offset="0.01" stop-color="#01163f"/><stop offset="1" stop-color="#3fa9f5"/></linearGradient><linearGradient id="Nueva_muestra_de_degradado_4" x1="81.56" y1="322.31" x2="101.59" y2="348.88" gradientTransform="matrix(1, 0, -0.18, 1, 193.92, 0)" gradientUnits="userSpaceOnUse"><stop offset="0.01" stop-color="#29abe2"/><stop offset="1" stop-color="#002c60"/></linearGradient><linearGradient id="Nueva_muestra_de_degradado_5-2" x1="224.69" y1="344.07" x2="243.12" y2="344.07" xlink:href="#Nueva_muestra_de_degradado_5"/><linearGradient id="Nueva_muestra_de_degradado_4-2" x1="79.44" y1="311.85" x2="108.69" y2="350.67" xlink:href="#Nueva_muestra_de_degradado_4"/><linearGradient id="Degradado_sin_nombre_169" x1="221.3" y1="370.58" x2="213.23" y2="324.84" gradientUnits="userSpaceOnUse"><stop offset="0.01" stop-color="#29abe2"/><stop offset="0.12" stop-color="#2192c8"/><stop offset="0.3" stop-color="#156da3"/><stop offset="0.48" stop-color="#0c5186"/><stop offset="0.66" stop-color="#053c71"/><stop offset="0.83" stop-color="#013064"/><stop offset="1" stop-color="#002c60"/></linearGradient><linearGradient id="Degradado_sin_nombre_171" x1="212.89" y1="375.28" x2="206.06" y2="336.55" gradientUnits="userSpaceOnUse"><stop offset="0.01" stop-color="#29abe2"/><stop offset="0.07" stop-color="#26a1d8"/><stop offset="0.38" stop-color="#166fa4"/><stop offset="0.65" stop-color="#0a4a7f"/><stop offset="0.86" stop-color="#033468"/><stop offset="1" stop-color="#002c60"/></linearGradient><linearGradient id="Degradado_sin_nombre_94" x1="237.27" y1="327.32" x2="237.27" y2="360.86" gradientUnits="userSpaceOnUse"><stop offset="0" stop-color="#307fe2"/><stop offset="0.58" stop-color="#0050b5"/><stop offset="1" stop-color="#0e4174"/></linearGradient><linearGradient id="Degradado_sin_nombre_62" x1="207.03" y1="336.43" x2="243.7" y2="336.43" gradientUnits="userSpaceOnUse"><stop offset="0" stop-color="#307fe2"/><stop offset="0.51" stop-color="#0050b5"/><stop offset="1" stop-color="#0e4174"/></linearGradient><linearGradient id="Degradado_sin_nombre_77" x1="233.92" y1="335.67" x2="233.92" y2="352.47" gradientUnits="userSpaceOnUse"><stop offset="0" stop-color="#307fe2"/><stop offset="0.62" stop-color="#0050b5"/><stop offset="1" stop-color="#0e4174"/></linearGradient><linearGradient id="Degradado_sin_nombre_58" x1="203.65" y1="332.67" x2="252.18" y2="332.67" gradientUnits="userSpaceOnUse"><stop offset="0" stop-color="#307fe2"/><stop offset="0.53" stop-color="#0050b5"/><stop offset="1" stop-color="#0e4174"/></linearGradient><linearGradient id="Degradado_sin_nombre_82" x1="206.46" y1="365.67" x2="229.02" y2="343.11" gradientUnits="userSpaceOnUse"><stop offset="0" stop-color="#307fe2"/><stop offset="0.27" stop-color="#1464c8"/><stop offset="0.51" stop-color="#0050b5"/><stop offset="0.75" stop-color="#074997"/><stop offset="1" stop-color="#0e4174"/></linearGradient><linearGradient id="Degradado_sin_nombre_89" x1="196.43" y1="369.73" x2="221.84" y2="344.32" gradientUnits="userSpaceOnUse"><stop offset="0" stop-color="#307fe2"/><stop offset="0.15" stop-color="#2b7add"/><stop offset="0.33" stop-color="#1c6bcf"/><stop offset="0.53" stop-color="#0353b8"/><stop offset="0.55" stop-color="#0050b5"/><stop offset="0.72" stop-color="#064998"/><stop offset="0.89" stop-color="#0c437e"/><stop offset="1" stop-color="#0e4174"/></linearGradient><linearGradient id="Nueva_muestra_de_degradado_5-3" x1="213.87" y1="167.1" x2="391.86" y2="167.1" gradientTransform="translate(-43.52)" xlink:href="#Nueva_muestra_de_degradado_5"/><linearGradient id="Nueva_muestra_de_degradado_4-3" x1="-3.75" y1="29.16" x2="123.11" y2="197.47" gradientTransform="matrix(1, 0, -0.18, 1, 150.4, 0)" xlink:href="#Nueva_muestra_de_degradado_4"/><linearGradient id="Nueva_muestra_de_degradado_5-4" x1="223.25" y1="166.98" x2="339.98" y2="166.98" gradientTransform="translate(-43.52)" xlink:href="#Nueva_muestra_de_degradado_5"/><linearGradient id="Nueva_muestra_de_degradado_4-4" x1="-17.2" y1="-37.09" x2="168.12" y2="208.8" gradientTransform="matrix(1, 0, -0.18, 1, 150.4, 0)" xlink:href="#Nueva_muestra_de_degradado_4"/><linearGradient id="Degradado_sin_nombre_169-2" x1="201.8" y1="334.89" x2="150.72" y2="45.19" gradientTransform="translate(-43.52)" xlink:href="#Degradado_sin_nombre_169"/><linearGradient id="Degradado_sin_nombre_171-2" x1="148.53" y1="364.63" x2="105.29" y2="119.37" gradientTransform="translate(-43.52)" xlink:href="#Degradado_sin_nombre_171"/></defs><g id="Capa_2" data-name="Capa 2"><g id="Capa_3" data-name="Capa 3"><rect class="cls-1" width="400" height="400"/><text class="cls-2" transform="matrix(0.98, 0, -0.17, 0.98, 263.03, 330.36)">A PURA</text><path d="M264.48,360.85l-.52-3.38H256.2l-1.71,3.38h-8.15l13.7-24.8h7.73l4.89,24.8Zm-5.62-8.64h4.32l-.56-3.72-.37-3.24-1.51,3.24Z"/><path d="M274.7,359.33c-1.66-1.54-2.36-3.78-2.07-6.7h7.83q-.25,2.82,3.3,2.82c2.05,0,3.18-.63,3.4-1.88.17-1-.44-1.65-1.85-1.95l-5-1.15q-6.42-1.47-5.41-7.21a8.49,8.49,0,0,1,3.62-5.75c2-1.37,4.72-2.05,8.2-2.05q9.88,0,8.95,7.7h-7.56c0-1.28-.82-1.92-2.51-1.92s-2.67.49-2.84,1.46c-.13.75.41,1.26,1.61,1.54l5,1.15q6.8,1.56,5.7,7.76a9.09,9.09,0,0,1-4.08,6.27,15.4,15.4,0,0,1-8.66,2.23Q277.2,361.65,274.7,359.33Z"/><path d="M303.47,348.73a13,13,0,0,1,3.25-8.63l.71-4.05h-7.8l-4.37,24.8h7.8l1.3-7.38A12.89,12.89,0,0,1,303.47,348.73Z"/><path class="cls-3" d="M323.74,348.73a7.17,7.17,0,0,1-1.57,4.48c-2.26-6.66-9.61-7.57-12-7.69a7.17,7.17,0,0,1,13.57,3.21Z"/><path class="cls-4" d="M322.17,353.21a7.17,7.17,0,0,1-12-7.69C312.56,345.64,319.91,346.55,322.17,353.21Z"/><path d="M345,336.05l-2.27,12.89-5.35-12.89h-7.73l-1.24,7a13.09,13.09,0,0,1-2.65,15l-.49,2.76h7.67l2.24-12.75,5.21,12.75h7.9l4.38-24.8Z"/><path class="cls-5" d="M330.77,332.06a23,23,0,0,0-2.95-2.12,21.85,21.85,0,0,0-11.25-3.16v-4.94S327.1,324.85,330.77,332.06Z"/><path class="cls-6" d="M334,328.26l-3.19,3.8c-3.67-7.21-14.2-10.22-14.2-10.22a26.95,26.95,0,0,1,17.36,6.4Z"/><path class="cls-7" d="M328.12,335.22,325,339c-1.89-6.15-8.41-8.05-8.41-8.05A17.85,17.85,0,0,1,328.12,335.22Z"/><path class="cls-8" d="M325,339l0,0a13.15,13.15,0,0,0-8.38-3.06v-5S323.1,332.8,325,339Z"/><path class="cls-9" d="M246.3,341.26a17.39,17.39,0,0,1-7.59,11.21,16.24,16.24,0,0,1-8.88,2.79h-5.64l-1,5.6h5.6c10,0,19.57-7.49,22.47-17.17.46-9.09-5.94-16.15-15.25-16.37a11.62,11.62,0,0,1,6.64,2.74A11.76,11.76,0,0,1,246.3,341.26Z"/><path class="cls-10" d="M246.3,341.26a17.39,17.39,0,0,1-7.59,11.21,16.24,16.24,0,0,1-8.88,2.79h-5.64l-1,5.6h5.6c10,0,19.57-7.49,22.47-17.17.46-9.09-5.94-16.15-15.25-16.37a11.62,11.62,0,0,1,6.64,2.74A11.76,11.76,0,0,1,246.3,341.26Z"/><path class="cls-11" d="M243.12,342.82a12.77,12.77,0,0,0,.4-1.62c1-6-2.9-10.93-8.84-11.14H207l1.33,3.31a3.7,3.7,0,0,0,3.56,2.29h21.35l.46,0h.4A8.8,8.8,0,0,1,243.12,342.82Z"/><path class="cls-12" d="M237.84,341.36a7.12,7.12,0,0,1-6.75,5.5h-5.42l-1,5.61h5.39a14.37,14.37,0,0,0,13-9.65,8.8,8.8,0,0,0-9-7.15h-.4A4.56,4.56,0,0,1,237.84,341.36Z"/><path class="cls-13" d="M237.84,341.36a7.12,7.12,0,0,1-6.75,5.5h-5.42l-1,5.61h5.39a14.37,14.37,0,0,0,13-9.65,8.8,8.8,0,0,0-9-7.15h-.4A4.56,4.56,0,0,1,237.84,341.36Z"/><path class="cls-14" d="M216.77,327.32c.51,0,1,0,1.52-.06h-3C215.76,327.29,216.26,327.32,216.77,327.32Z"/><path class="cls-15" d="M235.4,321.65H203.64l2.24,5.61h28.89q.64,0,1.26.06c9.31.22,15.71,7.28,15.25,16.37a21.81,21.81,0,0,0,.64-2.77C253.64,330.17,246.15,321.65,235.4,321.65Z"/><path class="cls-16" d="M218.77,338.46l-1.83,10.4-4.1,23.21,3.67-1.95a5.74,5.74,0,0,0,3-3.95l.46-2.61,4.43-25.1Z"/><polygon class="cls-17" points="210.39 338.46 209.93 341.02 209.35 344.35 208 352.02 203.6 376.91 209.76 373.69 211.65 362.96 214.72 345.57 215.97 338.46 210.39 338.46"/><path class="cls-18" d="M246.31,341.26a17.37,17.37,0,0,1-7.58,11.21,16.25,16.25,0,0,1-8.89,2.79h-5.63l-1,5.6h5.6c10,0,19.57-7.49,22.48-17.17.45-9.09-6-16.15-15.25-16.37a11.35,11.35,0,0,1,10.26,13.94Z"/><path class="cls-19" d="M246.31,341.26a17.37,17.37,0,0,1-7.58,11.21,16.25,16.25,0,0,1-8.89,2.79h-5.63l-1,5.6h5.6c10,0,19.57-7.49,22.48-17.17.45-9.09-6-16.15-15.25-16.37a11.35,11.35,0,0,1,10.26,13.94Z"/><path class="cls-20" d="M243.13,342.82a11.27,11.27,0,0,0,.4-1.62c1-6-2.89-10.93-8.83-11.14H207l1.32,3.31a3.72,3.72,0,0,0,3.56,2.29h21.36l.46,0h.39A8.8,8.8,0,0,1,243.13,342.82Z"/><path class="cls-18" d="M237.86,341.36a7.12,7.12,0,0,1-6.75,5.5h-5.42l-1,5.61h5.39a14.37,14.37,0,0,0,13-9.65,8.8,8.8,0,0,0-9-7.15h-.39A4.56,4.56,0,0,1,237.86,341.36Z"/><path class="cls-21" d="M237.86,341.36a7.12,7.12,0,0,1-6.75,5.5h-5.42l-1,5.61h5.39a14.37,14.37,0,0,0,13-9.65,8.8,8.8,0,0,0-9-7.15h-.39A4.56,4.56,0,0,1,237.86,341.36Z"/><path class="cls-22" d="M216.78,327.32c.51,0,1,0,1.52-.06h-3C215.78,327.29,216.27,327.32,216.78,327.32Z"/><path class="cls-23" d="M235.41,321.65H203.65l2.25,5.61h28.88c.43,0,.85,0,1.27.06,9.3.22,15.7,7.28,15.25,16.37a21.81,21.81,0,0,0,.64-2.77C253.65,330.17,246.16,321.65,235.41,321.65Z"/><path class="cls-24" d="M218.79,338.46,217,348.86l-4.09,23.21,3.67-1.95a5.72,5.72,0,0,0,2.95-3.95l.46-2.61,4.43-25.1Z"/><polygon class="cls-25" points="210.4 338.46 209.95 341.02 209.36 344.35 208.01 352.02 203.62 376.91 209.77 373.69 211.66 362.96 214.73 345.57 215.99 338.46 210.4 338.46"/><path class="cls-1" d="M309.41,345.51s.28,0,.76,0"/><path class="cls-1" d="M322.35,353.79c-.05-.2-.12-.4-.18-.58"/><path class="cls-26" d="M316.62,149.17c-5.12,29-23.63,54.82-48.06,71-16.77,11.11-36.33,17.69-56.27,17.69H176.61l-6.26,35.47h35.48c63.35,0,124-47.46,142.36-108.76,2.89-57.57-37.66-102.27-96.6-103.7,16.57,1.52,31,7.73,42.07,17.34C312.35,94.4,321.74,120.15,316.62,149.17Z"/><path class="cls-27" d="M296.46,159A72.32,72.32,0,0,0,299,148.77c6.53-38.16-18.32-69.19-56-70.56-.86,0-1.72,0-2.59,0s-1.74,0-2.6,0H67.78l8.4,21c3.59,9,12.19,14.51,22.55,14.51H234c1,0,2,.07,2.93.15s1.66-.06,2.49-.06C269.23,113.78,291.33,132.62,296.46,159Z"/><path class="cls-28" d="M263.07,149.83c-3.8,19.53-23.25,34.81-42.78,34.81H186l-6.27,35.53h34.15c35.78,0,71.46-26.68,82.59-61.13-5.13-26.42-27.23-45.26-57.06-45.26-.83,0-1.66,0-2.49.06C255.06,115.37,266.75,130.94,263.07,149.83Z"/><path class="cls-29" d="M247.57,25H46.4L60.63,60.48H243.57c2.73,0,5.39.15,8,.39,58.94,1.43,99.49,46.13,96.6,103.7A135.45,135.45,0,0,0,352.24,147C363.11,79,315.66,25,247.57,25Z"/><path class="cls-30" d="M142.26,131.43,130.65,197.3l-25.93,147L128,332c9.78-5.21,16.9-14.72,18.71-25l2.92-16.53,28-159Z"/><polygon class="cls-31" points="89.16 131.43 86.29 147.69 82.58 168.75 74.01 217.33 46.2 375 85.18 354.58 97.16 286.63 116.58 176.5 124.53 131.43 89.16 131.43"/></g></g></svg>