<?xml version="1.0" encoding="utf-8"?>
<!-- Generator: Adobe Illustrator 24.1.1, SVG Export Plug-In . SVG Version: 6.00 Build 0)  -->
<svg version="1.1" id="Capa_1" xmlns="http://www.w3.org/2000/svg" xmlns:xlink="http://www.w3.org/1999/xlink" x="0px" y="0px"
	 viewBox="0 0 16 16" style="enable-background:new 0 0 16 16;" xml:space="preserve">
<style type="text/css">
	.st0{fill:#C8C8C8;}
</style>
<path class="st0" d="M0,1c0-0.6,0.4-1,1-1h14c0.6,0,1,0.4,1,1v14c0,0.6-0.4,1-1,1H1c-0.6,0-1-0.4-1-1V1z M4,1v6h8V1H4z M12,9H4v6h8
	V9z M1,1v2h2V1H1z M3,4H1v2h2V4z M1,7v2h2V7H1z M3,10H1v2h2V10z M1,13v2h2v-2H1z M15,1h-2v2h2V1z M13,4v2h2V4H13z M15,7h-2v2h2V7z
	 M13,10v2h2v-2H13z M15,13h-2v2h2V13z"/>
</svg>
