<svg xmlns="http://www.w3.org/2000/svg" viewBox="0 0 128 129.36"><defs><style>.cls-1{fill:#dd0031;}.cls-2{fill:#fff;}.cls-3{fill:#e6e6e6;}.cls-4{fill:#90caf9;}</style></defs><g id="Capa_2" data-name="Capa 2"><g id="Capa_16" data-name="Capa 16"><path class="cls-1" d="M22,35.38C22.42,35,63.45,20.15,64,20.18c.94,0,31.92,11.33,42,14.73q-3.12,25.85-6,51.72c-.17,1.46-.61,4.16-.61,4.16S97.33,92,96,92.72c-9.85,5.22-32,17.46-32,17.46L28.76,90.79S24.1,53.56,22,35.38Zm68.63,53.8L64,29.5,37.44,89.19c3,0,5.09-.17,7.15,0,2.45.25,3.51-.89,4.31-3,1.23-3.29,1.93-7.78,4.4-9.36C56,75.15,60.38,76.1,64,76.1s8.07-.93,10.72.78c2.47,1.58,3,6.11,4.44,9.35.11.24.15.56.34.7,1,.78,2,2,3.16,2.15A58.67,58.67,0,0,0,90.59,89.18Z"/><path class="cls-2" d="M90.59,89.18c-3.21,0-10,.09-10,.09l-1.35-3c-1.4-3.24-4.44-9.35-4.44-9.35L64,76.84H53.3l-4.4,9.36-1.47,3.06s-7-.08-10-.08C46.3,69.28,54.88,50,64,29.5ZM64,49.55,56.63,67.28H71.35C69,61.48,66.7,56.07,64,49.55Z"/><path class="cls-1" d="M64,49.55c2.7,6.52,5,11.93,7.35,17.73H56.63Z"/><polygon class="cls-3" points="4.57 102.86 4.57 4.57 101.84 4.57 101.84 0 0 0 0 102.86 4.57 102.86"/><polygon class="cls-3" points="123.43 26.5 123.43 124.8 26.28 124.8 26.28 129.36 128 129.36 128 26.5 123.43 26.5"/><polygon class="cls-4" points="101.84 9.3 118.81 9.3 118.81 26.5 123.38 26.5 123.38 4.74 101.84 4.74 101.84 9.3"/><polygon class="cls-4" points="26.28 120.06 9.31 120.06 9.31 102.86 4.75 102.86 4.75 124.62 26.28 124.62 26.28 120.06"/><polygon class="cls-4" points="31.08 13.88 14.12 13.88 14.12 31.08 9.55 31.08 9.55 9.32 31.08 9.32 31.08 13.88"/><polygon class="cls-4" points="97.4 115.63 114.36 115.63 114.36 98.44 118.93 98.44 118.93 120.2 97.4 120.2 97.4 115.63"/></g></g></svg>