<svg xmlns="http://www.w3.org/2000/svg" viewBox="0 0 128 129.36"><defs><style>.cls-1{fill:#e6e6e6;}.cls-2{fill:#90caf9;}.cls-3{fill:#b3b3b3;}</style></defs><g id="Capa_2" data-name="Capa 2"><g id="Capa_16" data-name="Capa 16"><polygon class="cls-1" points="4.57 102.86 4.57 4.57 101.84 4.57 101.84 0 0 0 0 102.86 4.57 102.86"/><polygon class="cls-1" points="123.43 26.5 123.43 124.8 26.28 124.8 26.28 129.36 128 129.36 128 26.5 123.43 26.5"/><polygon class="cls-2" points="101.84 9.3 118.81 9.3 118.81 26.5 123.38 26.5 123.38 4.74 101.84 4.74 101.84 9.3"/><polygon class="cls-2" points="26.28 120.06 9.31 120.06 9.31 102.86 4.75 102.86 4.75 124.62 26.28 124.62 26.28 120.06"/><polygon class="cls-2" points="31.08 13.88 14.12 13.88 14.12 31.08 9.55 31.08 9.55 9.32 31.08 9.32 31.08 13.88"/><polygon class="cls-2" points="97.4 115.63 114.36 115.63 114.36 98.44 118.93 98.44 118.93 120.2 97.4 120.2 97.4 115.63"/><path class="cls-3" d="M53.83,23.93c6,0,11.13-.12,16.27,0,3.34.1,5.8,1.93,7.46,4.81Q92.31,54.45,107.07,80.1c1.65,2.87,2.12,5.86.48,8.84-2.49,4.51-5.12,8.94-8.07,14.06Z"/><path class="cls-3" d="M18.57,85H72.4A2.61,2.61,0,0,1,75,86.2c3.1,5.45,6.22,10.88,9.62,16.82H55.07c-6.83,0-13.67,0-20.51,0a8.39,8.39,0,0,1-7.62-3.79C24.13,94.81,21.6,90.19,18.57,85Z"/><path class="cls-3" d="M26.12,71.8,46.38,36.67,66.67,71.8Z"/></g></g></svg>