<svg xmlns="http://www.w3.org/2000/svg" viewBox="0 0 128 129.36"><defs><style>.cls-1{fill:#fe7021;}.cls-2{fill:#015385;}.cls-3{fill:#e6e6e6;}.cls-4{fill:#90caf9;}</style></defs><g id="Capa_2" data-name="Capa 2"><g id="Capa_16" data-name="Capa 16"><path class="cls-1" d="M46.74,70l-3.59,2.94L29.34,84.22a8,8,0,0,1-5.36,2,4.79,4.79,0,0,1-4.87-3.8,6.31,6.31,0,0,1,1.2-4.89,8.64,8.64,0,0,1,1.84-1.88L53.86,51.34l.55-.45a.88.88,0,0,0-.6-.09L37,50.85a6.58,6.58,0,0,1-3.12-.61,3.48,3.48,0,0,1-1.64-4.77A6.41,6.41,0,0,1,37.05,42a8,8,0,0,1,1.69-.11l34.62,0h.55c0-.25-.2-.3-.32-.4-3.65-3-7.28-6-11-8.9-2.24-1.78-1.75-4.26.3-5.61a6.23,6.23,0,0,1,7.11.24q13.81,10.6,27.64,21.21a27.42,27.42,0,0,1,10.77,16.75,25.89,25.89,0,0,1-5.47,22A30.74,30.74,0,0,1,83.62,98.41a32.88,32.88,0,0,1-23-4,28.29,28.29,0,0,1-13-15.83,16.61,16.61,0,0,1-.87-8A4.2,4.2,0,0,0,46.74,70ZM76.21,85.37c5.89,0,10-1.29,13.45-3.87,4.23-3.18,6.79-7.35,7-12.7a15.83,15.83,0,0,0-5.76-13.12A19.52,19.52,0,0,0,76.1,50.87a19.3,19.3,0,0,0-12.76,5.82A16,16,0,0,0,62,77.89,18.59,18.59,0,0,0,76.21,85.37Z"/><path class="cls-2" d="M78.23,56.51a12.52,12.52,0,0,1,9,3.79,10.23,10.23,0,0,1,0,14.48,13,13,0,0,1-18,.32,10.37,10.37,0,0,1,1.5-16.33A13.21,13.21,0,0,1,78.23,56.51Z"/><polygon class="cls-3" points="4.57 102.86 4.57 4.57 101.84 4.57 101.84 0 0 0 0 102.86 4.57 102.86"/><polygon class="cls-3" points="123.43 26.5 123.43 124.8 26.28 124.8 26.28 129.36 128 129.36 128 26.5 123.43 26.5"/><polygon class="cls-4" points="101.84 9.3 118.81 9.3 118.81 26.5 123.38 26.5 123.38 4.74 101.84 4.74 101.84 9.3"/><polygon class="cls-4" points="26.28 120.06 9.31 120.06 9.31 102.86 4.75 102.86 4.75 124.62 26.28 124.62 26.28 120.06"/><polygon class="cls-4" points="31.08 13.88 14.12 13.88 14.12 31.08 9.55 31.08 9.55 9.32 31.08 9.32 31.08 13.88"/><polygon class="cls-4" points="97.4 115.63 114.36 115.63 114.36 98.44 118.93 98.44 118.93 120.2 97.4 120.2 97.4 115.63"/></g></g></svg>