<svg xmlns="http://www.w3.org/2000/svg" viewBox="0 0 128 129.36"><defs><style>.cls-1{fill:#563b7d;}.cls-2{fill:#fff;}.cls-3{fill:#e6e6e6;}.cls-4{fill:#90caf9;}</style></defs><g id="Capa_2" data-name="Capa 2"><g id="Capa_16" data-name="Capa 16"><path class="cls-1" d="M37,24s56.45,0,56.6,0c4.84.57,7.78,5.75,7.56,10.13a46.15,46.15,0,0,0-.06,5.64c.34,5.13.85,10.26,3.45,14.85,1.61,2.84,3.9,4.74,7.3,5v4.55a7.5,7.5,0,0,0-6.3,3.61,22.54,22.54,0,0,0-3.15,7.37,147,147,0,0,0-1.26,15,9.55,9.55,0,0,1-4.61,8.18,13.27,13.27,0,0,1-2.74,1.13,5.93,5.93,0,0,1-1.91.32H36.21a6.57,6.57,0,0,1-2-.33c-5.73-1.9-7.46-6.32-7.09-12.3a37.51,37.51,0,0,0-2-14.82c-1.45-4.12-3.63-7.67-8.57-8.15l-.4-4.5a21.65,21.65,0,0,0,3.74-1.14c3.29-1.78,4.63-5,5.63-8.34,1.63-5.41,1.7-11,1.61-16.59a9.23,9.23,0,0,1,6.28-8.93l.34-.12A9.74,9.74,0,0,1,37,24ZM72.1,60.56,73.31,60a9.32,9.32,0,0,0,4.9-10.76,9.65,9.65,0,0,0-9-7.47c-6.22-.43-12.47-.32-18.71-.45-1.49,0-1.31,1-1.31,2,0,12.37,0,24.74,0,37.11,0,1.63.58,2,2.08,2,5.11-.08,10.23.06,15.34-.12a23.43,23.43,0,0,0,6.64-1.2,10.83,10.83,0,0,0,6.59-14.27C78.47,63.29,75.69,61.55,72.1,60.56Z"/><path class="cls-2" d="M72.1,60.56c3.59,1,6.37,2.73,7.76,6.22a10.83,10.83,0,0,1-6.59,14.27,23.43,23.43,0,0,1-6.64,1.2c-5.11.18-10.23,0-15.34.12-1.5,0-2.09-.37-2.08-2,0-12.37,0-24.74,0-37.11,0-.94-.18-2,1.31-2,6.24.13,12.49,0,18.71.45a9.65,9.65,0,0,1,9,7.47A9.32,9.32,0,0,1,73.31,60Zm-15.77,16c3.24,0,6.37.06,9.5,0a13.6,13.6,0,0,0,3.68-.69,5.31,5.31,0,0,0,3.95-5.53c0-2.88-1.35-4.85-4-5.68-4.29-1.33-8.69-.53-13.09-.77ZM56.26,47.2v9.13c0,.32-.12.7,0,.93.27.45.68,1.14,1,1.15A78.63,78.63,0,0,0,66,58.27c3.5-.34,5.56-2.67,5.58-5.8a5.12,5.12,0,0,0-5-5.22C63.27,47,59.87,47.2,56.26,47.2Z"/><path class="cls-1" d="M56.33,76.52V63.82c4.4.24,8.8-.56,13.09.77,2.69.83,4,2.8,4,5.68a5.31,5.31,0,0,1-3.95,5.53,13.6,13.6,0,0,1-3.68.69C62.7,76.58,59.57,76.52,56.33,76.52Z"/><path class="cls-1" d="M56.26,47.2c3.61,0,7-.2,10.38,0a5.12,5.12,0,0,1,5,5.22c0,3.13-2.08,5.46-5.58,5.8a78.63,78.63,0,0,1-8.69.14c-.36,0-.77-.7-1-1.15-.14-.23,0-.61,0-.93Z"/><polygon class="cls-3" points="4.57 102.86 4.57 4.57 101.84 4.57 101.84 0 0 0 0 102.86 4.57 102.86"/><polygon class="cls-3" points="123.43 26.5 123.43 124.8 26.28 124.8 26.28 129.36 128 129.36 128 26.5 123.43 26.5"/><polygon class="cls-4" points="101.84 9.3 118.81 9.3 118.81 26.5 123.38 26.5 123.38 4.74 101.84 4.74 101.84 9.3"/><polygon class="cls-4" points="26.28 120.06 9.31 120.06 9.31 102.86 4.75 102.86 4.75 124.62 26.28 124.62 26.28 120.06"/><polygon class="cls-4" points="31.08 13.88 14.12 13.88 14.12 31.08 9.55 31.08 9.55 9.32 31.08 9.32 31.08 13.88"/><polygon class="cls-4" points="97.4 115.63 114.36 115.63 114.36 98.44 118.93 98.44 118.93 120.2 97.4 120.2 97.4 115.63"/></g></g></svg>