<svg xmlns="http://www.w3.org/2000/svg" viewBox="0 0 128 129.36"><defs><style>.cls-1{fill:#999;}.cls-2{fill:#fcfdfd;}.cls-3{fill:#b3b3b3;}.cls-4{fill:#e6e6e6;}.cls-5{fill:#90caf9;}</style></defs><g id="Capa_2" data-name="Capa 2"><g id="Capa_16" data-name="Capa 16"><path class="cls-1" d="M24.51,22h79q-3.55,39.51-7.07,79c-.18,2.05-1.06,2.8-2.86,3.28q-13.44,3.57-26.81,7.34a10.15,10.15,0,0,1-5.83-.11c-7.33-2.1-14.68-4.11-22-6.12-6.78-1.85-6.89-1.82-7.53-8.62Q27.87,59.38,24.51,22ZM64,38.8c-5.63,0-11.27.1-16.9.11-7,0-6.79,0-6.2,6.88.3,3.37,1.25,4.78,4.95,4.51,5.47-.38,11-.09,16.47-.09-.21.67-.41.8-.62.88L50.21,55.54C42,58.75,42,58.74,42.86,67.48c.19,2,.89,2.54,2.81,2.52,6.1-.07,12.21,0,18.31.08,0,4.52.09,8.83,0,13.68-.9-.25-2.73-.74-3.64-.93-3.21-.68-6.12-1.59-5.94-5.79.06-1.18-.82-1.49-1.91-1.44-1.28.05-2.57,0-3.86,0-4.82,0-4.83,0-4.45,4.63.19,2.33.62,4.66.58,7,0,2.12,1.06,2.73,2.8,3.23,5.5,1.59,11,3.31,16.43,5,0,2.47.11,4.94,0,7.4s1,2.82,3,2.21c6.52-2,13-3.93,19.58-5.77a4.41,4.41,0,0,0,3.69-4.38c.94-10.14,2.09-20.26,3.08-30.4,1.11-11.43,2.09-22.86,3.22-34.29.18-1.9-.46-2.56-2.27-2.56q-13.72,0-27.46,0C64.7,27.63,64,28.7,64,30.7,64.05,33.4,64,36.1,64,38.8Z"/><path class="cls-2" d="M64,70.08c-6.1,0-12.21-.15-18.31-.08-1.92,0-2.62-.55-2.81-2.52C42,58.74,42,58.75,50.21,55.54l11.47-4.45c.21-.08.41-.21.62-.88-5.49,0-11-.29-16.47.09-3.7.27-4.65-1.14-4.95-4.51-.59-6.89-1-7,5.92-7,5.64,0,11.55,0,17.18,0,6.93,0,14.41-.06,21.33,0,1.17,0,2-.35,2.11,1.84.48,7.53-.67,9.53-7.57,12.12-3,1.11-12.59,5.19-14.1,5.89,6.16,0,11.8.05,17.43,0,1.91,0,2.68.34,2.44,2.54q-1.4,13-2.41,26c-.15,2-.82,2.84-2.7,3.36C75,92,69.49,93.76,64,95.42c-5.47-1.66-10.93-3.38-16.43-5-1.74-.5-2.83-1.11-2.8-3.23,0-2.32-.39-4.65-.58-7-.38-4.63-.37-4.63,4.45-4.63,1.29,0,2.58,0,3.86,0,1.09,0,2,.26,1.91,1.44-.18,4.2,2.73,5.11,5.94,5.79a35.25,35.25,0,0,0,3.64.81,45.23,45.23,0,0,0,6.36-1.58c2-.63,2.59-1.5,2.82-3.61.31-2.9,1.36-6.74,0-8C71.54,69,67.82,70.05,65,70A7.46,7.46,0,0,0,64,70.08Z"/><path class="cls-3" d="M64,95.42c5.5-1.66,11-3.4,16.52-4.94,1.88-.52,2.55-1.38,2.7-3.36q1-13,2.41-26c.24-2.2-.53-2.57-2.44-2.54-5.63.08-11.27,0-17.43,0,2.25-.95,11.14-4.78,14.1-5.89,6.9-2.59,8.05-4.59,7.57-12.12-.14-2.19-2.62-1.84-2.62-1.84H64c0-2.7.07-5.4,0-8.1,0-2,.7-3.07,2.86-3.06q13.73,0,27.46,0c1.81,0,2.45.66,2.27,2.56-1.13,11.43-2.11,22.86-3.22,34.29-1,10.14-2.14,20.26-3.08,30.4a4.41,4.41,0,0,1-3.69,4.38C80.05,101.1,73.54,103.08,67,105c-2,.61-3.14.21-3-2.21S64,97.89,64,95.42Z"/><path class="cls-3" d="M64,70.08A7.46,7.46,0,0,1,65,70c2.79.07,6.44-.9,8.15.5,1.37,1.13.22,5.41,0,8-.2,2.11-.78,3-2.82,3.61A45.85,45.85,0,0,1,64,83.64C64,78.41,64,74.73,64,70.08Z"/><polygon class="cls-4" points="4.57 102.86 4.57 4.57 101.84 4.57 101.84 0 0 0 0 102.86 4.57 102.86"/><polygon class="cls-4" points="123.43 26.5 123.43 124.8 26.28 124.8 26.28 129.36 128 129.36 128 26.5 123.43 26.5"/><polygon class="cls-5" points="101.84 9.3 118.81 9.3 118.81 26.5 123.38 26.5 123.38 4.74 101.84 4.74 101.84 9.3"/><polygon class="cls-5" points="26.28 120.06 9.31 120.06 9.31 102.86 4.75 102.86 4.75 124.62 26.28 124.62 26.28 120.06"/><polygon class="cls-5" points="31.08 13.88 14.12 13.88 14.12 31.08 9.55 31.08 9.55 9.32 31.08 9.32 31.08 13.88"/><polygon class="cls-5" points="97.4 115.63 114.36 115.63 114.36 98.44 118.93 98.44 118.93 120.2 97.4 120.2 97.4 115.63"/></g></g></svg>