<svg xmlns="http://www.w3.org/2000/svg" viewBox="0 0 128 129.36"><defs><style>.cls-1{fill:#e6e6e6;}.cls-2{fill:#90caf9;}.cls-3{fill:#b3b3b3;}.cls-4{fill:#fdfdfd;}</style></defs><g id="Capa_2" data-name="Capa 2"><g id="Capa_16" data-name="Capa 16"><polygon class="cls-1" points="4.57 102.86 4.57 4.57 101.84 4.57 101.84 0 0 0 0 102.86 4.57 102.86"/><polygon class="cls-1" points="123.43 26.5 123.43 124.8 26.28 124.8 26.28 129.36 128 129.36 128 26.5 123.43 26.5"/><polygon class="cls-2" points="101.84 9.3 118.81 9.3 118.81 26.5 123.38 26.5 123.38 4.74 101.84 4.74 101.84 9.3"/><polygon class="cls-2" points="26.28 120.06 9.31 120.06 9.31 102.86 4.75 102.86 4.75 124.62 26.28 124.62 26.28 120.06"/><polygon class="cls-2" points="31.08 13.88 14.12 13.88 14.12 31.08 9.55 31.08 9.55 9.32 31.08 9.32 31.08 13.88"/><polygon class="cls-2" points="97.4 115.63 114.36 115.63 114.36 98.44 118.93 98.44 118.93 120.2 97.4 120.2 97.4 115.63"/><path class="cls-3" d="M64.35,111.49q-18.24,0-36.49,0a7.51,7.51,0,0,1-7.54-7.6q0-37.35,0-74.71a7.49,7.49,0,0,1,7.59-7.61h74.8a7.49,7.49,0,0,1,7.6,7.61v74.63a7.52,7.52,0,0,1-7.62,7.68q-11.34,0-22.67,0c0-.13,0-.26,0-.39q0-18.45,0-36.88c0-.57.16-.7.71-.7,3.81,0,7.63,0,11.45,0,.67,0,.82-.19.82-.84q0-6.94,0-13.89c0-.68-.13-.9-.85-.89-3.61,0-7.22,0-10.82,0-.37,0-.74.08-.72-.52,0-2,0-4.06.07-6.08a3.09,3.09,0,0,1,3.46-3.24c2.66,0,5.32,0,8,0,.53,0,.67-.16.67-.67q0-6,0-12.08c0-.54-.19-.66-.69-.65-1.34,0-2.68,0-4,0-3.31,0-6.63-.21-9.94.13-7.67.8-12.75,5.89-13.56,13.54-.31,2.94-.1,5.89-.14,8.84,0,.57-.12.75-.73.74-2.08,0-4.16,0-6.24,0-.65,0-.78.21-.77.81q0,7,0,14.05c0,.58.13.77.74.76,2,0,4,0,6.08,0,.75,0,.95.16.95.93q0,18.14,0,36.25C64.39,111,64.37,111.23,64.35,111.49Z"/><path class="cls-4" d="M64.35,111.49c0-.26,0-.52,0-.79q0-18.12,0-36.25c0-.77-.2-1-.95-.93-2,0-4.06,0-6.08,0-.61,0-.75-.18-.74-.76q0-7,0-14.05c0-.6.12-.82.77-.81,2.08,0,4.16,0,6.24,0,.61,0,.72-.17.73-.74,0-2.95-.17-5.9.14-8.84.81-7.65,5.89-12.74,13.56-13.54,3.31-.34,6.63-.08,9.94-.13,1.35,0,2.69,0,4,0,.5,0,.69.11.69.65q0,6,0,12.08c0,.51-.14.67-.67.67-2.66,0-5.32,0-8,0a3.09,3.09,0,0,0-3.46,3.24c-.09,2,0,4-.07,6.08,0,.6.35.52.72.52,3.6,0,7.21,0,10.82,0,.72,0,.86.21.85.89q0,6.95,0,13.89c0,.65-.15.85-.82.84-3.82,0-7.64,0-11.45,0-.55,0-.71.13-.71.7q0,18.44,0,36.88c0,.13,0,.26,0,.39,0,.58-.14.82-.83.82q-7-.06-14,0C64.49,112.31,64.32,112.07,64.35,111.49Z"/></g></g></svg>