<svg xmlns="http://www.w3.org/2000/svg" viewBox="0 0 128 129.36"><defs><style>.cls-1{fill:#e2e2e2;}.cls-2{fill:#e1e1e1;}.cls-3{fill:#4981e7;}.cls-4{fill:#999;}.cls-5{fill:#e6e6e6;}.cls-6{fill:#90caf9;}</style></defs><g id="Capa_2" data-name="Capa 2"><g id="Capa_16" data-name="Capa 16"><path class="cls-1" d="M19,62.7a.25.25,0,0,1-.13-.26,54.36,54.36,0,0,1,1.24-7.85c.29-1,.47-2.1.84-3.12s.62-2.08,1-3.09c.54-1.37,1.15-2.71,1.82-4s1.28-2.3,1.91-3.46a17.3,17.3,0,0,1,1.46-2.15c.83-1.09,1.68-2.16,2.54-3.22.31-.38.68-.72,1-1.08a.52.52,0,0,0,.52.07,17.81,17.81,0,0,1,3.42-.37,41,41,0,0,1,5.86.42,49.49,49.49,0,0,1,8.17,2.11,67.46,67.46,0,0,1,8.87,3.94l3.27,1.78.22.12a1.12,1.12,0,0,0,.55.26,1.38,1.38,0,0,0,.4.36c.93.57,1.84,1.15,2.76,1.73,2.36,1.47,4.65,3,6.9,4.69s4.49,3.28,6.7,5c2,1.51,3.94,3.1,5.92,4.64s3.84,3,5.77,4.43a57.7,57.7,0,0,0,8.33,5.59c1.89,1,3.76,2,6,1.57A5.93,5.93,0,0,0,107.76,69a1.18,1.18,0,0,0,.73-1.2c0-.29-.1-.61.13-.87a6.56,6.56,0,0,1-.18,2.57c-.07.81-.21,1.63-.34,2.44a40.28,40.28,0,0,1-.82,4c-.18,0-.23.13-.3.25a10.94,10.94,0,0,1-9.56,5.38,25.45,25.45,0,0,1-8.48-1.69c-.57-.19-1.17-.34-1.72-.57-2-.85-3.9-1.78-5.83-2.71-2.84-1.37-5.59-2.93-8.37-4.44-1.91-1.05-3.79-2.16-5.69-3.24s-3.67-2.07-5.51-3.08-3.91-2.13-5.88-3.16c-1.53-.8-3.08-1.53-4.63-2.27a74.49,74.49,0,0,0-7.57-3.14A47.54,47.54,0,0,0,34,54.82c-3.26-.42-6.47-.52-9.53.93a9.66,9.66,0,0,0-4,3.3A10.12,10.12,0,0,0,19,62.7Z"/><path class="cls-2" d="M100.79,90A4.76,4.76,0,0,1,99.7,91.7a42.18,42.18,0,0,1-5.36,6,5,5,0,0,1-1.41,1.19,3,3,0,0,0-1.06.27,41.35,41.35,0,0,1-12,2.3,56.8,56.8,0,0,1-9.58-.46A51,51,0,0,1,60,98.6c-2.57-.86-5-2-7.65-2.78a8,8,0,0,0-8.48,1.88,8.72,8.72,0,0,0-2.55,5.92,24.27,24.27,0,0,1-3.63-2.27A42.89,42.89,0,0,1,31,95.54a46.6,46.6,0,0,1-4.92-6.28,48.66,48.66,0,0,1-3.63-6.75,9.7,9.7,0,0,1-.75-2c.58-.89.73-2,1.45-2.83a5.34,5.34,0,0,1,2.38-1.83,6.24,6.24,0,0,1,2.14-.35c1,0,1.93.2,2.89.24a37,37,0,0,1,5.85.84,44.8,44.8,0,0,1,4.84,1.29,31.76,31.76,0,0,1,3,1c1.9.82,3.82,1.57,5.72,2.41,1.74.78,3.43,1.68,5.2,2.42a8.33,8.33,0,0,1,1.56.76,19.56,19.56,0,0,0,2.25,1.11c.74.4,1.53.72,2.29,1.09s1.68.77,2.52,1.16c.68.3,1.39.55,2,.88.9.44,1.86.74,2.78,1.14s1.75.59,2.62.91a32.54,32.54,0,0,0,3.45,1,45.35,45.35,0,0,0,4.49,1,29.2,29.2,0,0,0,4,.49c3,0,6,.23,9-.43a40.58,40.58,0,0,0,4.68-1.19A19.63,19.63,0,0,0,100.79,90Z"/><path class="cls-2" d="M105.4,48.08c.31.8.61,1.6.91,2.41a27.52,27.52,0,0,1,1.2,4.26,37.76,37.76,0,0,1,.94,5.87.26.26,0,0,0-.11.28,2.08,2.08,0,0,1-2.41.62,8.2,8.2,0,0,1-2.66-1.88,79.74,79.74,0,0,1-5.58-5.9c-1.75-2-3.55-3.94-5.3-5.94q-2.9-3.31-6-6.48c-1.79-1.86-3.63-3.67-5.55-5.4-1.48-1.33-3-2.64-4.52-3.88C75,31,73.63,30,72.21,29a45.06,45.06,0,0,0-4-2.42,37.34,37.34,0,0,0-3.62-1.71A22.88,22.88,0,0,0,57.27,23a40.93,40.93,0,0,0-9,.42.53.53,0,0,1,.37-.44,36.66,36.66,0,0,1,3.91-1.2c1.34-.27,2.65-.69,4-.84a43.3,43.3,0,0,1,4.37-.5,39.75,39.75,0,0,1,7.15.19c1.65.28,3.31.35,5,.73A48.3,48.3,0,0,1,78,22.71c1.37.47,2.71,1,4,1.56A34.78,34.78,0,0,1,85.56,26a47.79,47.79,0,0,1,5.82,3.87,52.37,52.37,0,0,1,4.25,3.76,33.89,33.89,0,0,1,2.78,3.08,46.37,46.37,0,0,1,4.47,6.57c.72,1.3,1.38,2.63,2,4C105,47.56,104.9,48.05,105.4,48.08Z"/><path class="cls-1" d="M21.49,80c.33.06.34-.2.4-.4a7.06,7.06,0,0,1,2.83-4A3.92,3.92,0,0,1,27.06,75c1.11,0,2.22.07,3.33.1a44,44,0,0,1,8.76,1.56A69,69,0,0,1,48,79.82c2.56,1.11,5.07,2.32,7.59,3.51.54.28,1.07.57,1.62.82C59.11,85,61,86,62.86,86.83s3.64,1.63,5.51,2.35a64.68,64.68,0,0,0,6.87,2.21,42.91,42.91,0,0,0,9.82,1.38,37.77,37.77,0,0,0,5.52-.23,34.7,34.7,0,0,0,5.15-1.1c1.75-.49,3.37-1.28,5.06-1.92V90h0a19.63,19.63,0,0,1-3.91,1.64,40.58,40.58,0,0,1-4.68,1.19c-3,.66-6,.41-9,.43a29.2,29.2,0,0,1-4-.49,45.35,45.35,0,0,1-4.49-1,32.54,32.54,0,0,1-3.45-1c-.87-.32-1.77-.55-2.62-.91s-1.88-.7-2.78-1.14c-.66-.33-1.37-.58-2-.88-.84-.39-1.68-.76-2.52-1.16s-1.55-.69-2.29-1.09a19.56,19.56,0,0,1-2.25-1.11,8.33,8.33,0,0,0-1.56-.76c-1.77-.74-3.46-1.64-5.2-2.42-1.9-.84-3.82-1.59-5.72-2.41a31.76,31.76,0,0,0-3-1,44.8,44.8,0,0,0-4.84-1.29,37,37,0,0,0-5.85-.84c-1,0-1.92-.21-2.89-.24a6.24,6.24,0,0,0-2.14.35,5.34,5.34,0,0,0-2.38,1.83c-.72.84-.87,1.94-1.45,2.83C21.45,80.43,21.51,80.2,21.49,80Z"/><path class="cls-1" d="M48.29,23.45A18.5,18.5,0,0,0,46,24l-.7.06c0-.17,0-.25.21-.32,1-.4,2-.86,3-1.23a42,42,0,0,1,5-1.47,38.16,38.16,0,0,1,6.57-1c1.06-.05,2.14-.13,3.2-.14a19.85,19.85,0,0,1,3.44.14,19.78,19.78,0,0,0,2.18.13c1.44.08,2.81.48,4.22.69a41.35,41.35,0,0,1,4.32,1.09,35.41,35.41,0,0,1,3.67,1.39,32.36,32.36,0,0,1,4,1.92c1,.56,2,1.09,2.9,1.72l2,1.4a36.23,36.23,0,0,1,3.16,2.51c1,.89,2,1.82,2.93,2.8a44.43,44.43,0,0,1,4.64,5.7,40.59,40.59,0,0,1,3.82,6.76,4.67,4.67,0,0,1,.76,1.94c-.5,0-.41-.52-.52-.78-.62-1.36-1.28-2.69-2-4a46.37,46.37,0,0,0-4.47-6.57,33.89,33.89,0,0,0-2.78-3.08,52.37,52.37,0,0,0-4.25-3.76A47.79,47.79,0,0,0,85.56,26,34.78,34.78,0,0,0,82,24.27c-1.33-.56-2.67-1.09-4-1.56a48.3,48.3,0,0,0-4.89-1.32c-1.64-.38-3.3-.45-5-.73A39.75,39.75,0,0,0,61,20.47a43.3,43.3,0,0,0-4.37.5c-1.37.15-2.68.57-4,.84A36.66,36.66,0,0,0,48.66,23,.53.53,0,0,0,48.29,23.45Z"/><path class="cls-1" d="M108.46,61.72l0-.61c.36.46.2,1,.11,1.45C108.38,62.31,108.57,62,108.46,61.72Z"/><path class="cls-3" d="M45.27,24,46,24a2.43,2.43,0,0,1-1.24.34C44.85,24.11,45.07,24.08,45.27,24Z"/><path class="cls-2" d="M100.79,90v-.46l.24-.24h.25C101.3,89.65,101,89.75,100.79,90Z"/><path class="cls-1" d="M108.65,65.14a1.08,1.08,0,0,1,0-.75A.46.46,0,0,1,108.65,65.14Z"/><path class="cls-1" d="M108.43,60.88l-.09,0a.26.26,0,0,1,.11-.28C108.58,60.72,108.57,60.8,108.43,60.88Z"/><path class="cls-4" d="M108.65,64.39a11.19,11.19,0,0,1,0-1.83c-.23-.25,0-.57-.15-.84l0-.61-.07-.23-.09,0a2.08,2.08,0,0,1-2.41.62,8.2,8.2,0,0,1-2.66-1.88,79.74,79.74,0,0,1-5.58-5.9c-1.75-2-3.55-3.94-5.3-5.94q-2.9-3.31-6-6.48c-1.79-1.86-3.63-3.67-5.55-5.4-1.48-1.33-3-2.64-4.52-3.88C75,31,73.63,30,72.21,29a45.06,45.06,0,0,0-4-2.42,37.34,37.34,0,0,0-3.62-1.71A22.88,22.88,0,0,0,57.27,23a40.93,40.93,0,0,0-9,.42A18.5,18.5,0,0,0,46,24a2.43,2.43,0,0,1-1.24.34l-.34.05a1.61,1.61,0,0,0-.73.26,47.41,47.41,0,0,0-7.18,4.53,43.84,43.84,0,0,0-5.77,5.29.52.52,0,0,0,.52.07,17.81,17.81,0,0,1,3.42-.37,41,41,0,0,1,5.86.42,49.49,49.49,0,0,1,8.17,2.11,67.46,67.46,0,0,1,8.87,3.94l3.27,1.78c.07-.11.16-.19.28-.11s0,.17-.06.23a1.12,1.12,0,0,0,.55.26,1.38,1.38,0,0,0,.4.36c.93.57,1.84,1.15,2.76,1.73,2.36,1.47,4.65,3,6.9,4.69s4.49,3.28,6.7,5c2,1.51,3.94,3.1,5.92,4.64s3.84,3,5.77,4.43a57.7,57.7,0,0,0,8.33,5.59c1.89,1,3.76,2,6,1.57A5.93,5.93,0,0,0,107.76,69a1.18,1.18,0,0,0,.73-1.2c0-.29-.1-.61.13-.87,0-.57,0-1.14-.05-1.71l.08-.11A1.08,1.08,0,0,1,108.65,64.39Z"/><path class="cls-3" d="M60.82,42.39c.07-.11.16-.19.28-.11s0,.17-.06.23Z"/><path class="cls-4" d="M107,76.18a10.94,10.94,0,0,1-9.56,5.38,25.45,25.45,0,0,1-8.48-1.69c-.57-.19-1.17-.34-1.72-.57-2-.85-3.9-1.78-5.83-2.71-2.84-1.37-5.59-2.93-8.37-4.44-1.91-1.05-3.79-2.16-5.69-3.24s-3.67-2.07-5.51-3.08-3.91-2.13-5.88-3.16c-1.53-.8-3.08-1.53-4.63-2.27a74.49,74.49,0,0,0-7.57-3.14A47.54,47.54,0,0,0,34,54.82c-3.26-.42-6.47-.52-9.53.93a9.66,9.66,0,0,0-4,3.3A10.12,10.12,0,0,0,19,62.7a2.63,2.63,0,0,0,0,.84,38.58,38.58,0,0,0,.43,8.18A49.31,49.31,0,0,0,21.49,80c.33.06.34-.2.4-.4a7.06,7.06,0,0,1,2.83-4A3.92,3.92,0,0,1,27.06,75c1.11,0,2.22.07,3.33.1h0a44,44,0,0,1,8.76,1.56A69,69,0,0,1,48,79.82c2.56,1.11,5.07,2.32,7.59,3.51.54.28,1.07.57,1.62.82C59.11,85,61,86,62.86,86.83s3.64,1.63,5.51,2.35a64.68,64.68,0,0,0,6.87,2.21,42.91,42.91,0,0,0,9.82,1.38,37.77,37.77,0,0,0,5.52-.23,34.7,34.7,0,0,0,5.15-1.1c1.75-.49,3.37-1.28,5.06-1.92l.24-.24h.25a3.41,3.41,0,0,0,.36-.41,46,46,0,0,0,3.73-7.21,50.14,50.14,0,0,0,1.91-5.74C107.1,75.92,107.05,76.06,107,76.18ZM59.64,84.81s-.08,0-.09,0,0-.06,0-.1.08,0,.09,0S59.66,84.77,59.64,84.81Z"/><path class="cls-4" d="M91.87,99.13a41.35,41.35,0,0,1-12,2.3,56.8,56.8,0,0,1-9.58-.46A51,51,0,0,1,60,98.6c-2.57-.86-5-2-7.65-2.78a8,8,0,0,0-8.48,1.88,8.72,8.72,0,0,0-2.55,5.92,40,40,0,0,0,7.81,3.6,43.94,43.94,0,0,0,13.29,2.42,44.7,44.7,0,0,0,14.35-1.89,41.16,41.16,0,0,0,5.78-2.2,43.51,43.51,0,0,0,6.79-3.89,32.22,32.22,0,0,0,3.58-2.8A3,3,0,0,0,91.87,99.13Z"/><path class="cls-3" d="M59.59,84.66s.08,0,.09,0,0,.06,0,.1-.08,0-.09,0S59.57,84.7,59.59,84.66Z"/><polygon class="cls-5" points="4.57 102.86 4.57 4.57 101.84 4.57 101.84 0 0 0 0 102.86 4.57 102.86"/><polygon class="cls-5" points="123.43 26.5 123.43 124.8 26.28 124.8 26.28 129.36 128 129.36 128 26.5 123.43 26.5"/><polygon class="cls-6" points="101.84 9.3 118.81 9.3 118.81 26.5 123.38 26.5 123.38 4.74 101.84 4.74 101.84 9.3"/><polygon class="cls-6" points="26.28 120.06 9.31 120.06 9.31 102.86 4.75 102.86 4.75 124.62 26.28 124.62 26.28 120.06"/><polygon class="cls-6" points="31.08 13.88 14.12 13.88 14.12 31.08 9.55 31.08 9.55 9.32 31.08 9.32 31.08 13.88"/><polygon class="cls-6" points="97.4 115.63 114.36 115.63 114.36 98.44 118.93 98.44 118.93 120.2 97.4 120.2 97.4 115.63"/></g></g></svg>