<svg xmlns="http://www.w3.org/2000/svg" viewBox="0 0 128 129.36"><defs><style>.cls-1{fill:#999;}.cls-2{fill:#fefefe;}.cls-3{fill:#b3b3b3;}.cls-4{fill:#ef662b;}.cls-5{fill:#e6e6e6;}.cls-6{fill:#90caf9;}</style></defs><g id="Capa_2" data-name="Capa 2"><g id="Capa_16" data-name="Capa 16"><path class="cls-1" d="M64.05,22.3h38.1c1.57,0,1.58,0,1.43,1.58Q101.3,49.62,99,75.34c-.8,9-1.61,18-2.38,26.94a1.37,1.37,0,0,1-1.17,1.4q-15.32,4.2-30.6,8.47a3.21,3.21,0,0,1-1.79,0q-15.24-4.25-30.49-8.44a1.34,1.34,0,0,1-1.18-1.39c-.61-7.26-1.27-14.52-1.91-21.78q-1-11.34-2-22.69-1.08-12-2.18-24.07c-.3-3.4-.56-6.8-.91-10.2-.11-1,.2-1.31,1.22-1.3Q44.83,22.32,64.05,22.3Zm-.37,72.86a2,2,0,0,1,.45,1.49c0,2.53,0,5.06,0,7.6,0,.92.31,1.15,1.17.89,1.24-.37,2.49-.68,3.74-1l14-4c2.13-.6,4.26-1.17,6.39-1.76.43-.13,1-.19,1-.8-.06-1.92.38-3.79.49-5.7s.3-4.1.48-6.16c.29-3.26.57-6.52.89-9.78.21-2.13.33-4.27.55-6.38.28-2.81.52-5.61.82-8.42.22-2.08.23-4.19.52-6.26.44-3.14.53-6.3.86-9.45.22-2.08.32-4.18.51-6.27.28-2.92.57-5.84.89-8.75C96.49,29.33,96.13,29,95,29c-9.71.05-19.42,0-29.13,0-1.94,0-1.94,0-1.76,1.9a7.09,7.09,0,0,1,0,.8c0,2.34,0,4.81,0,7.15-.47,0-.92,0-1.37,0h-13l-10.56,0c-.2-.11-.19,0-.18.15.51,5.48,1,11,1.52,16.44.37,4.07.68,8.15,1,12.23l0,.22c.1.79.52,1,1.31,1,6.61,0,13.22,0,19.83,0a2.6,2.6,0,0,1,1.35.14l0,15.68a2.15,2.15,0,0,1-.56,0c-3.34-.88-6.66-1.78-10-2.64-.64-.16-.74-.52-.78-1.07-.15-2-.36-4-.52-6.07-.05-.73-.33-1-1.13-1-2.61,0-5.21,0-7.82,0-.9,0-1.1.3-1,1.15q.63,6.69,1.19,13.39c.06.84.45,1.14,1.21,1.35C51,91.57,57.35,93.37,63.68,95.16Z"/><path class="cls-2" d="M41.59,67.67c-.33-4.08-.64-8.16-1-12.23-.48-5.48-1-11-1.52-16.44l.18-.15,10.56,0H66.31c7.14,0,14.16,0,21.29-.08,1,0,1.29.26,1.18,1.24-.27,2.51-.52,5-.69,7.55-.06.94-.36,1.23-1.3,1.22-7.14,0-14.27,0-21.41,0-.41,0-.83,0-1.25.07-4.48-.22-9,0-13.45-.09-.81,0-.69.54-.65,1,.23,2.64.53,5.27.67,7.91.06,1.08.46,1.3,1.47,1.3C62.29,59,72.41,59,82.54,59c1.38,0,2.75,0,4.13-.06.52.32.34.79.3,1.24l-.78,8.7C85.6,75.43,85,82,84.43,88.56a1.17,1.17,0,0,1-1,1.22c-3.73,1-7.45,2.07-11.19,3.08-2.84.76-5.64,1.72-8.53,2.3-6.33-1.79-12.65-3.59-19-5.35-.76-.21-1.15-.51-1.21-1.35q-.56-6.7-1.19-13.39c-.08-.85.12-1.16,1-1.15,2.61,0,5.21,0,7.82,0,.8,0,1.08.3,1.13,1,.16,2,.37,4,.52,6.07,0,.55.14.91.78,1.07,3.34.86,6.66,1.76,10,2.64a2.15,2.15,0,0,0,.56,0c3.41-.87,6.82-1.76,10.23-2.62a1,1,0,0,0,.79-1c.33-3.71.64-7.41,1-11.11.07-.8-.17-1.13-1-1.1-1.07,0-2.14,0-3.22,0-2.6,0-5.21-.14-7.81.1a2.6,2.6,0,0,0-1.35-.14c-6.61,0-13.22,0-19.83,0-.79,0-1.21-.21-1.31-1,0,0,.07,0,.06-.07A1.19,1.19,0,0,0,41.59,67.67Z"/><path class="cls-3" d="M64.13,48.88c.42,0,.84-.07,1.25-.07,7.14,0,14.27,0,21.41,0,.94,0,1.24-.28,1.3-1.22.17-2.52.42-5,.69-7.55.11-1-.22-1.25-1.18-1.24l-23.45.07c0-2.34,0-4.81,0-7.15a7.09,7.09,0,0,0,0-.8c-.18-1.9-.18-1.9,1.76-1.9,9.71,0,19.42,0,29.13,0,1.13,0,1.49.33,1.37,1.42-.32,2.91-.61,5.83-.89,8.75-.19,2.09-.29,4.19-.51,6.27-.33,3.15-.42,6.31-.86,9.45-.29,2.07-.3,4.18-.52,6.26-.3,2.81-.54,5.61-.82,8.42-.22,2.11-.34,4.25-.55,6.38-.32,3.26-.6,6.52-.89,9.78-.18,2.06-.37,4.11-.48,6.16s-.55,3.78-.49,5.7c0,.61-.54.67-1,.8-2.13.59-4.26,1.16-6.39,1.76l-14,4c-1.25.35-2.5.66-3.74,1-.86.26-1.19,0-1.17-.89,0-2.54,0-5.07,0-7.6a2,2,0,0,0-.45-1.49c2.89-.58,5.69-1.54,8.53-2.3,3.74-1,7.46-2.07,11.19-3.08a1.17,1.17,0,0,0,1-1.22C85,82,85.6,75.43,86.19,68.86l.78-8.7c0-.45.22-.92-.3-1.24-.36-.31-.81-.17-1.21-.17-6.68,0-13.36,0-20,0-1.1,0-1.35-.33-1.33-1.36C64.17,54.56,64.13,51.72,64.13,48.88Z"/><path class="cls-3" d="M64.11,69c2.6-.24,5.21,0,7.81-.1,1.08,0,2.15,0,3.22,0,.83,0,1.07.3,1,1.1-.35,3.7-.66,7.4-1,11.11a1,1,0,0,1-.79,1c-3.41.86-6.82,1.75-10.23,2.62Q64.12,76.87,64.11,69Z"/><path class="cls-4" d="M39.24,38.85l-.18.15C39.05,38.88,39,38.74,39.24,38.85Z"/><path class="cls-4" d="M41.59,67.67a1.19,1.19,0,0,1,.09.15s0,.05-.06.07Z"/><path class="cls-1" d="M64.13,48.88c0,2.84,0,5.68,0,8.52,0,1,.23,1.37,1.33,1.36,6.67,0,13.35,0,20,0,.4,0,.85-.14,1.21.17-1.38,0-2.75,0-4.13.06-10.13,0-20.25,0-30.37.05-1,0-1.41-.22-1.47-1.3-.14-2.64-.44-5.27-.67-7.91,0-.49-.16-1,.65-1C55.16,48.84,59.65,48.66,64.13,48.88Z"/><polygon class="cls-5" points="4.57 102.86 4.57 4.57 101.84 4.57 101.84 0 0 0 0 102.86 4.57 102.86"/><polygon class="cls-5" points="123.43 26.5 123.43 124.8 26.28 124.8 26.28 129.36 128 129.36 128 26.5 123.43 26.5"/><polygon class="cls-6" points="101.84 9.3 118.81 9.3 118.81 26.5 123.38 26.5 123.38 4.74 101.84 4.74 101.84 9.3"/><polygon class="cls-6" points="26.28 120.06 9.31 120.06 9.31 102.86 4.75 102.86 4.75 124.62 26.28 124.62 26.28 120.06"/><polygon class="cls-6" points="31.08 13.88 14.12 13.88 14.12 31.08 9.55 31.08 9.55 9.32 31.08 9.32 31.08 13.88"/><polygon class="cls-6" points="97.4 115.63 114.36 115.63 114.36 98.44 118.93 98.44 118.93 120.2 97.4 120.2 97.4 115.63"/></g></g></svg>