<svg xmlns="http://www.w3.org/2000/svg" viewBox="0 0 90 89.99"><defs><style>.cls-1{fill:#999;}.cls-2{fill:#fdfdfe;}</style></defs><g id="Capa_2" data-name="Capa 2"><g id="Capa_16" data-name="Capa 16"><path class="cls-1" d="M45,0Q63.26,0,81.47,0A8.07,8.07,0,0,1,89.2,4.7,7.89,7.89,0,0,1,90,8.34Q90,45,90,81.65a8.08,8.08,0,0,1-6.18,8.07,8.53,8.53,0,0,1-2.26.27H8.45A8.13,8.13,0,0,1,.26,83.77,8.65,8.65,0,0,1,0,81.5v-73A8.12,8.12,0,0,1,6.19.27,9.34,9.34,0,0,1,8.67,0Zm4.34,38.83c0-1.2,0-2.2,0-3.19a2.34,2.34,0,0,0-2.6-2.59H37.19a2.35,2.35,0,0,0-2.67,2.67V77.45a2.32,2.32,0,0,0,2.63,2.62h9.37c2,0,2.85-.81,2.85-2.85,0-7,0-14,0-21a16.72,16.72,0,0,1,.92-5.56c1.21-3.54,3.76-5.53,7.22-5.59A6.73,6.73,0,0,1,64.56,50a15.6,15.6,0,0,1,.81,5.29c0,7.42,0,14.84,0,22.27a2.25,2.25,0,0,0,2.5,2.5c3.39,0,6.79,0,10.18,0a2.26,2.26,0,0,0,2.49-2.52c0-3.79,0-7.57,0-11.36,0-5.33.17-10.67-.23-16a28.14,28.14,0,0,0-1.75-8.26,13.85,13.85,0,0,0-10.4-9.07,23.8,23.8,0,0,0-9.73,0,13.58,13.58,0,0,0-6.33,2.95A20.58,20.58,0,0,0,49.37,38.83ZM13,56.52v20.8a2.45,2.45,0,0,0,2.71,2.75q4.72,0,9.44,0a2.4,2.4,0,0,0,2.69-2.7V35.78a2.44,2.44,0,0,0-2.74-2.73H15.89c-2,0-2.88.91-2.88,2.89Zm-2.13-37a9.58,9.58,0,1,0,19.16,0,9.58,9.58,0,0,0-19.16,0Z"/><path class="cls-2" d="M49.37,38.83a20.58,20.58,0,0,1,2.74-3,13.58,13.58,0,0,1,6.33-2.95,23.8,23.8,0,0,1,9.73,0,13.85,13.85,0,0,1,10.4,9.07,28.14,28.14,0,0,1,1.75,8.26c.4,5.32.19,10.66.23,16,0,3.79,0,7.57,0,11.36a2.26,2.26,0,0,1-2.49,2.52c-3.39,0-6.79,0-10.18,0a2.25,2.25,0,0,1-2.5-2.5c0-7.43,0-14.85,0-22.27A15.6,15.6,0,0,0,64.56,50a6.73,6.73,0,0,0-7.06-4.88c-3.46.06-6,2-7.22,5.59a16.72,16.72,0,0,0-.92,5.56c0,7,0,14,0,21,0,2-.8,2.85-2.85,2.85H37.15a2.32,2.32,0,0,1-2.63-2.62V35.72a2.35,2.35,0,0,1,2.67-2.67h9.58a2.34,2.34,0,0,1,2.6,2.59C49.38,36.63,49.37,37.63,49.37,38.83Z"/><path class="cls-2" d="M13,56.52V35.94c0-2,.9-2.88,2.88-2.89h9.22a2.44,2.44,0,0,1,2.74,2.73V77.37a2.4,2.4,0,0,1-2.69,2.7q-4.71,0-9.44,0A2.45,2.45,0,0,1,13,77.32Z"/><path class="cls-2" d="M10.88,19.5a9.58,9.58,0,1,1,9.54,9.57A9.56,9.56,0,0,1,10.88,19.5Z"/></g></g></svg>