<svg xmlns="http://www.w3.org/2000/svg" viewBox="0 0 128 129.36"><defs><style>.cls-1{fill:#39b54a;}.cls-2{fill:#e6e6e6;}.cls-3{fill:#90caf9;}</style></defs><g id="Capa_2" data-name="Capa 2"><g id="Capa_16" data-name="Capa 16"><path class="cls-1" d="M50.57,105.81c3.51-3.23,6.5-2.58,9.34-.19,3.45,2.9,6.53,2.48,10.32.12,8.63-5.4,17.55-10.34,26.43-15.34,2.44-1.37,3.67-3,3.63-5.94-.15-11-.12-22,0-33A5.49,5.49,0,0,0,97.1,46.1c-9.78-5.55-19.43-11.33-29.3-16.74a6.93,6.93,0,0,0-5.69.09c-9.63,5.27-19,10.93-28.62,16.31-2.59,1.46-3.77,3.21-3.72,6.3.16,10.72.14,21.45,0,32.18,0,2.87.82,4.76,3.45,6s4.77,2.9,7.31,4c4.86,2.07,8.09-.13,8.11-5.41,0-11.13,0-22.26,0-33.38,0-1.87-.32-3.82,2.64-3.76,2.71.07,2.44,1.89,2.44,3.59,0,11.79.07,23.58-.06,35.37-.07,7.35-5.18,11.36-12.23,9a59.43,59.43,0,0,1-13.92-7.38C26,91.15,25,88.14,25,86c-.25-11.92-.13-23.84-.11-35.76a8.34,8.34,0,0,1,4.55-7.77q15.53-8.84,30.93-17.87a8.44,8.44,0,0,1,9.32-.06q15.6,9.14,31.28,18.09a8.09,8.09,0,0,1,4.32,7.5q.06,18.08,0,36.15a8.13,8.13,0,0,1-4.42,7.45q-15.69,8.94-31.29,18.06c-3,1.78-5.9,1.89-8.93,0C57.37,109.72,54,107.86,50.57,105.81Z"/><path class="cls-1" d="M90.08,61.77c-2.65.8-4.47,1-6-2C81.68,55,70.26,53.72,66.33,57.48c-2.51,2.41-1.74,5.72,1.83,6.66s7,1.25,10.51,1.9c2.07.39,4.12.85,6.16,1.36,4,1,6.61,3.57,6.78,7.75.16,3.94-1.46,7.42-5.19,9.12-7.6,3.48-15.44,3.65-22.91-.2-2.07-1.06-3.43-3.78-4.72-6-.44-.74.34-2.19.56-3.32,1.4.4,3.42.35,4.11,1.28,4.27,5.73,13.17,8,19.49,4.41,1.36-.78,2.8-2.85,2.75-4.27a5.29,5.29,0,0,0-3.17-3.8c-3.77-1.1-7.75-1.46-11.64-2.16A42.83,42.83,0,0,1,65.5,69c-3.21-1-5.58-2.86-5.94-6.61-.39-4,.58-7.61,4.35-9.42a23.68,23.68,0,0,1,21.38.16C88.61,54.8,89.92,58,90.08,61.77Z"/><polygon class="cls-2" points="4.57 102.86 4.57 4.57 101.84 4.57 101.84 0 0 0 0 102.86 4.57 102.86"/><polygon class="cls-2" points="123.43 26.5 123.43 124.8 26.28 124.8 26.28 129.36 128 129.36 128 26.5 123.43 26.5"/><polygon class="cls-3" points="101.84 9.3 118.81 9.3 118.81 26.5 123.38 26.5 123.38 4.74 101.84 4.74 101.84 9.3"/><polygon class="cls-3" points="26.28 120.06 9.31 120.06 9.31 102.86 4.75 102.86 4.75 124.62 26.28 124.62 26.28 120.06"/><polygon class="cls-3" points="31.08 13.88 14.12 13.88 14.12 31.08 9.55 31.08 9.55 9.32 31.08 9.32 31.08 13.88"/><polygon class="cls-3" points="97.4 115.63 114.36 115.63 114.36 98.44 118.93 98.44 118.93 120.2 97.4 120.2 97.4 115.63"/></g></g></svg>