<svg xmlns="http://www.w3.org/2000/svg" viewBox="0 0 128 129.36"><defs><style>.cls-1{fill:#001e36;}.cls-2{fill:#ccc;}.cls-3{fill:#e6e6e6;}.cls-4{fill:#90caf9;}</style></defs><g id="Capa_2" data-name="Capa 2"><g id="Capa_16" data-name="Capa 16"><path class="cls-1" d="M94.06,111.55H30.63c-.28-.67-1-.58-1.49-.74a15.92,15.92,0,0,1-10.29-9.88c-.31-.82-.18-1.8-.91-2.46V36.62c.72-.28.5-1,.65-1.52a16.1,16.1,0,0,1,7.14-9.32c1.66-1.06,3.63-1.27,5.29-2.25H94.46c.08.46.45.35.76.41a15.9,15.9,0,0,1,9.33,5.85c1.7,2.05,2.32,4.52,3.39,6.83V98.47c-.77.25-.5,1-.65,1.51a16,16,0,0,1-7,9.21C98.39,110.45,96.17,110.82,94.06,111.55ZM38.19,65.93c0,4.49,0,9,0,13.46,0,2-.86,4.71.33,5.93s4,.22,6.07.45c1.58.17,1.88-.53,1.83-1.93-.09-3,0-6.07,0-9.11,0-1.25.26-1.71,1.62-1.64a24.42,24.42,0,0,0,7.71-.38c3.05-.84,5.92-1.94,7.93-4.48,3.47-4.39,3.89-9.32,1.81-14.35S59,46.82,53.9,46.15c-4.67-.6-9.35.06-14,0-1.48,0-1.72.51-1.7,1.82C38.23,53.92,38.19,59.93,38.19,65.93ZM80.24,86.55c3.51,0,5.9-.67,7.87-1.94A8.61,8.61,0,0,0,88,69.71a45.28,45.28,0,0,0-4.06-2c-1.37-.64-2.79-1.17-4.14-1.84a2,2,0,0,1-1.25-2.25c.2-1.07,1.1-1.34,1.92-1.42a15.38,15.38,0,0,1,8.71,1.35c.93.48,1.47.39,1.49-.76,0-1.72,0-3.44,0-5.16a1.19,1.19,0,0,0-.91-1.34c-5.16-1.33-10.3-1.89-15.16,1a8.18,8.18,0,0,0-4.13,7.64c.09,3.42,2,5.77,4.87,7.54,2.31,1.43,5,1.88,7.27,3.46.78.56,1.84,1,1.43,2.19a2.44,2.44,0,0,1-2.35,1.51,17.32,17.32,0,0,1-9.78-1.79c-1.15-.57-1.52-.39-1.49.88,0,1.52.09,3,0,4.56A1.93,1.93,0,0,0,72,85.35,22.34,22.34,0,0,0,80.24,86.55Z"/><path class="cls-2" d="M38.19,65.93c0-6,0-12,0-18,0-1.31.22-1.86,1.7-1.82,4.68.11,9.36-.55,14,0,5.11.67,9.48,2.69,11.56,7.73s1.66,10-1.81,14.35c-2,2.54-4.88,3.64-7.93,4.48a24.42,24.42,0,0,1-7.71.38c-1.36-.07-1.66.39-1.62,1.64.08,3,0,6.08,0,9.11.05,1.4-.25,2.1-1.83,1.93-2.07-.23-4.78.87-6.07-.45s-.32-3.9-.33-5.93C38.16,74.91,38.19,70.42,38.19,65.93Zm8.23-6.15c0,1.72,0,3.43,0,5.14,0,.69.11,1.12,1,1.11,2.3,0,4.6.11,6.83-.69a5.75,5.75,0,0,0,4.21-6,6,6,0,0,0-4.72-5.72,24.23,24.23,0,0,0-5.89-.37c-1.19,0-1.43.53-1.39,1.56C46.46,56.49,46.41,58.14,46.42,59.78Z"/><path class="cls-2" d="M80.24,86.55A22.34,22.34,0,0,1,72,85.35,1.93,1.93,0,0,1,70.4,83.2c.1-1.51.06-3,0-4.56,0-1.27.34-1.45,1.49-.88a17.32,17.32,0,0,0,9.78,1.79A2.44,2.44,0,0,0,84,78c.41-1.24-.65-1.63-1.43-2.19-2.23-1.58-5-2-7.27-3.46-2.88-1.77-4.78-4.12-4.87-7.54a8.18,8.18,0,0,1,4.13-7.64c4.86-2.85,10-2.29,15.16-1a1.19,1.19,0,0,1,.91,1.34c0,1.72,0,3.44,0,5.16,0,1.15-.56,1.24-1.49.76a15.38,15.38,0,0,0-8.71-1.35c-.82.08-1.72.35-1.92,1.42a2,2,0,0,0,1.25,2.25c1.35.67,2.77,1.2,4.14,1.84a45.28,45.28,0,0,1,4.06,2,8.61,8.61,0,0,1,.12,14.9C86.14,85.88,83.75,86.51,80.24,86.55Z"/><path class="cls-1" d="M46.41,59.78c0-1.64.05-3.29,0-4.94,0-1,.2-1.58,1.39-1.56a24.23,24.23,0,0,1,5.89.37,6,6,0,0,1,4.72,5.72,5.75,5.75,0,0,1-4.21,6c-2.23.8-4.53.67-6.83.69-.84,0-1-.42-1-1.11C46.43,63.21,46.42,61.5,46.41,59.78Z"/><polygon class="cls-3" points="4.57 102.86 4.57 4.57 101.84 4.57 101.84 0 0 0 0 102.86 4.57 102.86"/><polygon class="cls-3" points="123.43 26.5 123.43 124.8 26.28 124.8 26.28 129.36 128 129.36 128 26.5 123.43 26.5"/><polygon class="cls-4" points="101.84 9.3 118.81 9.3 118.81 26.5 123.38 26.5 123.38 4.74 101.84 4.74 101.84 9.3"/><polygon class="cls-4" points="26.28 120.06 9.31 120.06 9.31 102.86 4.75 102.86 4.75 124.62 26.28 124.62 26.28 120.06"/><polygon class="cls-4" points="31.08 13.88 14.12 13.88 14.12 31.08 9.55 31.08 9.55 9.32 31.08 9.32 31.08 13.88"/><polygon class="cls-4" points="97.4 115.63 114.36 115.63 114.36 98.44 118.93 98.44 118.93 120.2 97.4 120.2 97.4 115.63"/></g></g></svg>