<svg xmlns="http://www.w3.org/2000/svg" viewBox="0 0 128 129.36"><defs><style>.cls-1{fill:#999;}.cls-2{fill:#ccc;}.cls-3{fill:#fff;fill-opacity:0.17;}.cls-4{fill:#e6e6e6;}.cls-5{fill:#90caf9;}</style></defs><g id="Capa_2" data-name="Capa 2"><g id="Capa_16" data-name="Capa 16"><path id="polygon3" class="cls-1" d="M67.43,68.4H80.06L69.37,57.83H56.26V70.42L67.43,81.54Z"/><path id="polygon10" class="cls-1" d="M108,96,85.41,73.69H72.71V86.81l21.61,21.53H108Z"/><path id="polygon12" class="cls-2" d="M72.71,73.69h12.7L80.06,68.4H67.43V81.54l5.28,5.27Z"/><path id="path19" class="cls-1" d="M70.07,91.3a26.47,26.47,0,0,1-5.95.68A27.45,27.45,0,0,1,36.94,64.24,27.13,27.13,0,0,1,64.12,36.77c14.82,0,26.62,11.81,26.62,27.47a29.65,29.65,0,0,1-.9,7.32l13.59,13.59a42.07,42.07,0,0,0,5.47-21c0-24.14-19.26-42.21-45.06-42.21S18.9,39.88,18.9,64.14s19.26,42.68,44.94,42.68a49.37,49.37,0,0,0,18.38-3.44Z"/><path id="polygon4153" class="cls-3" d="M56.26,57.83,108,108.34V96L85.41,73.69,80.06,68.4,69.37,57.83Z"/><polygon class="cls-4" points="4.57 102.86 4.57 4.57 101.84 4.57 101.84 0 0 0 0 102.86 4.57 102.86"/><polygon class="cls-4" points="123.43 26.5 123.43 124.8 26.28 124.8 26.28 129.36 128 129.36 128 26.5 123.43 26.5"/><polygon class="cls-5" points="101.84 9.3 118.81 9.3 118.81 26.5 123.38 26.5 123.38 4.74 101.84 4.74 101.84 9.3"/><polygon class="cls-5" points="26.28 120.06 9.31 120.06 9.31 102.86 4.75 102.86 4.75 124.62 26.28 124.62 26.28 120.06"/><polygon class="cls-5" points="31.08 13.88 14.12 13.88 14.12 31.08 9.55 31.08 9.55 9.32 31.08 9.32 31.08 13.88"/><polygon class="cls-5" points="97.4 115.63 114.36 115.63 114.36 98.44 118.93 98.44 118.93 120.2 97.4 120.2 97.4 115.63"/></g></g></svg>